<?xml version="1.0" standalone="no"?>
<!DOCTYPE svg PUBLIC "-//W3C//DTD SVG 1.1//EN" "http://www.w3.org/Graphics/SVG/1.1/DTD/svg11.dtd" >
<svg xmlns="http://www.w3.org/2000/svg" xmlns:xlink="http://www.w3.org/1999/xlink" version="1.1">
<metadata>
Created by FontForge 20170910 at Thu May 15 12:21:43 2003
 By jimmywarting
 (C) Copyright 1989, 1990, 1998, 2002 The Monotype Corporation PLC. All Rights Reserved. 
</metadata>
<defs>
<font id="GillSansStd-Light" horiz-adv-x="333" >
  <font-face 
    font-family="Gill Sans Std"
    font-weight="300"
    font-stretch="normal"
    units-per-em="1000"
    panose-1="2 11 3 2 2 1 4 2 2 3"
    ascent="682"
    descent="-318"
    x-height="449"
    cap-height="682"
    bbox="-215 -250 1036 897"
    underline-thickness="50"
    underline-position="-100"
    stemh="39"
    stemv="48"
    unicode-range="U+0020-FB02"
  />
<missing-glyph horiz-adv-x="500" 
d="M0 0v700h500v-700h-500zM250 395l170 255h-340zM280 350l170 -255v510zM80 50h340l-170 255zM50 605v-510l170 255z" />
    <glyph glyph-name="f_i" unicode="fi" horiz-adv-x="479" 
d="M235 449v-39h-93v-410h-48v410h-82v39h82v56c0 121 57 186 161 186c94 0 150 -46 154 -126h-48c-5 59 -47 86 -104 86c-80 0 -115 -44 -115 -146v-56h93zM409 449v-449h-48v449h48z" />
    <glyph glyph-name="f_l" unicode="fl" horiz-adv-x="479" 
d="M237 449v-39h-93v-410h-48v410h-83v39h83v78c0 115 76 164 151 164c24 0 42 -4 67 -15v-47c-36 12 -49 15 -71 15c-67 0 -99 -48 -99 -115v-80h93zM409 682v-682h-48v682h48z" />
    <glyph glyph-name=".notdef" horiz-adv-x="500" 
d="M0 0v700h500v-700h-500zM250 395l170 255h-340zM280 350l170 -255v510zM80 50h340l-170 255zM50 605v-510l170 255z" />
    <glyph glyph-name="space" unicode=" " horiz-adv-x="278" 
 />
    <glyph glyph-name="exclam" unicode="!" horiz-adv-x="177" 
d="M121 97v-97h-65v97h65zM121 682l-17 -490h-31l-17 490h65z" />
    <glyph glyph-name="quotedbl" unicode="&#x22;" horiz-adv-x="278" 
d="M175 684h66v-109l-12 -125h-42l-12 125v109zM37 684h66v-109l-12 -125h-42l-12 125v109z" />
    <glyph glyph-name="numbersign" unicode="#" horiz-adv-x="660" 
d="M261 698h46l-42 -205h190l43 205h46l-43 -205h82v-46h-91l-40 -191h131v-46h-141l-42 -203h-46l42 203h-190l-42 -203h-46l42 203h-83v46h93l39 191h-132v46h142zM255 447l-39 -191h190l40 191h-191z" />
    <glyph glyph-name="dollar" unicode="$" horiz-adv-x="521" 
d="M455 600v-56c-62 45 -104 63 -171 70v-261c130 -35 200 -92 200 -187c0 -60 -46 -164 -200 -175v-108h-48v108c-80 6 -144 31 -201 80v55c79 -57 127 -78 201 -88v277c-133 40 -196 97 -196 180c0 64 48 158 196 166v30h48v-30c74 -6 113 -20 171 -61zM236 368v246
c-92 -2 -145 -62 -145 -116c0 -40 21 -96 145 -130zM284 299v-261c85 4 149 58 149 125c0 65 -41 103 -149 136z" />
    <glyph glyph-name="percent" unicode="%" horiz-adv-x="698" 
d="M679 149c0 -89 -73 -161 -161 -161c-89 0 -161 72 -161 161s72 161 161 161c88 0 161 -72 161 -161zM636 149c0 65 -53 118 -118 118s-118 -54 -118 -118c0 -66 53 -118 118 -118s118 53 118 118zM341 530c0 -89 -73 -161 -161 -161c-89 0 -161 72 -161 161
s72 161 161 161c88 0 161 -72 161 -161zM298 530c0 65 -53 118 -118 118s-118 -54 -118 -118c0 -66 53 -118 118 -118s118 53 118 118zM645 688l-549 -699h-50l550 699h49z" />
    <glyph glyph-name="ampersand" unicode="&#x26;" horiz-adv-x="615" 
d="M508 340h56c-23 -72 -56 -136 -94 -193l139 -147h-67l-103 107c-65 -73 -131 -116 -235 -116c-107 0 -178 65 -178 162c0 87 60 161 169 208c-56 59 -85 105 -85 159c0 84 71 149 162 149c86 0 149 -60 149 -141c0 -74 -45 -131 -143 -181l155 -161c32 48 54 92 75 154z
M244 384c83 34 128 83 128 139s-44 97 -103 97c-61 0 -108 -42 -108 -97c0 -41 27 -88 83 -139zM403 144l-173 180c-104 -45 -147 -92 -147 -164c0 -76 49 -120 132 -120c69 0 129 33 188 104z" />
    <glyph glyph-name="quoteright" unicode="&#x2019;" horiz-adv-x="177" 
d="M121 684v-76c0 -51 -21 -106 -65 -138v35c18 27 21 48 21 82h-21v97h65z" />
    <glyph glyph-name="parenleft" unicode="(" 
d="M131 231c0 -160 64 -342 195 -461h-50c-128 128 -196 287 -196 461s67 332 195 460h50c-131 -119 -194 -300 -194 -460z" />
    <glyph glyph-name="parenright" unicode=")" 
d="M202 231c0 160 -64 341 -195 460h50c128 -128 196 -286 196 -460s-68 -333 -196 -461h-50c131 119 195 301 195 461z" />
    <glyph glyph-name="asterisk" unicode="*" horiz-adv-x="469" 
d="M395 613l-140 -113l2 -5l180 16v-47l-180 20l-3 -6l141 -114l-34 -34l-116 141l-5 -1l17 -185h-46l18 185l-4 1l-115 -141l-35 34l142 114l-2 5l-183 -17v46l182 -18l1 6l-140 113l35 35l114 -139l5 2l-18 180h46l-17 -179l5 -3l116 139z" />
    <glyph glyph-name="plus" unicode="+" horiz-adv-x="660" 
d="M68 373h240v240h44v-240h240v-44h-240v-240h-44v240h-240v44z" />
    <glyph glyph-name="comma" unicode="," horiz-adv-x="177" 
d="M121 97v-76c0 -51 -21 -106 -65 -138v35c18 27 21 48 21 82h-21v97h65z" />
    <glyph glyph-name="hyphen" unicode="-" horiz-adv-x="313" 
d="M275 249v-47h-237v47h237z" />
    <glyph glyph-name="period" unicode="." horiz-adv-x="177" 
d="M121 97v-97h-65v97h65z" />
    <glyph glyph-name="slash" unicode="/" horiz-adv-x="281" 
d="M223 691h46l-219 -700h-47z" />
    <glyph glyph-name="zero" unicode="0" horiz-adv-x="500" 
d="M468 338c0 -220 -99 -347 -216 -347c-129 0 -220 135 -220 338c0 148 29 243 93 307c30 30 76 55 125 55c48 0 91 -21 123 -53c68 -68 95 -175 95 -300zM417 343c0 147 -52 300 -167 300c-98 0 -167 -125 -167 -302c0 -179 67 -302 165 -302c111 0 169 144 169 304z" />
    <glyph glyph-name="one" unicode="1" horiz-adv-x="500" 
d="M275 682v-682h-51v682h51z" />
    <glyph glyph-name="two" unicode="2" horiz-adv-x="500" 
d="M45 569v60c50 41 102 62 159 62c112 0 200 -86 200 -196c0 -104 -70 -242 -251 -448h317v-47h-433c244 235 316 394 316 494c0 85 -66 149 -153 149c-53 0 -91 -18 -155 -74z" />
    <glyph glyph-name="three" unicode="3" horiz-adv-x="500" 
d="M74 598v49c41 30 87 44 144 44c119 0 203 -71 203 -172c0 -66 -38 -130 -124 -156v-2c94 -31 132 -98 132 -174c0 -137 -111 -196 -204 -196c-53 0 -114 13 -157 34v47c47 -22 97 -33 151 -33c95 0 159 58 159 145c0 92 -65 153 -176 151v48c108 0 168 65 168 132
c0 73 -67 128 -156 128c-49 0 -94 -14 -140 -45z" />
    <glyph glyph-name="four" unicode="4" horiz-adv-x="500" 
d="M376 691v-387h95v-41h-95v-263h-51v263h-311v17l343 411h19zM325 304v288h-2l-238 -288h240z" />
    <glyph glyph-name="five" unicode="5" horiz-adv-x="500" 
d="M386 682v-47h-241v-216c160 24 281 -56 281 -207c0 -127 -94 -221 -221 -221c-54 0 -105 14 -164 45v58c68 -39 117 -55 166 -55c98 0 168 71 168 169c0 148 -136 198 -278 156v318h289z" />
    <glyph glyph-name="six" unicode="6" horiz-adv-x="500" 
d="M345 691l30 -36c-137 -95 -234 -222 -254 -339c49 36 99 53 151 53c109 0 191 -80 191 -186c0 -112 -81 -192 -194 -192c-127 0 -208 94 -208 240c0 189 115 334 284 460zM112 257c-15 -137 58 -218 154 -218c83 0 146 59 146 137c0 82 -64 145 -147 145
c-55 0 -101 -19 -153 -64z" />
    <glyph glyph-name="seven" unicode="7" horiz-adv-x="500" 
d="M475 682l-312 -691l-44 19l282 625h-372v47h446z" />
    <glyph glyph-name="eight" unicode="8" horiz-adv-x="500" 
d="M158 355c-59 40 -89 91 -89 154c0 99 83 182 180 182c100 0 182 -82 182 -181c0 -64 -29 -116 -87 -155c68 -41 101 -96 101 -169c0 -110 -85 -195 -193 -195c-110 0 -196 85 -196 191c0 73 35 133 102 173zM251 377c75 0 129 58 129 135c0 73 -58 131 -131 131
c-72 0 -129 -59 -129 -133c0 -75 57 -133 131 -133zM249 329c-80 0 -142 -66 -142 -145s62 -145 145 -145c84 0 142 64 142 150c0 78 -64 140 -145 140z" />
    <glyph glyph-name="nine" unicode="9" horiz-adv-x="500" 
d="M144 -9l-28 37c172 125 236 231 256 337c-57 -36 -100 -51 -150 -51c-108 0 -190 81 -190 187c0 111 80 190 192 190c130 0 210 -91 210 -239c0 -158 -80 -311 -290 -461zM381 426c10 128 -42 217 -154 217c-79 0 -144 -58 -144 -139s60 -142 141 -142
c58 0 109 21 157 64z" />
    <glyph glyph-name="colon" unicode=":" horiz-adv-x="177" 
d="M121 449v-97h-65v97h65zM121 97v-97h-65v97h65z" />
    <glyph glyph-name="semicolon" unicode=";" horiz-adv-x="177" 
d="M121 97v-76c0 -51 -21 -106 -65 -138v35c18 27 21 48 21 82h-21v97h65zM121 449v-97h-65v97h65z" />
    <glyph glyph-name="less" unicode="&#x3c;" horiz-adv-x="660" 
d="M68 329v42l524 220v-49l-464 -192l464 -192v-49z" />
    <glyph glyph-name="equal" unicode="=" horiz-adv-x="660" 
d="M68 493h524v-44h-524v44zM68 252h524v-44h-524v44z" />
    <glyph glyph-name="greater" unicode="&#x3e;" horiz-adv-x="660" 
d="M592 329l-524 -220v49l464 192l-464 192v49l524 -220v-42z" />
    <glyph glyph-name="question" unicode="?" horiz-adv-x="281" 
d="M25 595l23 78c26 13 44 18 68 18c75 0 125 -57 125 -142c0 -143 -129 -208 -129 -307c0 -19 5 -39 19 -63l-18 -14c-27 31 -39 61 -39 92c0 101 116 177 116 297c0 52 -33 94 -75 94c-33 0 -58 -17 -80 -53h-10zM150 97v-97h-65v97h65z" />
    <glyph glyph-name="at" unicode="@" horiz-adv-x="800" 
d="M558 505h61l-83 -392c-9 -41 -10 -59 18 -59c62 0 191 99 191 282c0 124 -65 315 -326 315c-222 0 -380 -162 -380 -391c0 -226 155 -379 385 -379c146 0 254 53 328 152h50c-77 -131 -228 -192 -379 -192c-254 0 -425 169 -425 420c0 207 128 430 427 430
c260 0 361 -190 361 -355c0 -201 -148 -326 -252 -326c-42 0 -70 19 -55 88l-2 2c-50 -60 -105 -90 -165 -90c-97 0 -169 87 -169 206c0 153 107 301 251 301c55 0 115 -27 146 -94h2zM518 336c0 80 -52 138 -125 138c-129 0 -188 -165 -188 -261c0 -90 53 -156 125 -156
c115 0 188 174 188 279z" />
    <glyph glyph-name="A" unicode="A" horiz-adv-x="667" 
d="M348 687l315 -687h-55l-108 236h-333l-108 -236h-55l315 687h29zM480 280l-147 321l-146 -321h293z" />
    <glyph glyph-name="B" unicode="B" horiz-adv-x="531" 
d="M80 682h142c184 0 227 -97 227 -176c0 -68 -31 -115 -98 -152c104 -22 158 -82 158 -173c0 -112 -90 -181 -229 -181h-200v682zM133 638v-272h73c138 0 186 55 186 136c0 104 -82 136 -188 136h-71zM133 322v-278h141c141 0 178 76 178 138c0 67 -36 140 -201 140h-118z
" />
    <glyph glyph-name="C" unicode="C" horiz-adv-x="677" 
d="M647 634v-58c-85 45 -162 66 -243 66c-170 0 -298 -129 -298 -302c0 -176 127 -300 305 -300c77 0 150 21 243 70v-55c-79 -42 -163 -64 -242 -64c-208 0 -363 149 -363 349c0 209 171 351 358 351c76 0 157 -19 240 -57z" />
    <glyph glyph-name="D" unicode="D" horiz-adv-x="740" 
d="M79 682h239c290 0 372 -191 372 -341c0 -158 -93 -341 -363 -341h-248v682zM132 638v-594h192c164 0 309 105 309 297c0 175 -127 297 -312 297h-189z" />
    <glyph glyph-name="E" unicode="E" horiz-adv-x="490" 
d="M452 682v-44h-319v-273h311v-44h-311v-277h327v-44h-380v682h372z" />
    <glyph glyph-name="F" unicode="F" horiz-adv-x="438" 
d="M429 682v-44h-298v-259h269v-44h-269v-335h-53v682h351z" />
    <glyph glyph-name="G" unicode="G" horiz-adv-x="719" 
d="M650 633v-60c-83 47 -160 69 -242 69c-173 0 -301 -128 -301 -301c0 -153 101 -301 316 -301c79 0 133 15 187 42v184h-144v44h197v-261c-81 -39 -163 -58 -242 -58c-212 0 -371 150 -371 352c0 200 155 348 366 348c77 0 138 -15 234 -58z" />
    <glyph glyph-name="H" unicode="H" horiz-adv-x="719" 
d="M640 682v-682h-53v323h-455v-323h-53v682h53v-315h455v315h53z" />
    <glyph glyph-name="I" unicode="I" horiz-adv-x="208" 
d="M131 682v-682h-53v682h53z" />
    <glyph glyph-name="J" unicode="J" horiz-adv-x="208" 
d="M135 682v-682c0 -70 -10 -122 -41 -153c-41 -41 -70 -50 -134 -44l-5 50c79 -18 127 29 127 133v696h53z" />
    <glyph glyph-name="K" unicode="K" horiz-adv-x="531" 
d="M522 682l-325 -340l356 -342h-67l-357 341v-341h-53v682h53v-340l327 340h66z" />
    <glyph glyph-name="L" unicode="L" horiz-adv-x="469" 
d="M132 682v-638h337v-44h-390v682h53z" />
    <glyph glyph-name="M" unicode="M" horiz-adv-x="781" 
d="M390 365l260 317h53v-682h-53v605h-2l-258 -319l-258 319h-2v-605h-53v682h53z" />
    <glyph glyph-name="N" unicode="N" horiz-adv-x="771" 
d="M693 682v-682h-44l-518 596v-596h-53v682h45l517 -596v596h53z" />
    <glyph glyph-name="O" unicode="O" horiz-adv-x="823" 
d="M773 341c0 -196 -159 -350 -362 -350c-202 0 -360 154 -360 350s158 350 360 350c203 0 362 -154 362 -350zM716 341c0 170 -132 301 -303 301s-305 -131 -305 -301s134 -301 305 -301s303 131 303 301z" />
    <glyph glyph-name="P" unicode="P" horiz-adv-x="510" 
d="M78 682h188c160 0 223 -82 223 -180c0 -88 -51 -183 -228 -183h-130v-319h-53v682zM131 638v-275h127c127 0 174 61 174 138c0 74 -48 137 -168 137h-133z" />
    <glyph glyph-name="Q" unicode="Q" horiz-adv-x="823" 
d="M743 -74l-59 -69c-144 18 -240 75 -310 134c-194 15 -323 177 -323 349c0 199 155 351 360 351c206 0 362 -150 362 -349c0 -113 -66 -316 -322 -351c63 -44 149 -80 214 -80c24 0 42 7 67 25zM716 341c0 170 -134 301 -304 301s-304 -134 -304 -301s133 -301 301 -301
c169 0 307 133 307 301z" />
    <glyph glyph-name="R" unicode="R" horiz-adv-x="573" 
d="M79 682h175c167 0 226 -85 226 -176c0 -79 -43 -134 -130 -166c32 -17 59 -56 91 -104l154 -236h-62l-119 187c-82 129 -108 140 -190 140h-92v-327h-53v682zM132 638v-267h113c120 0 178 52 178 134c0 77 -55 133 -180 133h-111z" />
    <glyph glyph-name="S" unicode="S" horiz-adv-x="469" 
d="M400 648v-58c-70 40 -106 52 -153 52c-82 0 -144 -56 -144 -130c0 -182 325 -95 325 -334c0 -105 -87 -187 -198 -187c-56 0 -115 20 -175 60v62c76 -55 119 -73 172 -73c81 0 144 59 144 136c0 194 -325 109 -325 334c0 101 88 181 196 181c53 0 105 -14 158 -43z" />
    <glyph glyph-name="T" unicode="T" horiz-adv-x="573" 
d="M569 682v-44h-256v-638h-53v638h-256v44h565z" />
    <glyph glyph-name="U" unicode="U" horiz-adv-x="698" 
d="M582 682h53v-372c0 -234 -147 -319 -286 -319c-154 0 -285 102 -285 307v384h53v-382c0 -179 110 -260 232 -260c116 0 233 73 233 267v375z" />
    <glyph glyph-name="V" unicode="V" horiz-adv-x="594" 
d="M591 682l-286 -689h-15l-287 689h53l242 -577l240 577h53z" />
    <glyph glyph-name="W" unicode="W" horiz-adv-x="1031" 
d="M516 569l-229 -576h-14l-274 689h54l226 -566l229 566h16l228 -566l226 566h54l-274 -689h-13z" />
    <glyph glyph-name="X" unicode="X" horiz-adv-x="688" 
d="M344 388l259 294h68l-293 -333l310 -349h-68l-276 312l-276 -312h-68l309 349l-293 333h68z" />
    <glyph glyph-name="Y" unicode="Y" horiz-adv-x="583" 
d="M583 682l-265 -316v-366h-53v366l-265 316h64l228 -270l227 270h64z" />
    <glyph glyph-name="Z" unicode="Z" horiz-adv-x="635" 
d="M602 682l5 -19l-511 -619h515v-44h-597l-5 15l511 623h-488v44h570z" />
    <glyph glyph-name="bracketleft" unicode="[" horiz-adv-x="302" 
d="M117 635v-808h178v-47h-226v902h226v-47h-178z" />
    <glyph glyph-name="backslash" unicode="\" horiz-adv-x="281" 
d="M232 -9l-220 700h47l219 -700h-46z" />
    <glyph glyph-name="bracketright" unicode="]" horiz-adv-x="302" 
d="M185 -173v808h-178v47h226v-902h-226v47h178z" />
    <glyph glyph-name="asciicircum" unicode="^" horiz-adv-x="660" 
d="M330 691l219 -262l-32 -26l-187 225l-188 -225l-31 26z" />
    <glyph glyph-name="underscore" unicode="_" horiz-adv-x="500" 
d="M-6 -75h512v-50h-512v50z" />
    <glyph glyph-name="quoteleft" unicode="&#x2018;" horiz-adv-x="177" 
d="M56 470v76c0 51 21 106 65 138v-35c-18 -27 -21 -48 -21 -82h21v-97h-65z" />
    <glyph glyph-name="a" unicode="a" horiz-adv-x="427" 
d="M421 78v-40l-8 -6c-45 -34 -64 -41 -83 -41c-22 0 -28 11 -32 56c-50 -39 -93 -56 -141 -56c-68 0 -121 51 -121 114c0 117 131 158 262 164v57c0 60 -33 92 -100 92c-48 0 -84 -17 -137 -57v49c55 34 96 48 145 48c56 0 140 -23 140 -117v-280c0 -18 3 -23 11 -23
c11 0 40 21 64 40zM298 89v140c-117 5 -214 -46 -214 -124c0 -42 38 -74 89 -74c43 0 78 16 125 58z" />
    <glyph glyph-name="b" unicode="b" horiz-adv-x="510" 
d="M62 25v657h48v-297c47 46 90 73 162 73c118 0 200 -90 200 -219c0 -151 -99 -248 -251 -248c-54 0 -98 10 -159 34zM110 331v-272c40 -15 75 -21 110 -21c117 0 201 83 201 198c0 106 -65 182 -155 182c-56 0 -102 -26 -156 -87z" />
    <glyph glyph-name="c" unicode="c" horiz-adv-x="417" 
d="M379 436v-53c-52 22 -79 28 -117 28c-100 0 -169 -76 -169 -188c0 -113 67 -185 173 -185c41 0 71 6 121 26v-50c-51 -17 -83 -23 -125 -23c-132 0 -220 91 -220 227c0 141 90 240 218 240c39 0 69 -6 119 -22z" />
    <glyph glyph-name="d" unicode="d" horiz-adv-x="510" 
d="M449 682v-682h-48v35c-48 -33 -82 -44 -133 -44c-128 0 -227 102 -227 234c0 134 96 233 227 233c46 0 78 -9 133 -36v260h48zM401 79v290c-49 31 -84 42 -131 42c-104 0 -178 -76 -178 -183c0 -109 80 -190 188 -190c45 0 75 10 121 41z" />
    <glyph glyph-name="e" unicode="e" horiz-adv-x="479" 
d="M445 241h-354c-14 -115 77 -203 179 -203c60 0 109 20 167 67v-54c-53 -41 -108 -60 -173 -60c-130 0 -224 100 -224 239c0 132 87 228 206 228c96 0 199 -67 199 -217zM97 280h291c-17 88 -65 131 -142 131c-74 0 -132 -49 -149 -131z" />
    <glyph glyph-name="f" unicode="f" horiz-adv-x="240" 
d="M332 672v-45c-38 13 -56 17 -81 17c-75 0 -109 -44 -109 -139v-56h87v-39h-87v-410h-48v410h-83v39h83v74c0 116 81 168 156 168c27 0 47 -5 82 -19z" />
    <glyph glyph-name="g" unicode="g" horiz-adv-x="427" 
d="M417 449v-39h-102c43 -40 62 -74 62 -119c0 -201 -255 -135 -255 -222c0 -98 294 22 294 -168c0 -82 -75 -131 -201 -131c-138 0 -197 56 -197 120c0 57 47 96 131 109v2c-48 11 -73 33 -73 64c0 40 37 57 90 73v2c-90 26 -120 95 -120 149c0 75 47 160 191 160h180z
M331 290c0 66 -54 119 -121 119s-118 -52 -118 -117c0 -67 51 -122 119 -122c66 0 120 54 120 120zM370 -103c0 63 -62 79 -143 79c-56 0 -163 -8 -163 -83c0 -53 55 -83 154 -83c92 0 152 34 152 87z" />
    <glyph glyph-name="h" unicode="h" horiz-adv-x="490" 
d="M110 682v-311h2c42 63 83 87 148 87c96 0 167 -63 167 -183v-275h-48v256c0 97 -36 155 -122 155c-66 0 -106 -32 -147 -96v-315h-48v682h48z" />
    <glyph glyph-name="i" unicode="i" horiz-adv-x="188" 
d="M118 449v-449h-48v449h48zM118 682v-82h-48v82h48z" />
    <glyph glyph-name="j" unicode="j" horiz-adv-x="188" 
d="M116 449v-499c0 -127 -62 -181 -133 -180l-11 41c62 2 96 33 96 140v498h48zM116 682v-82h-48v82h48z" />
    <glyph glyph-name="k" unicode="k" horiz-adv-x="427" 
d="M107 682v-682h-48v682h48zM425 449l-246 -213l284 -236h-66l-283 236l248 213h63z" />
    <glyph glyph-name="l" unicode="l" horiz-adv-x="188" 
d="M118 682v-682h-48v682h48z" />
    <glyph glyph-name="m" unicode="m" horiz-adv-x="771" 
d="M108 449v-79h2c40 63 82 88 143 88c70 0 116 -35 145 -108c45 75 91 108 156 108c94 0 156 -72 156 -182v-276h-48v255c0 90 -38 156 -117 156c-55 0 -91 -30 -136 -105v-306h-48v256c0 111 -55 155 -118 155c-55 0 -93 -27 -135 -96v-315h-48v449h48z" />
    <glyph glyph-name="n" unicode="n" horiz-adv-x="490" 
d="M110 449v-78h2c42 63 83 87 148 87c96 0 167 -63 167 -184v-274h-48v256c0 101 -43 155 -122 155c-65 0 -107 -31 -147 -96v-315h-48v449h48z" />
    <glyph glyph-name="o" unicode="o" horiz-adv-x="542" 
d="M499 224c0 -133 -97 -233 -228 -233s-229 100 -229 233c0 134 98 234 229 234s228 -100 228 -234zM448 224c0 107 -76 187 -177 187c-102 0 -178 -79 -178 -187c0 -107 76 -186 178 -186c101 0 177 79 177 186z" />
    <glyph glyph-name="p" unicode="p" horiz-adv-x="510" 
d="M111 449v-25c51 25 88 34 135 34c128 0 222 -98 222 -232c0 -132 -98 -235 -224 -235c-45 0 -82 9 -133 34v-255h-48v679h48zM111 378v-306c46 -25 79 -34 124 -34c108 0 180 74 180 184s-78 189 -186 189c-40 0 -71 -8 -118 -33z" />
    <glyph glyph-name="q" unicode="q" horiz-adv-x="510" 
d="M447 449v-679h-48v256c-57 -26 -98 -35 -147 -35c-126 0 -215 93 -215 225c0 139 95 242 222 242c49 0 87 -11 140 -40v31h48zM399 74v297c-50 30 -83 40 -130 40c-103 0 -181 -85 -181 -199c0 -107 69 -177 174 -177c50 0 85 10 137 39z" />
    <glyph glyph-name="r" unicode="r" 
d="M373 405l-28 -45c-43 39 -65 51 -90 51c-44 0 -95 -46 -144 -129v-282h-48v449h48v-118h2c53 84 107 127 157 127c31 0 59 -14 103 -53z" />
    <glyph glyph-name="s" unicode="s" horiz-adv-x="354" 
d="M309 420v-52c-50 33 -83 46 -123 46c-54 0 -96 -33 -96 -76c0 -108 233 -67 233 -223c0 -70 -64 -124 -147 -124c-46 0 -89 13 -135 41v47c59 -30 98 -41 141 -41c55 0 95 32 95 78c0 107 -233 75 -233 219c0 69 64 123 145 123c39 0 75 -12 120 -38z" />
    <glyph glyph-name="t" unicode="t" horiz-adv-x="302" 
d="M150 598v-149h126v-39h-126v-267c0 -77 1 -105 67 -105c27 0 42 4 82 22v-46c-9 -5 -24 -10 -41 -15c-17 -4 -36 -8 -52 -8c-50 0 -104 28 -104 96v323h-121v39h121v107l33 42h15z" />
    <glyph glyph-name="u" unicode="u" horiz-adv-x="490" 
d="M379 0v74h-2c-41 -58 -78 -83 -148 -83c-77 0 -167 46 -167 180v278h48v-277c0 -91 57 -134 123 -134c71 0 107 35 146 96v315h48v-449h-48z" />
    <glyph glyph-name="v" unicode="v" horiz-adv-x="427" 
d="M427 449l-193 -458h-30l-204 458h49l169 -378l162 378h47z" />
    <glyph glyph-name="w" unicode="w" horiz-adv-x="708" 
d="M708 449l-194 -458h-23l-138 365l-139 -365h-22l-192 458h47l153 -366l141 366h26l137 -366l156 366h48z" />
    <glyph glyph-name="x" unicode="x" horiz-adv-x="479" 
d="M244 197l-176 -197h-62l205 230l-205 219h62l176 -186l176 186h62l-206 -219l206 -230h-62z" />
    <glyph glyph-name="y" unicode="y" horiz-adv-x="417" 
d="M423 449l-336 -679h-49l157 317l-189 362h50l163 -314l155 314h49z" />
    <glyph glyph-name="z" unicode="z" horiz-adv-x="396" 
d="M381 449l4 -15l-295 -390h295v-44h-370l-5 15l297 390h-278v44h352z" />
    <glyph glyph-name="braceleft" unicode="{" 
d="M49 194v64c69 2 94 46 94 164v97c0 119 48 168 143 163v-54c-66 0 -88 -17 -88 -109v-97c0 -107 -28 -170 -97 -196c69 -26 97 -89 97 -196v-97c0 -92 22 -109 88 -109v-54c-95 -5 -143 44 -143 163v97c0 118 -25 162 -94 164z" />
    <glyph glyph-name="bar" unicode="|" horiz-adv-x="222" 
d="M86 750h48v-1000h-48v1000z" />
    <glyph glyph-name="braceright" unicode="}" 
d="M284 258v-64c-69 -2 -94 -46 -94 -164v-97c0 -119 -48 -168 -143 -163v54c66 0 88 17 88 109v97c0 107 28 170 97 196c-69 26 -97 89 -97 196v97c0 92 -22 109 -88 109v54c95 5 143 -44 143 -163v-97c0 -118 25 -162 94 -164z" />
    <glyph glyph-name="asciitilde" unicode="~" horiz-adv-x="660" 
d="M67 291v54c55 40 100 59 140 59c74 0 184 -79 246 -79c37 0 68 15 139 66v-54c-58 -42 -97 -59 -137 -59c-78 0 -177 79 -247 79c-41 0 -68 -12 -141 -66z" />
    <glyph glyph-name="exclamdown" unicode="&#xa1;" horiz-adv-x="177" 
d="M56 364v97h65v-97h-65zM56 -221l17 490h31l17 -490h-65z" />
    <glyph glyph-name="cent" unicode="&#xa2;" horiz-adv-x="417" 
d="M410 638l-67 -190c11 -3 28 -9 34 -12v-53c-14 7 -32 15 -50 20l-125 -355c17 -6 45 -10 65 -10c40 0 74 6 120 27v-47c-61 -29 -125 -35 -201 -18l-68 -189h-44l74 207c-75 43 -106 117 -106 197c0 173 114 257 260 241l65 182h43zM164 67l124 344h-24
c-96 0 -171 -66 -171 -189c0 -68 21 -114 71 -155z" />
    <glyph glyph-name="sterling" unicode="&#xa3;" horiz-adv-x="552" 
d="M507 682l24 -47c-24 6 -37 8 -54 8c-122 0 -188 -121 -237 -289h106v-47h-120l-67 -254c53 5 77 7 104 7c36 0 67 -5 95 -10c14 -2 27 -5 40 -7c14 -2 27 -4 41 -4c19 0 34 2 50 6c15 5 31 11 49 21v-53c-16 -8 -31 -13 -46 -17c-16 -3 -32 -5 -50 -5c-28 0 -56 6 -87 11
c-30 5 -64 10 -104 10c-49 0 -87 -4 -157 -17l84 312h-84v47h97c58 211 143 337 268 337c18 0 29 -2 48 -9z" />
    <glyph glyph-name="fraction" unicode="&#x2044;" horiz-adv-x="135" 
d="M350 691l-526 -718h-39l526 718h39z" />
    <glyph glyph-name="yen" unicode="&#xa5;" horiz-adv-x="556" 
d="M2 716h72l207 -354l204 354h69l-210 -354h179v-47h-212v-76h212v-47h-212v-192h-64v192h-214v47h214v76h-214v47h181z" />
    <glyph glyph-name="florin" unicode="&#x192;" horiz-adv-x="556" 
d="M359 521h109l-11 -47h-107l-121 -557c-20 -93 -57 -127 -135 -127c-27 0 -48 3 -87 15l11 49c32 -8 50 -11 71 -11c45 0 67 18 79 73l120 558h-82l9 47h82l24 104c11 47 44 105 129 105c23 0 37 -2 89 -16l-10 -48c-28 7 -51 10 -75 10c-51 0 -65 -26 -79 -87z" />
    <glyph glyph-name="section" unicode="&#xa7;" horiz-adv-x="396" 
d="M337 581h-51c-9 42 -40 66 -86 66c-51 0 -92 -38 -92 -85c0 -137 262 -215 262 -379c0 -54 -21 -96 -84 -162c36 -42 49 -75 49 -119c0 -79 -57 -132 -142 -132c-69 0 -125 39 -133 108h50c9 -42 38 -64 85 -64c54 0 94 37 94 88c0 131 -263 210 -263 377
c0 53 24 99 84 159c-38 49 -50 79 -50 121c0 78 58 132 142 132c78 0 127 -48 135 -110zM324 179c0 39 -16 71 -58 113c-49 49 -91 84 -125 115c-47 -46 -64 -81 -64 -127c0 -89 92 -140 179 -227c46 43 68 83 68 126z" />
    <glyph glyph-name="currency" unicode="&#xa4;" horiz-adv-x="556" 
d="M277 557c51 0 97 -18 136 -48l63 63l32 -32l-63 -63c31 -39 48 -84 48 -135c0 -57 -22 -103 -48 -136l63 -63l-32 -32l-63 63c-39 -31 -85 -48 -136 -48c-60 0 -104 23 -135 48l-63 -63l-32 32l63 63c-30 40 -48 82 -48 136c0 55 18 97 48 135l-63 63l32 32l63 -63
c39 30 83 48 135 48zM277 509c-93 0 -167 -74 -167 -167s74 -168 167 -168s168 75 168 168s-75 167 -168 167z" />
    <glyph glyph-name="quotesingle" unicode="'" horiz-adv-x="222" 
d="M78 684h66v-109l-12 -125h-42l-12 125v109z" />
    <glyph glyph-name="quotedblleft" unicode="&#x201c;" horiz-adv-x="396" 
d="M275 470v76c0 51 21 106 65 138v-35c-18 -27 -21 -48 -21 -82h21v-97h-65zM56 470v76c0 51 21 106 65 138v-35c-18 -27 -21 -48 -21 -82h21v-97h-65z" />
    <glyph glyph-name="guillemotleft" unicode="&#xab;" horiz-adv-x="500" 
d="M293 231l188 -224h-60l-189 224l189 224h60zM80 231l188 -224h-60l-189 224l189 224h60z" />
    <glyph glyph-name="guilsinglleft" unicode="&#x2039;" horiz-adv-x="281" 
d="M77 231l188 -224h-60l-189 224l189 224h60z" />
    <glyph glyph-name="guilsinglright" unicode="&#x203a;" horiz-adv-x="281" 
d="M204 231l-188 224h60l189 -224l-189 -224h-60z" />
    <glyph glyph-name="endash" unicode="&#x2013;" horiz-adv-x="500" 
d="M-6 266h512v-32h-512v32z" />
    <glyph glyph-name="dagger" unicode="&#x2020;" horiz-adv-x="490" 
d="M277 691l-18 -283l205 13v-55l-205 13l18 -609h-65l19 609l-206 -13v55l206 -13l-19 283h65z" />
    <glyph glyph-name="daggerdbl" unicode="&#x2021;" horiz-adv-x="479" 
d="M213 231l14 180l-201 -14v55l201 -14l-19 253h63l-18 -253l200 14v-55l-200 14l13 -180l-13 -181l200 14v-55l-200 14l18 -253h-63l19 253l-201 -14v55l201 -14z" />
    <glyph glyph-name="periodcentered" unicode="&#xb7;" horiz-adv-x="281" 
d="M141 400c30 0 54 -24 54 -54s-24 -54 -54 -54s-54 24 -54 54s24 54 54 54z" />
    <glyph glyph-name="paragraph" unicode="&#xb6;" horiz-adv-x="650" 
d="M621 716v-68h-96v-847h-62v847h-130v-847h-64v504c-132 -6 -220 84 -220 206c0 125 92 205 234 205h338z" />
    <glyph glyph-name="bullet" unicode="&#x2022;" horiz-adv-x="500" 
d="M250 463c67 0 122 -55 122 -122s-55 -122 -122 -122s-122 55 -122 122s55 122 122 122z" />
    <glyph glyph-name="quotesinglbase" unicode="&#x201a;" horiz-adv-x="177" 
d="M121 97v-76c0 -51 -21 -106 -65 -138v35c18 27 21 48 21 82h-21v97h65z" />
    <glyph glyph-name="quotedblbase" unicode="&#x201e;" horiz-adv-x="396" 
d="M338 97v-76c0 -51 -21 -106 -65 -138v35c18 27 21 48 21 82h-21v97h65zM123 97v-76c0 -51 -21 -106 -65 -138v35c18 27 21 48 21 82h-21v97h65z" />
    <glyph glyph-name="quotedblright" unicode="&#x201d;" horiz-adv-x="396" 
d="M340 684v-76c0 -51 -21 -106 -65 -138v35c18 27 21 48 21 82h-21v97h65zM121 684v-76c0 -51 -21 -106 -65 -138v35c18 27 21 48 21 82h-21v97h65z" />
    <glyph glyph-name="guillemotright" unicode="&#xbb;" horiz-adv-x="500" 
d="M420 231l-188 224h60l189 -224l-189 -224h-60zM207 231l-188 224h60l189 -224l-189 -224h-60z" />
    <glyph glyph-name="ellipsis" unicode="&#x2026;" horiz-adv-x="1000" 
d="M865 97v-97h-65v97h65zM532 97v-97h-65v97h65zM199 97v-97h-65v97h65z" />
    <glyph glyph-name="perthousand" unicode="&#x2030;" horiz-adv-x="1052" 
d="M1036 149c0 -89 -73 -161 -161 -161c-89 0 -161 72 -161 161s72 161 161 161c88 0 161 -72 161 -161zM993 149c0 65 -53 118 -118 118s-118 -54 -118 -118c0 -66 53 -118 118 -118s118 53 118 118zM665 149c0 -89 -73 -161 -161 -161c-89 0 -161 72 -161 161
s72 161 161 161c88 0 161 -72 161 -161zM622 149c0 65 -53 118 -118 118s-118 -54 -118 -118c0 -66 53 -118 118 -118s118 53 118 118zM338 530c0 -89 -73 -161 -161 -161c-89 0 -161 72 -161 161s72 161 161 161c88 0 161 -72 161 -161zM295 530c0 65 -53 118 -118 118
s-118 -54 -118 -118c0 -66 53 -118 118 -118s118 53 118 118zM631 688l-549 -699h-50l550 699h49z" />
    <glyph glyph-name="questiondown" unicode="&#xbf;" horiz-adv-x="281" 
d="M238 -134l-23 -78c-26 -13 -44 -18 -68 -18c-75 0 -125 57 -125 142c0 143 129 208 129 307c0 19 -5 39 -19 63l18 14c27 -31 39 -61 39 -92c0 -101 -116 -177 -116 -297c0 -52 33 -94 75 -94c33 0 58 17 80 53h10zM113 364v97h65v-97h-65z" />
    <glyph glyph-name="grave" unicode="`" 
d="M77 677h81l104 -156h-33z" />
    <glyph glyph-name="acute" unicode="&#xb4;" 
d="M338 677l-152 -156h-33l104 156h81z" />
    <glyph glyph-name="circumflex" unicode="&#x2c6;" 
d="M198 676l106 -164h-38l-99 109l-100 -109h-38l108 164h61z" />
    <glyph glyph-name="tilde" unicode="&#x2dc;" 
d="M35 548h-32c0 49 24 95 82 95c30 0 60 -12 88 -24c29 -12 57 -25 82 -25c27 0 40 14 45 49h30c2 -29 -7 -53 -23 -70c-15 -17 -36 -26 -59 -26c-27 0 -58 13 -89 25c-30 12 -60 24 -82 24c-23 0 -38 -16 -42 -48z" />
    <glyph glyph-name="macron" unicode="&#xaf;" 
d="M300 623v-51h-267v51h267z" />
    <glyph glyph-name="breve" unicode="&#x2d8;" 
d="M264 647h39c-28 -75 -75 -114 -135 -114c-30 0 -61 12 -85 34c-22 19 -34 37 -53 80h41c21 -44 54 -67 96 -67c43 0 72 20 97 67z" />
    <glyph glyph-name="dotaccent" unicode="&#x2d9;" 
d="M166 636c24 0 44 -20 44 -44s-20 -44 -44 -44s-44 20 -44 44s20 44 44 44z" />
    <glyph glyph-name="dieresis" unicode="&#xa8;" 
d="M255 636c24 0 44 -20 44 -44s-20 -44 -44 -44s-44 20 -44 44s20 44 44 44zM78 636c24 0 44 -20 44 -44s-20 -44 -44 -44s-44 20 -44 44s20 44 44 44z" />
    <glyph glyph-name="ring" unicode="&#x2da;" 
d="M167 652c-33 0 -60 -26 -60 -59s27 -60 60 -60s59 27 59 60s-26 59 -59 59zM167 679c48 0 86 -38 86 -86s-38 -87 -86 -87s-87 39 -87 87s39 86 87 86z" />
    <glyph glyph-name="cedilla" unicode="&#xb8;" 
d="M198 8l-12 -43c43 -7 62 -33 62 -63c0 -64 -69 -89 -142 -72l5 32c58 -5 98 0 98 37c0 25 -20 38 -62 39l21 70h30z" />
    <glyph glyph-name="hungarumlaut" unicode="&#x2dd;" 
d="M385 677l-152 -156h-33l104 156h81zM252 677l-152 -156h-33l104 156h81z" />
    <glyph glyph-name="ogonek" unicode="&#x2db;" 
d="M232 -127v-38c-85 -21 -135 24 -135 77c0 66 55 92 73 98h32c-36 -36 -53 -51 -53 -82c0 -38 28 -61 83 -55z" />
    <glyph glyph-name="caron" unicode="&#x2c7;" 
d="M198 512h-61l-108 164h38l100 -109l99 109h38z" />
    <glyph glyph-name="emdash" unicode="&#x2014;" horiz-adv-x="1000" 
d="M-6 266h1012v-32h-1012v32z" />
    <glyph glyph-name="AE" unicode="&#xc6;" horiz-adv-x="865" 
d="M818 682v-44h-321v-272h314v-44h-314v-278h330v-44h-383v322h-200l-200 -322h-58l426 682h406zM442 645l-169 -279h171v279h-2z" />
    <glyph glyph-name="ordfeminine" unicode="&#xaa;" horiz-adv-x="281" 
d="M280 474v-36c-32 -20 -51 -29 -64 -29c-16 0 -24 8 -27 29c-30 -20 -56 -29 -84 -29c-47 0 -84 31 -84 71c0 57 61 94 168 99v31c0 34 -19 50 -58 50c-31 0 -49 -8 -94 -38v39c38 22 66 30 99 30c64 0 95 -33 95 -77v-148c0 -14 5 -20 9 -20s23 16 40 28zM189 471v79
c-79 0 -125 -28 -125 -71c0 -24 21 -40 51 -40c24 0 46 9 74 32z" />
    <glyph glyph-name="Lslash" unicode="&#x141;" horiz-adv-x="469" 
d="M132 682v-331l167 137v-50l-167 -137v-257h337v-44h-390v262l-121 -100v50l121 100v370h53z" />
    <glyph glyph-name="Oslash" unicode="&#xd8;" horiz-adv-x="823" 
d="M195 129l406 450c-48 40 -119 63 -188 63c-171 0 -305 -131 -305 -301c0 -83 32 -157 87 -212zM195 59l-63 -70l-38 29l64 71c-68 67 -107 154 -107 252c0 196 158 350 360 350c90 0 164 -29 225 -74l63 70l37 -25l-67 -74c65 -63 104 -149 104 -247
c0 -196 -159 -350 -362 -350c-86 0 -155 27 -216 68zM635 549l-405 -451c45 -33 110 -58 183 -58c171 0 303 131 303 301c0 85 -30 149 -81 208z" />
    <glyph glyph-name="OE" unicode="&#x152;" horiz-adv-x="896" 
d="M851 682v-44h-322v-274h315v-44h-315v-276h329v-44h-450c-257 0 -367 184 -367 340c0 166 118 342 365 342h445zM476 638h-59c-229 0 -319 -163 -319 -298c0 -143 100 -296 321 -296h57v594z" />
    <glyph glyph-name="ordmasculine" unicode="&#xba;" horiz-adv-x="354" 
d="M329 550c0 -85 -61 -141 -152 -141c-87 0 -152 59 -152 141s63 141 152 141c86 0 152 -63 152 -141zM284 550c0 61 -45 108 -107 108s-107 -45 -107 -108c0 -65 44 -108 107 -108s107 45 107 108z" />
    <glyph glyph-name="ae" unicode="&#xe6;" horiz-adv-x="667" 
d="M630 243h-289v-59c0 -106 66 -146 129 -146c53 0 105 19 160 59v-55c-53 -33 -110 -51 -165 -51c-57 0 -101 21 -143 70c-71 -51 -117 -70 -169 -70c-69 0 -120 49 -120 116c0 99 98 134 260 175v33c0 62 -29 99 -90 99c-47 0 -94 -17 -149 -56v50c48 33 100 50 156 50
c58 0 92 -19 122 -69c39 50 73 69 125 69c108 0 173 -92 173 -215zM341 282h236c-3 81 -59 129 -121 129c-65 0 -113 -53 -115 -129zM293 89v154c-123 -30 -214 -69 -214 -138c0 -42 36 -74 84 -74c38 0 77 18 130 58z" />
    <glyph glyph-name="dotlessi" unicode="&#x131;" horiz-adv-x="188" 
d="M118 449v-449h-48v449h48z" />
    <glyph glyph-name="lslash" unicode="&#x142;" horiz-adv-x="188" 
d="M118 682v-307l100 86v-50l-100 -84v-327h-48v291l-98 -85v50l98 83v343h48z" />
    <glyph glyph-name="oslash" unicode="&#xf8;" horiz-adv-x="542" 
d="M133 103l242 274c-30 23 -64 34 -104 34c-102 0 -178 -79 -178 -187c0 -53 16 -89 40 -121zM132 36l-57 -66l-33 30l58 66c-36 39 -58 92 -58 158c0 134 98 234 229 234c51 0 100 -16 137 -44l53 60l31 -25l-54 -62c39 -44 61 -96 61 -163c0 -133 -97 -233 -228 -233
c-60 0 -105 20 -139 45zM404 348l-239 -275c30 -20 55 -35 106 -35c101 0 177 79 177 186c0 49 -16 95 -44 124z" />
    <glyph glyph-name="oe" unicode="&#x153;" horiz-adv-x="833" 
d="M793 242h-312c-5 -143 56 -204 142 -204c58 0 108 21 160 67v-55c-50 -40 -104 -59 -166 -59c-79 0 -130 33 -163 105c-56 -73 -114 -105 -192 -105c-122 0 -221 86 -221 233c0 138 93 234 226 234c79 0 138 -30 187 -95c30 60 94 95 154 95c104 0 191 -85 185 -216z
M483 280h254c-6 85 -59 131 -128 131c-64 0 -125 -49 -126 -131zM430 233c0 110 -60 178 -162 178c-105 0 -176 -74 -176 -185c0 -109 73 -188 173 -188s165 79 165 195z" />
    <glyph glyph-name="germandbls" unicode="&#xdf;" horiz-adv-x="500" 
d="M62 0v487c0 129 67 204 185 204c106 0 182 -69 182 -165c0 -43 -21 -120 -90 -147c81 -32 120 -90 120 -181c0 -121 -75 -207 -179 -207c-21 0 -36 2 -62 9v50c28 -10 42 -12 60 -12c79 0 130 63 130 159c0 95 -50 153 -135 159v45c70 -5 105 60 105 122
c0 78 -51 128 -131 128c-109 0 -137 -76 -137 -173v-478h-48z" />
    <glyph glyph-name="logicalnot" unicode="&#xac;" horiz-adv-x="660" 
d="M68 483h524v-284h-44v240h-480v44z" />
    <glyph glyph-name="mu" unicode="&#xb5;" horiz-adv-x="556" 
d="M101 449h48v-233c0 -112 35 -181 132 -181c74 0 132 40 132 167v247h48v-449h-48v50c-38 -42 -75 -59 -133 -59c-56 0 -91 16 -131 59v-227h-48v626z" />
    <glyph glyph-name="trademark" unicode="&#x2122;" horiz-adv-x="940" 
d="M100 714h310v-41h-129v-356h-51v356h-130v41zM456 714h75l99 -317h2l103 317h76v-397h-45v356h-2l-117 -356h-34l-110 356h-2v-356h-45v397z" />
    <glyph glyph-name="Eth" unicode="&#xd0;" horiz-adv-x="740" 
d="M79 682h239c290 0 372 -191 372 -341c0 -158 -93 -341 -363 -341h-248v320h-102v44h102v318zM132 638v-274h221v-44h-221v-276h192c164 0 309 105 309 297c0 175 -127 297 -312 297h-189z" />
    <glyph glyph-name="onehalf" unicode="&#xbd;" horiz-adv-x="833" 
d="M183 687v-355h-42v355h42zM627 691l-526 -718h-39l526 718h39zM482 284v41c33 23 64 34 100 34c70 0 124 -45 124 -103c0 -45 -28 -109 -145 -225h184v-31h-271c118 99 190 196 190 257c0 41 -37 72 -85 72c-32 0 -50 -8 -97 -45z" />
    <glyph glyph-name="plusminus" unicode="&#xb1;" horiz-adv-x="660" 
d="M68 44h524v-44h-524v44zM68 373h240v240h44v-240h240v-44h-240v-240h-44v240h-240v44z" />
    <glyph glyph-name="Thorn" unicode="&#xde;" horiz-adv-x="510" 
d="M78 682h53v-159h135c160 0 223 -82 223 -180c0 -88 -51 -183 -228 -183h-130v-160h-53v682zM131 479v-275h127c127 0 174 61 174 138c0 74 -48 137 -168 137h-133z" />
    <glyph glyph-name="onequarter" unicode="&#xbc;" horiz-adv-x="833" 
d="M637 360v-198h56v-28h-56v-134h-42v134h-183v13l205 213h20zM595 162v131l-126 -131h126zM183 687v-355h-42v355h42zM627 691l-526 -718h-39l526 718h39z" />
    <glyph glyph-name="divide" unicode="&#xf7;" horiz-adv-x="660" 
d="M68 373h524v-44h-524v44zM330 478c-22 0 -39 17 -39 39s17 39 39 39s39 -17 39 -39s-17 -39 -39 -39zM330 146c-22 0 -39 17 -39 39s17 39 39 39s39 -17 39 -39s-17 -39 -39 -39z" />
    <glyph glyph-name="brokenbar" unicode="&#xa6;" horiz-adv-x="222" 
d="M86 675h48v-350h-48v350zM86 175h48v-350h-48v350z" />
    <glyph glyph-name="degree" unicode="&#xb0;" horiz-adv-x="400" 
d="M200 691c77 0 140 -62 140 -139s-63 -140 -140 -140s-139 63 -139 140s62 139 139 139zM200 651c-55 0 -99 -45 -99 -100s44 -99 99 -99s100 44 100 99s-45 100 -100 100z" />
    <glyph glyph-name="thorn" unicode="&#xfe;" horiz-adv-x="510" 
d="M111 682v-258c51 25 88 34 135 34c128 0 222 -98 222 -232c0 -132 -98 -235 -224 -235c-45 0 -82 9 -133 34v-255h-48v912h48zM111 378v-306c46 -25 79 -34 124 -34c108 0 180 74 180 184s-78 189 -186 189c-40 0 -71 -8 -118 -33z" />
    <glyph glyph-name="threequarters" unicode="&#xbe;" horiz-adv-x="833" 
d="M71 632v34c27 18 54 25 90 25c74 0 126 -38 126 -91c0 -36 -21 -65 -65 -79v-2c48 -14 70 -45 70 -89c0 -59 -54 -103 -126 -103c-35 0 -70 7 -99 19v32c33 -15 62 -21 95 -21c54 0 89 28 89 72c0 61 -59 74 -105 74v31c62 0 100 25 100 64c0 36 -36 63 -86 63
c-31 0 -55 -8 -89 -29zM679 691l-526 -718h-39l526 718h39zM689 360v-198h56v-28h-56v-134h-42v134h-183v13l205 213h20zM647 162v131l-126 -131h126z" />
    <glyph glyph-name="registered" unicode="&#xae;" horiz-adv-x="800" 
d="M250 547h162c83 0 133 -39 133 -104c0 -44 -24 -95 -107 -109c53 -32 63 -39 122 -179h-59c-70 154 -91 172 -180 172h-23v-172h-48v392zM298 366h65c91 0 125 20 125 73c0 52 -30 69 -118 69h-72v-142zM400 728c206 0 373 -167 373 -373s-167 -373 -373 -373
s-373 167 -373 373s167 373 373 373zM400 681c-180 0 -326 -146 -326 -326s146 -326 326 -326s326 146 326 326s-146 326 -326 326z" />
    <glyph glyph-name="minus" unicode="&#x2212;" horiz-adv-x="660" 
d="M68 373h524v-44h-524v44z" />
    <glyph glyph-name="eth" unicode="&#xf0;" horiz-adv-x="559" 
d="M473 227c0 113 -78 191 -193 191c-111 0 -196 -86 -196 -197c0 -109 83 -190 198 -190c116 0 191 79 191 196zM483 649l-116 -53c99 -83 157 -203 157 -346c0 -158 -97 -259 -248 -259c-135 0 -238 100 -238 230c0 135 105 237 243 237c74 0 128 -22 179 -82l2 2
c-20 64 -67 139 -141 197l-143 -67l-15 33l125 58c-27 19 -57 34 -90 47l19 36c43 -16 82 -36 118 -61l133 61z" />
    <glyph glyph-name="multiply" unicode="&#xd7;" horiz-adv-x="660" 
d="M129 521l32 32l169 -169l169 169l32 -32l-169 -169l169 -169l-32 -32l-169 169l-169 -169l-32 32l169 169z" />
    <glyph glyph-name="copyright" unicode="&#xa9;" horiz-adv-x="800" 
d="M562 449l-47 -12c-24 55 -60 81 -111 81c-77 0 -138 -58 -138 -154c0 -106 52 -178 133 -178c68 0 103 42 123 100l44 -16c-19 -72 -80 -128 -164 -128c-109 0 -187 92 -187 214c0 110 71 203 190 203c70 0 119 -34 157 -110zM400 728c206 0 373 -167 373 -373
s-167 -373 -373 -373s-373 167 -373 373s167 373 373 373zM400 681c-180 0 -326 -146 -326 -326s146 -326 326 -326s326 146 326 326s-146 326 -326 326z" />
    <glyph glyph-name="Aacute" unicode="&#xc1;" horiz-adv-x="667" 
d="M348 687l315 -687h-55l-108 236h-333l-108 -236h-55l315 687h29zM480 280l-147 321l-146 -321h293zM505 895l-152 -156h-33l104 156h81z" />
    <glyph glyph-name="Acircumflex" unicode="&#xc2;" horiz-adv-x="667" 
d="M348 687l315 -687h-55l-108 236h-333l-108 -236h-55l315 687h29zM480 280l-147 321l-146 -321h293zM365 894l106 -164h-38l-99 109l-100 -109h-38l108 164h61z" />
    <glyph glyph-name="Adieresis" unicode="&#xc4;" horiz-adv-x="667" 
d="M348 687l315 -687h-55l-108 236h-333l-108 -236h-55l315 687h29zM480 280l-147 321l-146 -321h293zM422 854c24 0 44 -20 44 -44s-20 -44 -44 -44s-44 20 -44 44s20 44 44 44zM245 854c24 0 44 -20 44 -44s-20 -44 -44 -44s-44 20 -44 44s20 44 44 44z" />
    <glyph glyph-name="Agrave" unicode="&#xc0;" horiz-adv-x="667" 
d="M348 687l315 -687h-55l-108 236h-333l-108 -236h-55l315 687h29zM480 280l-147 321l-146 -321h293zM244 895h81l104 -156h-33z" />
    <glyph glyph-name="Aring" unicode="&#xc5;" horiz-adv-x="667" 
d="M348 687l315 -687h-55l-108 236h-333l-108 -236h-55l315 687h29zM480 280l-147 321l-146 -321h293zM334 870c-33 0 -60 -26 -60 -59s27 -60 60 -60s59 27 59 60s-26 59 -59 59zM334 897c48 0 86 -38 86 -86s-38 -87 -86 -87s-87 39 -87 87s39 86 87 86z" />
    <glyph glyph-name="Atilde" unicode="&#xc3;" horiz-adv-x="667" 
d="M348 687l315 -687h-55l-108 236h-333l-108 -236h-55l315 687h29zM480 280l-147 321l-146 -321h293zM202 766h-32c0 49 24 95 82 95c30 0 60 -12 88 -24c29 -12 57 -25 82 -25c27 0 40 14 45 49h30c2 -29 -7 -53 -23 -70c-15 -17 -36 -26 -59 -26c-27 0 -58 13 -89 25
c-30 12 -60 24 -82 24c-23 0 -38 -16 -42 -48z" />
    <glyph glyph-name="Ccedilla" unicode="&#xc7;" horiz-adv-x="677" 
d="M654 110v-55c-79 -42 -163 -64 -242 -64c-8 0 -16 0 -23 2l-8 -28c43 -7 62 -33 62 -63c0 -64 -69 -89 -142 -72l5 32c58 -5 98 0 98 37c0 25 -20 38 -62 39l17 57c-181 23 -310 163 -310 345c0 209 171 351 358 351c76 0 157 -19 240 -57v-58c-85 45 -162 66 -243 66
c-170 0 -298 -129 -298 -302c0 -176 127 -300 305 -300c77 0 150 21 243 70z" />
    <glyph glyph-name="Eacute" unicode="&#xc9;" horiz-adv-x="490" 
d="M452 682v-44h-319v-273h311v-44h-311v-277h327v-44h-380v682h372zM417 895l-152 -156h-33l104 156h81z" />
    <glyph glyph-name="Ecircumflex" unicode="&#xca;" horiz-adv-x="490" 
d="M452 682v-44h-319v-273h311v-44h-311v-277h327v-44h-380v682h372zM277 894l106 -164h-38l-99 109l-100 -109h-38l108 164h61z" />
    <glyph glyph-name="Edieresis" unicode="&#xcb;" horiz-adv-x="490" 
d="M452 682v-44h-319v-273h311v-44h-311v-277h327v-44h-380v682h372zM334 854c24 0 44 -20 44 -44s-20 -44 -44 -44s-44 20 -44 44s20 44 44 44zM157 854c24 0 44 -20 44 -44s-20 -44 -44 -44s-44 20 -44 44s20 44 44 44z" />
    <glyph glyph-name="Egrave" unicode="&#xc8;" horiz-adv-x="490" 
d="M452 682v-44h-319v-273h311v-44h-311v-277h327v-44h-380v682h372zM156 895h81l104 -156h-33z" />
    <glyph glyph-name="Iacute" unicode="&#xcd;" horiz-adv-x="208" 
d="M131 682v-682h-53v682h53zM276 895l-152 -156h-33l104 156h81z" />
    <glyph glyph-name="Icircumflex" unicode="&#xce;" horiz-adv-x="208" 
d="M131 682v-682h-53v682h53zM136 894l106 -164h-38l-99 109l-100 -109h-38l108 164h61z" />
    <glyph glyph-name="Idieresis" unicode="&#xcf;" horiz-adv-x="208" 
d="M131 682v-682h-53v682h53zM193 854c24 0 44 -20 44 -44s-20 -44 -44 -44s-44 20 -44 44s20 44 44 44zM16 854c24 0 44 -20 44 -44s-20 -44 -44 -44s-44 20 -44 44s20 44 44 44z" />
    <glyph glyph-name="Igrave" unicode="&#xcc;" horiz-adv-x="208" 
d="M131 682v-682h-53v682h53zM-26 895h81l104 -156h-33z" />
    <glyph glyph-name="Ntilde" unicode="&#xd1;" horiz-adv-x="771" 
d="M693 682v-682h-44l-518 596v-596h-53v682h45l517 -596v596h53zM254 766h-32c0 49 24 95 82 95c30 0 60 -12 88 -24c29 -12 57 -25 82 -25c27 0 40 14 45 49h30c2 -29 -7 -53 -23 -70c-15 -17 -36 -26 -59 -26c-27 0 -58 13 -89 25c-30 12 -60 24 -82 24
c-23 0 -38 -16 -42 -48z" />
    <glyph glyph-name="Oacute" unicode="&#xd3;" horiz-adv-x="823" 
d="M773 341c0 -196 -159 -350 -362 -350c-202 0 -360 154 -360 350s158 350 360 350c203 0 362 -154 362 -350zM716 341c0 170 -132 301 -303 301s-305 -131 -305 -301s134 -301 305 -301s303 131 303 301zM583 895l-152 -156h-33l104 156h81z" />
    <glyph glyph-name="Ocircumflex" unicode="&#xd4;" horiz-adv-x="823" 
d="M773 341c0 -196 -159 -350 -362 -350c-202 0 -360 154 -360 350s158 350 360 350c203 0 362 -154 362 -350zM716 341c0 170 -132 301 -303 301s-305 -131 -305 -301s134 -301 305 -301s303 131 303 301zM443 894l106 -164h-38l-99 109l-100 -109h-38l108 164h61z" />
    <glyph glyph-name="Odieresis" unicode="&#xd6;" horiz-adv-x="823" 
d="M773 341c0 -196 -159 -350 -362 -350c-202 0 -360 154 -360 350s158 350 360 350c203 0 362 -154 362 -350zM716 341c0 170 -132 301 -303 301s-305 -131 -305 -301s134 -301 305 -301s303 131 303 301zM500 854c24 0 44 -20 44 -44s-20 -44 -44 -44s-44 20 -44 44
s20 44 44 44zM323 854c24 0 44 -20 44 -44s-20 -44 -44 -44s-44 20 -44 44s20 44 44 44z" />
    <glyph glyph-name="Ograve" unicode="&#xd2;" horiz-adv-x="823" 
d="M773 341c0 -196 -159 -350 -362 -350c-202 0 -360 154 -360 350s158 350 360 350c203 0 362 -154 362 -350zM716 341c0 170 -132 301 -303 301s-305 -131 -305 -301s134 -301 305 -301s303 131 303 301zM322 895h81l104 -156h-33z" />
    <glyph glyph-name="Otilde" unicode="&#xd5;" horiz-adv-x="823" 
d="M773 341c0 -196 -159 -350 -362 -350c-202 0 -360 154 -360 350s158 350 360 350c203 0 362 -154 362 -350zM716 341c0 170 -132 301 -303 301s-305 -131 -305 -301s134 -301 305 -301s303 131 303 301zM280 766h-32c0 49 24 95 82 95c30 0 60 -12 88 -24
c29 -12 57 -25 82 -25c27 0 40 14 45 49h30c2 -29 -7 -53 -23 -70c-15 -17 -36 -26 -59 -26c-27 0 -58 13 -89 25c-30 12 -60 24 -82 24c-23 0 -38 -16 -42 -48z" />
    <glyph glyph-name="Scaron" unicode="&#x160;" horiz-adv-x="469" 
d="M400 648v-58c-70 40 -106 52 -153 52c-82 0 -144 -56 -144 -130c0 -182 325 -95 325 -334c0 -105 -87 -187 -198 -187c-56 0 -115 20 -175 60v62c76 -55 119 -73 172 -73c81 0 144 59 144 136c0 194 -325 109 -325 334c0 101 88 181 196 181c53 0 105 -14 158 -43z
M266 730h-61l-108 164h38l100 -109l99 109h38z" />
    <glyph glyph-name="Uacute" unicode="&#xda;" horiz-adv-x="698" 
d="M582 682h53v-372c0 -234 -147 -319 -286 -319c-154 0 -285 102 -285 307v384h53v-382c0 -179 110 -260 232 -260c116 0 233 73 233 267v375zM521 895l-152 -156h-33l104 156h81z" />
    <glyph glyph-name="Ucircumflex" unicode="&#xdb;" horiz-adv-x="698" 
d="M582 682h53v-372c0 -234 -147 -319 -286 -319c-154 0 -285 102 -285 307v384h53v-382c0 -179 110 -260 232 -260c116 0 233 73 233 267v375zM381 894l106 -164h-38l-99 109l-100 -109h-38l108 164h61z" />
    <glyph glyph-name="Udieresis" unicode="&#xdc;" horiz-adv-x="698" 
d="M582 682h53v-372c0 -234 -147 -319 -286 -319c-154 0 -285 102 -285 307v384h53v-382c0 -179 110 -260 232 -260c116 0 233 73 233 267v375zM438 854c24 0 44 -20 44 -44s-20 -44 -44 -44s-44 20 -44 44s20 44 44 44zM261 854c24 0 44 -20 44 -44s-20 -44 -44 -44
s-44 20 -44 44s20 44 44 44z" />
    <glyph glyph-name="Ugrave" unicode="&#xd9;" horiz-adv-x="698" 
d="M582 682h53v-372c0 -234 -147 -319 -286 -319c-154 0 -285 102 -285 307v384h53v-382c0 -179 110 -260 232 -260c116 0 233 73 233 267v375zM260 895h81l104 -156h-33z" />
    <glyph glyph-name="Yacute" unicode="&#xdd;" horiz-adv-x="583" 
d="M583 682l-265 -316v-366h-53v366l-265 316h64l228 -270l227 270h64zM463 895l-152 -156h-33l104 156h81z" />
    <glyph glyph-name="Ydieresis" unicode="&#x178;" horiz-adv-x="583" 
d="M583 682l-265 -316v-366h-53v366l-265 316h64l228 -270l227 270h64zM380 854c24 0 44 -20 44 -44s-20 -44 -44 -44s-44 20 -44 44s20 44 44 44zM203 854c24 0 44 -20 44 -44s-20 -44 -44 -44s-44 20 -44 44s20 44 44 44z" />
    <glyph glyph-name="Zcaron" unicode="&#x17d;" horiz-adv-x="635" 
d="M602 682l5 -19l-511 -619h515v-44h-597l-5 15l511 623h-488v44h570zM349 730h-61l-108 164h38l100 -109l99 109h38z" />
    <glyph glyph-name="aacute" unicode="&#xe1;" horiz-adv-x="427" 
d="M421 78v-40l-8 -6c-45 -34 -64 -41 -83 -41c-22 0 -28 11 -32 56c-50 -39 -93 -56 -141 -56c-68 0 -121 51 -121 114c0 117 131 158 262 164v57c0 60 -33 92 -100 92c-48 0 -84 -17 -137 -57v49c55 34 96 48 145 48c56 0 140 -23 140 -117v-280c0 -18 3 -23 11 -23
c11 0 40 21 64 40zM298 89v140c-117 5 -214 -46 -214 -124c0 -42 38 -74 89 -74c43 0 78 16 125 58zM385 677l-152 -156h-33l104 156h81z" />
    <glyph glyph-name="acircumflex" unicode="&#xe2;" horiz-adv-x="427" 
d="M421 78v-40l-8 -6c-45 -34 -64 -41 -83 -41c-22 0 -28 11 -32 56c-50 -39 -93 -56 -141 -56c-68 0 -121 51 -121 114c0 117 131 158 262 164v57c0 60 -33 92 -100 92c-48 0 -84 -17 -137 -57v49c55 34 96 48 145 48c56 0 140 -23 140 -117v-280c0 -18 3 -23 11 -23
c11 0 40 21 64 40zM298 89v140c-117 5 -214 -46 -214 -124c0 -42 38 -74 89 -74c43 0 78 16 125 58zM245 676l106 -164h-38l-99 109l-100 -109h-38l108 164h61z" />
    <glyph glyph-name="adieresis" unicode="&#xe4;" horiz-adv-x="427" 
d="M421 78v-40l-8 -6c-45 -34 -64 -41 -83 -41c-22 0 -28 11 -32 56c-50 -39 -93 -56 -141 -56c-68 0 -121 51 -121 114c0 117 131 158 262 164v57c0 60 -33 92 -100 92c-48 0 -84 -17 -137 -57v49c55 34 96 48 145 48c56 0 140 -23 140 -117v-280c0 -18 3 -23 11 -23
c11 0 40 21 64 40zM298 89v140c-117 5 -214 -46 -214 -124c0 -42 38 -74 89 -74c43 0 78 16 125 58zM302 636c24 0 44 -20 44 -44s-20 -44 -44 -44s-44 20 -44 44s20 44 44 44zM125 636c24 0 44 -20 44 -44s-20 -44 -44 -44s-44 20 -44 44s20 44 44 44z" />
    <glyph glyph-name="agrave" unicode="&#xe0;" horiz-adv-x="427" 
d="M421 78v-40l-8 -6c-45 -34 -64 -41 -83 -41c-22 0 -28 11 -32 56c-50 -39 -93 -56 -141 -56c-68 0 -121 51 -121 114c0 117 131 158 262 164v57c0 60 -33 92 -100 92c-48 0 -84 -17 -137 -57v49c55 34 96 48 145 48c56 0 140 -23 140 -117v-280c0 -18 3 -23 11 -23
c11 0 40 21 64 40zM298 89v140c-117 5 -214 -46 -214 -124c0 -42 38 -74 89 -74c43 0 78 16 125 58zM124 677h81l104 -156h-33z" />
    <glyph glyph-name="aring" unicode="&#xe5;" horiz-adv-x="427" 
d="M421 78v-40l-8 -6c-45 -34 -64 -41 -83 -41c-22 0 -28 11 -32 56c-50 -39 -93 -56 -141 -56c-68 0 -121 51 -121 114c0 117 131 158 262 164v57c0 60 -33 92 -100 92c-48 0 -84 -17 -137 -57v49c55 34 96 48 145 48c56 0 140 -23 140 -117v-280c0 -18 3 -23 11 -23
c11 0 40 21 64 40zM298 89v140c-117 5 -214 -46 -214 -124c0 -42 38 -74 89 -74c43 0 78 16 125 58zM214 652c-33 0 -60 -26 -60 -59s27 -60 60 -60s59 27 59 60s-26 59 -59 59zM214 679c48 0 86 -38 86 -86s-38 -87 -86 -87s-87 39 -87 87s39 86 87 86z" />
    <glyph glyph-name="atilde" unicode="&#xe3;" horiz-adv-x="427" 
d="M421 78v-40l-8 -6c-45 -34 -64 -41 -83 -41c-22 0 -28 11 -32 56c-50 -39 -93 -56 -141 -56c-68 0 -121 51 -121 114c0 117 131 158 262 164v57c0 60 -33 92 -100 92c-48 0 -84 -17 -137 -57v49c55 34 96 48 145 48c56 0 140 -23 140 -117v-280c0 -18 3 -23 11 -23
c11 0 40 21 64 40zM298 89v140c-117 5 -214 -46 -214 -124c0 -42 38 -74 89 -74c43 0 78 16 125 58zM82 548h-32c0 49 24 95 82 95c30 0 60 -12 88 -24c29 -12 57 -25 82 -25c27 0 40 14 45 49h30c2 -29 -7 -53 -23 -70c-15 -17 -36 -26 -59 -26c-27 0 -58 13 -89 25
c-30 12 -60 24 -82 24c-23 0 -38 -16 -42 -48z" />
    <glyph glyph-name="ccedilla" unicode="&#xe7;" horiz-adv-x="417" 
d="M387 64v-50c-51 -17 -83 -23 -125 -23c-6 0 -12 0 -18 2l-8 -28c43 -7 62 -33 62 -63c0 -64 -69 -89 -142 -72l5 32c58 -5 98 0 98 37c0 25 -20 38 -62 39l17 57c-105 19 -172 104 -172 223c0 141 90 240 218 240c39 0 69 -6 119 -22v-53c-52 22 -79 28 -117 28
c-100 0 -169 -76 -169 -188c0 -113 67 -185 173 -185c41 0 71 6 121 26z" />
    <glyph glyph-name="eacute" unicode="&#xe9;" horiz-adv-x="479" 
d="M445 241h-354c-14 -115 77 -203 179 -203c60 0 109 20 167 67v-54c-53 -41 -108 -60 -173 -60c-130 0 -224 100 -224 239c0 132 87 228 206 228c96 0 199 -67 199 -217zM97 280h291c-17 88 -65 131 -142 131c-74 0 -132 -49 -149 -131zM411 677l-152 -156h-33l104 156h81
z" />
    <glyph glyph-name="ecircumflex" unicode="&#xea;" horiz-adv-x="479" 
d="M445 241h-354c-14 -115 77 -203 179 -203c60 0 109 20 167 67v-54c-53 -41 -108 -60 -173 -60c-130 0 -224 100 -224 239c0 132 87 228 206 228c96 0 199 -67 199 -217zM97 280h291c-17 88 -65 131 -142 131c-74 0 -132 -49 -149 -131zM271 676l106 -164h-38l-99 109
l-100 -109h-38l108 164h61z" />
    <glyph glyph-name="edieresis" unicode="&#xeb;" horiz-adv-x="479" 
d="M445 241h-354c-14 -115 77 -203 179 -203c60 0 109 20 167 67v-54c-53 -41 -108 -60 -173 -60c-130 0 -224 100 -224 239c0 132 87 228 206 228c96 0 199 -67 199 -217zM97 280h291c-17 88 -65 131 -142 131c-74 0 -132 -49 -149 -131zM328 636c24 0 44 -20 44 -44
s-20 -44 -44 -44s-44 20 -44 44s20 44 44 44zM151 636c24 0 44 -20 44 -44s-20 -44 -44 -44s-44 20 -44 44s20 44 44 44z" />
    <glyph glyph-name="egrave" unicode="&#xe8;" horiz-adv-x="479" 
d="M445 241h-354c-14 -115 77 -203 179 -203c60 0 109 20 167 67v-54c-53 -41 -108 -60 -173 -60c-130 0 -224 100 -224 239c0 132 87 228 206 228c96 0 199 -67 199 -217zM97 280h291c-17 88 -65 131 -142 131c-74 0 -132 -49 -149 -131zM150 677h81l104 -156h-33z" />
    <glyph glyph-name="iacute" unicode="&#xed;" horiz-adv-x="188" 
d="M118 449v-449h-48v449h48zM266 677l-152 -156h-33l104 156h81z" />
    <glyph glyph-name="icircumflex" unicode="&#xee;" horiz-adv-x="188" 
d="M118 449v-449h-48v449h48zM126 676l106 -164h-38l-99 109l-100 -109h-38l108 164h61z" />
    <glyph glyph-name="idieresis" unicode="&#xef;" horiz-adv-x="188" 
d="M118 449v-449h-48v449h48zM183 636c24 0 44 -20 44 -44s-20 -44 -44 -44s-44 20 -44 44s20 44 44 44zM6 636c24 0 44 -20 44 -44s-20 -44 -44 -44s-44 20 -44 44s20 44 44 44z" />
    <glyph glyph-name="igrave" unicode="&#xec;" horiz-adv-x="188" 
d="M118 449v-449h-48v449h48zM-36 677h81l104 -156h-33z" />
    <glyph glyph-name="ntilde" unicode="&#xf1;" horiz-adv-x="490" 
d="M110 449v-78h2c42 63 83 87 148 87c96 0 167 -63 167 -184v-274h-48v256c0 101 -43 155 -122 155c-65 0 -107 -31 -147 -96v-315h-48v449h48zM114 548h-32c0 49 24 95 82 95c30 0 60 -12 88 -24c29 -12 57 -25 82 -25c27 0 40 14 45 49h30c2 -29 -7 -53 -23 -70
c-15 -17 -36 -26 -59 -26c-27 0 -58 13 -89 25c-30 12 -60 24 -82 24c-23 0 -38 -16 -42 -48z" />
    <glyph glyph-name="oacute" unicode="&#xf3;" horiz-adv-x="542" 
d="M499 224c0 -133 -97 -233 -228 -233s-229 100 -229 233c0 134 98 234 229 234s228 -100 228 -234zM448 224c0 107 -76 187 -177 187c-102 0 -178 -79 -178 -187c0 -107 76 -186 178 -186c101 0 177 79 177 186zM443 677l-152 -156h-33l104 156h81z" />
    <glyph glyph-name="ocircumflex" unicode="&#xf4;" horiz-adv-x="542" 
d="M499 224c0 -133 -97 -233 -228 -233s-229 100 -229 233c0 134 98 234 229 234s228 -100 228 -234zM448 224c0 107 -76 187 -177 187c-102 0 -178 -79 -178 -187c0 -107 76 -186 178 -186c101 0 177 79 177 186zM303 676l106 -164h-38l-99 109l-100 -109h-38l108 164h61z
" />
    <glyph glyph-name="odieresis" unicode="&#xf6;" horiz-adv-x="542" 
d="M499 224c0 -133 -97 -233 -228 -233s-229 100 -229 233c0 134 98 234 229 234s228 -100 228 -234zM448 224c0 107 -76 187 -177 187c-102 0 -178 -79 -178 -187c0 -107 76 -186 178 -186c101 0 177 79 177 186zM360 636c24 0 44 -20 44 -44s-20 -44 -44 -44
s-44 20 -44 44s20 44 44 44zM183 636c24 0 44 -20 44 -44s-20 -44 -44 -44s-44 20 -44 44s20 44 44 44z" />
    <glyph glyph-name="ograve" unicode="&#xf2;" horiz-adv-x="542" 
d="M499 224c0 -133 -97 -233 -228 -233s-229 100 -229 233c0 134 98 234 229 234s228 -100 228 -234zM448 224c0 107 -76 187 -177 187c-102 0 -178 -79 -178 -187c0 -107 76 -186 178 -186c101 0 177 79 177 186zM182 677h81l104 -156h-33z" />
    <glyph glyph-name="otilde" unicode="&#xf5;" horiz-adv-x="542" 
d="M499 224c0 -133 -97 -233 -228 -233s-229 100 -229 233c0 134 98 234 229 234s228 -100 228 -234zM448 224c0 107 -76 187 -177 187c-102 0 -178 -79 -178 -187c0 -107 76 -186 178 -186c101 0 177 79 177 186zM140 548h-32c0 49 24 95 82 95c30 0 60 -12 88 -24
c29 -12 57 -25 82 -25c27 0 40 14 45 49h30c2 -29 -7 -53 -23 -70c-15 -17 -36 -26 -59 -26c-27 0 -58 13 -89 25c-30 12 -60 24 -82 24c-23 0 -38 -16 -42 -48z" />
    <glyph glyph-name="scaron" unicode="&#x161;" horiz-adv-x="354" 
d="M309 420v-52c-50 33 -83 46 -123 46c-54 0 -96 -33 -96 -76c0 -108 233 -67 233 -223c0 -70 -64 -124 -147 -124c-46 0 -89 13 -135 41v47c59 -30 98 -41 141 -41c55 0 95 32 95 78c0 107 -233 75 -233 219c0 69 64 123 145 123c39 0 75 -12 120 -38zM209 512h-61
l-108 164h38l100 -109l99 109h38z" />
    <glyph glyph-name="uacute" unicode="&#xfa;" horiz-adv-x="490" 
d="M379 0v74h-2c-41 -58 -78 -83 -148 -83c-77 0 -167 46 -167 180v278h48v-277c0 -91 57 -134 123 -134c71 0 107 35 146 96v315h48v-449h-48zM417 677l-152 -156h-33l104 156h81z" />
    <glyph glyph-name="ucircumflex" unicode="&#xfb;" horiz-adv-x="490" 
d="M379 0v74h-2c-41 -58 -78 -83 -148 -83c-77 0 -167 46 -167 180v278h48v-277c0 -91 57 -134 123 -134c71 0 107 35 146 96v315h48v-449h-48zM277 676l106 -164h-38l-99 109l-100 -109h-38l108 164h61z" />
    <glyph glyph-name="udieresis" unicode="&#xfc;" horiz-adv-x="490" 
d="M379 0v74h-2c-41 -58 -78 -83 -148 -83c-77 0 -167 46 -167 180v278h48v-277c0 -91 57 -134 123 -134c71 0 107 35 146 96v315h48v-449h-48zM334 636c24 0 44 -20 44 -44s-20 -44 -44 -44s-44 20 -44 44s20 44 44 44zM157 636c24 0 44 -20 44 -44s-20 -44 -44 -44
s-44 20 -44 44s20 44 44 44z" />
    <glyph glyph-name="ugrave" unicode="&#xf9;" horiz-adv-x="490" 
d="M379 0v74h-2c-41 -58 -78 -83 -148 -83c-77 0 -167 46 -167 180v278h48v-277c0 -91 57 -134 123 -134c71 0 107 35 146 96v315h48v-449h-48zM156 677h81l104 -156h-33z" />
    <glyph glyph-name="yacute" unicode="&#xfd;" horiz-adv-x="417" 
d="M423 449l-336 -679h-49l157 317l-189 362h50l163 -314l155 314h49zM380 677l-152 -156h-33l104 156h81z" />
    <glyph glyph-name="ydieresis" unicode="&#xff;" horiz-adv-x="417" 
d="M423 449l-336 -679h-49l157 317l-189 362h50l163 -314l155 314h49zM297 636c24 0 44 -20 44 -44s-20 -44 -44 -44s-44 20 -44 44s20 44 44 44zM120 636c24 0 44 -20 44 -44s-20 -44 -44 -44s-44 20 -44 44s20 44 44 44z" />
    <glyph glyph-name="zcaron" unicode="&#x17e;" horiz-adv-x="396" 
d="M381 449l4 -15l-295 -390h295v-44h-370l-5 15l297 390h-278v44h352zM230 512h-61l-108 164h38l100 -109l99 109h38z" />
    <glyph glyph-name="one.superior" unicode="&#xb9;" horiz-adv-x="313" 
d="M177 687v-355h-42v355h42z" />
    <glyph glyph-name="two.superior" unicode="&#xb2;" horiz-adv-x="313" 
d="M38 616v41c33 23 64 34 100 34c70 0 124 -45 124 -103c0 -45 -28 -109 -145 -225h184v-31h-271c118 99 190 196 190 257c0 41 -37 72 -85 72c-32 0 -50 -8 -97 -45z" />
    <glyph glyph-name="three.superior" unicode="&#xb3;" horiz-adv-x="313" 
d="M48 632v34c27 18 54 25 90 25c74 0 126 -38 126 -91c0 -36 -21 -65 -65 -79v-2c48 -14 70 -45 70 -89c0 -59 -54 -103 -126 -103c-35 0 -70 7 -99 19v32c33 -15 62 -21 95 -21c54 0 89 28 89 72c0 61 -59 74 -105 74v31c62 0 100 25 100 64c0 36 -36 63 -86 63
c-31 0 -55 -8 -89 -29z" />
    <glyph glyph-name="Delta" unicode="&#x2206;" horiz-adv-x="581" 
d="M31 0v38l234 656h53l233 -656v-38h-520zM78 40h421l-145 410c-17 53 -51 133 -63 179h-4c-9 -39 -39 -113 -56 -165z" />
    <glyph glyph-name="Omega" unicode="&#x2126;" horiz-adv-x="652" 
d="M190 41v3c-69 65 -128 175 -128 315c0 201 119 326 267 326c155 0 261 -142 261 -323c0 -147 -65 -261 -129 -318v-3h141v-41h-207v31c75 55 147 172 147 323c-1 129 -71 289 -214 289c-133 0 -218 -129 -218 -290c0 -142 73 -270 146 -322v-31h-207v41h141z" />
    <glyph glyph-name="uni03BC" unicode="&#x3bc;" horiz-adv-x="556" 
d="M101 449h48v-233c0 -112 35 -181 132 -181c74 0 132 40 132 167v247h48v-449h-48v50c-38 -42 -75 -59 -133 -59c-56 0 -91 16 -131 59v-227h-48v626z" />
    <glyph glyph-name="pi" unicode="&#x3c0;" horiz-adv-x="504" 
d="M478 457h-77v-318c0 -82 7 -116 14 -139h-46c-8 13 -15 51 -15 133v324h-180c-6 -135 -35 -368 -70 -457h-47c36 101 64 316 69 457c-62 0 -87 -5 -105 -12l-9 32c21 13 55 23 121 23h350z" />
    <glyph glyph-name="Euro" unicode="&#x20ac;" horiz-adv-x="559" 
d="M462 260h-315c8 -46 15 -72 30 -103c32 -69 101 -115 174 -115c58 0 104 18 178 67v-55c-65 -44 -118 -63 -177 -63c-139 0 -238 102 -262 269h-74l9 48h61c-1 10 -1 17 -1 36c0 12 0 20 1 28h-70l9 48h65c24 167 126 271 266 271c60 0 109 -14 179 -50l-10 -51
c-70 38 -113 51 -169 51c-106 0 -187 -85 -209 -221h344l-9 -48h-340c-1 -9 -1 -15 -1 -28c0 -12 0 -23 1 -36h329z" />
    <glyph glyph-name="afii61289" unicode="&#x2113;" horiz-adv-x="430" 
d="M380 127l27 -20c-36 -69 -89 -111 -161 -111c-103 0 -143 87 -144 190v14c-17 -15 -36 -31 -54 -47l-18 30c25 23 50 44 72 67v272c0 177 69 224 129 224c71 0 106 -63 106 -147c0 -125 -77 -244 -190 -361v-30c0 -127 51 -173 107 -173c60 0 104 50 126 92zM147 529
v-238c85 97 154 197 154 305c0 67 -20 111 -72 111c-37 0 -82 -46 -82 -178z" />
    <glyph glyph-name="estimated" unicode="&#x212e;" horiz-adv-x="844" 
d="M810 331h-629c-3 0 -5 -1 -5 -4v-190c0 -9 3 -16 8 -22c61 -63 145 -104 238 -104c100 0 189 46 251 116h55c-69 -82 -182 -135 -307 -135c-214 0 -388 156 -388 349s174 349 388 349c215 0 389 -156 389 -349v-10zM667 356v192c0 8 -3 16 -9 22
c-61 60 -144 100 -236 100s-176 -41 -237 -103c-6 -6 -9 -14 -9 -24v-187c0 -2 2 -6 5 -6h482c3 0 4 4 4 6z" />
    <glyph glyph-name="partialdiff" unicode="&#x2202;" horiz-adv-x="485" 
d="M92 670l-20 36c31 25 76 51 144 51c111 0 221 -109 221 -362c0 -230 -76 -400 -228 -400c-113 0 -168 103 -168 219c0 150 93 245 193 245c86 0 139 -62 155 -94h1c1 13 1 32 1 45c0 189 -85 306 -178 306c-56 0 -95 -23 -121 -46zM212 36h1c94 0 157 123 170 271
c-16 47 -68 112 -144 112c-81 0 -150 -90 -150 -202c0 -108 48 -181 123 -181z" />
    <glyph glyph-name="product" unicode="&#x220f;" horiz-adv-x="623" 
d="M598 630h-101v-723h-47v723h-278v-723h-47v723h-100v44h573v-44z" />
    <glyph glyph-name="summation" unicode="&#x2211;" horiz-adv-x="500" 
d="M478 -93h-457v34l255 348l-243 351v34h430v-42h-362v-4l231 -333l-248 -338v-3h394v-47z" />
    <glyph glyph-name="uni2219" unicode="&#x2219;" horiz-adv-x="281" 
d="M141 400c30 0 54 -24 54 -54s-24 -54 -54 -54s-54 24 -54 54s24 54 54 54z" />
    <glyph glyph-name="radical" unicode="&#x221a;" horiz-adv-x="515" 
d="M509 799l-200 -948h-46l-152 460l-68 -25l-11 33l111 42l126 -377c5 -22 12 -50 15 -67l1 -1c2 17 7 43 11 64l175 819h38z" />
    <glyph glyph-name="infinity" unicode="&#x221e;" horiz-adv-x="716" 
d="M668 282v-1c0 -86 -66 -141 -138 -141c-60 0 -105 40 -171 111c-49 -54 -101 -111 -177 -111c-74 0 -135 61 -135 138c0 80 60 141 141 141c71 0 125 -57 174 -113c52 57 99 113 175 113c80 0 131 -57 131 -137zM188 174h1c62 0 110 62 150 103c-43 50 -89 109 -158 109
c-61 0 -96 -53 -95 -109c0 -57 40 -103 102 -103zM533 386h-1c-64 0 -117 -73 -151 -106c64 -67 101 -106 153 -106c61 0 97 52 97 104c0 70 -43 108 -98 108z" />
    <glyph glyph-name="integral" unicode="&#x222b;" horiz-adv-x="314" 
d="M300 806l-11 -34c-8 5 -22 10 -34 10c-15 0 -34 -7 -46 -23c-25 -30 -34 -79 -34 -177c0 -148 12 -346 12 -496c0 -109 -21 -164 -43 -196c-18 -26 -47 -40 -79 -40c-21 0 -45 9 -54 15l11 36c7 -3 23 -11 41 -11c16 0 33 9 44 24c19 25 34 70 34 173
c0 151 -12 352 -12 500c0 102 12 161 47 198c21 23 49 35 77 35c17 0 38 -7 47 -14z" />
    <glyph glyph-name="approxequal" unicode="&#x2248;" horiz-adv-x="518" 
d="M450 402l23 -19c-23 -46 -57 -86 -115 -86c-38 0 -64 16 -109 40c-29 17 -57 32 -88 32c-43 0 -70 -32 -93 -71l-24 18c27 55 71 87 123 87c45 0 80 -27 105 -40c32 -17 54 -32 89 -32c38 0 63 24 89 71zM450 251l23 -19c-23 -46 -57 -85 -115 -85c-38 0 -63 15 -109 40
c-29 16 -57 32 -88 32c-44 0 -70 -34 -93 -71l-24 18c27 55 71 87 123 87c45 0 79 -26 105 -39c31 -18 55 -33 90 -33c38 0 62 24 88 70z" />
    <glyph glyph-name="notequal" unicode="&#x2260;" horiz-adv-x="518" 
d="M362 473l-43 -94h150v-36h-165l-64 -138h229v-35h-244l-51 -110l-28 14l44 96h-142v35h158l63 138h-221v36h236l50 108z" />
    <glyph glyph-name="lessequal" unicode="&#x2264;" horiz-adv-x="518" 
d="M467 98l-414 211v36l414 211v-44l-373 -183v-2l373 -186v-43zM469 21h-421v37h421v-37z" />
    <glyph glyph-name="greaterequal" unicode="&#x2265;" horiz-adv-x="518" 
d="M54 556l413 -211v-36l-413 -211v43l372 184v2l-372 185v44zM469 21h-421v37h421v-37z" />
    <glyph glyph-name="lozenge" unicode="&#x25ca;" horiz-adv-x="516" 
d="M463 337l-186 -376h-40l-185 376l186 376h40zM417 336l-142 285c-7 15 -14 36 -18 48h-1c-5 -14 -10 -30 -18 -48l-141 -283l143 -287c9 -19 14 -36 16 -47h3c3 12 10 33 17 47z" />
    <glyph glyph-name="uni00A0" unicode="&#xa0;" horiz-adv-x="278" 
 />
    <glyph glyph-name="uni00AD" unicode="&#xad;" horiz-adv-x="313" 
d="M275 249v-47h-237v47h237z" />
    <glyph glyph-name="uni02C9" unicode="&#x2c9;" 
d="M300 623v-51h-267v51h267z" />
    <glyph glyph-name="uni2215" unicode="&#x2215;" horiz-adv-x="135" 
d="M350 691l-526 -718h-39l526 718h39z" />
    <glyph glyph-name="uni03A9" unicode="&#x3a9;" horiz-adv-x="652" 
d="M190 41v3c-69 65 -128 175 -128 315c0 201 119 326 267 326c155 0 261 -142 261 -323c0 -147 -65 -261 -129 -318v-3h141v-41h-207v31c75 55 147 172 147 323c-1 129 -71 289 -214 289c-133 0 -218 -129 -218 -290c0 -142 73 -270 146 -322v-31h-207v41h141z" />
    </font>
</defs>
</svg>
