<svg id="Layer_1" data-name="Layer 1" xmlns="http://www.w3.org/2000/svg" viewBox="0 0 176 162"><defs><style>.cls-1,.cls-3,.cls-6{fill:#333;}.cls-2,.cls-4,.cls-5,.cls-7{fill:none;}.cls-2,.cls-4,.cls-5,.cls-6,.cls-7{stroke:#333;stroke-miterlimit:10;}.cls-3{fill-rule:evenodd;}.cls-4,.cls-6,.cls-7{stroke-width:0.5px;}.cls-5{stroke-width:0.25px;}.cls-7{stroke-linecap:round;}</style></defs><title>logo svg</title><path class="cls-1" d="M30.41,127.39a.76.76,0,0,1-.6-.51,3.3,3.3,0,0,1-.18-1,10.28,10.28,0,0,1,.09-1.39c.08-.5.16-1,.24-1.54s.17-1,.25-1.53a10.22,10.22,0,0,0,.13-1.33,2.52,2.52,0,0,0-.12-1,.5.5,0,0,0-.5-.37,2.44,2.44,0,0,0-1.44.39,6.81,6.81,0,0,0-1.34,1.12,12.48,12.48,0,0,0-1.22,1.52c-.37.56-.71,1.08-1,1.58l-1.11,4a.4.4,0,0,1-.26.23.91.91,0,0,1-.33,0,.36.36,0,0,1-.24-.14c-.07-.08-.05-.15,0-.26.17-.54.36-1.11.53-1.73s.34-1.25.5-1.9.32-1.28.46-1.92.27-1.27.39-1.88a6.06,6.06,0,0,0,.1-.92c0-.24,0-.38-.14-.42l-2.44.18a.23.23,0,0,1-.18-.09.36.36,0,0,1-.05-.21A.39.39,0,0,1,22,118a.35.35,0,0,1,.23-.12l2.61-.2a.56.56,0,0,1,.42.12.7.7,0,0,1,.21.4,2.74,2.74,0,0,1,0,.59c0,.22-.05.48-.11.75a9.12,9.12,0,0,1-.25,1.07c-.1.38-.19.77-.27,1.16.13-.22.29-.47.47-.75s.41-.55.65-.83.51-.56.79-.82a7.68,7.68,0,0,1,.91-.71,4,4,0,0,1,1-.49,3,3,0,0,1,1.05-.2,1.11,1.11,0,0,1,.92.37,1.85,1.85,0,0,1,.42.95,5.32,5.32,0,0,1,0,1.35c0,.5-.1,1-.18,1.55s-.17,1-.27,1.56-.14,1-.18,1.4a4.33,4.33,0,0,0,0,1,.52.52,0,0,0,.38.47,1.64,1.64,0,0,0,.81-.1,5.57,5.57,0,0,0,1-.51,9.94,9.94,0,0,0,1.11-.72c.37-.26.71-.53,1-.79l.87-.7.54-.45c0-.08.09-.11.15-.07a.41.41,0,0,1,.14.19.59.59,0,0,1,0,.29.3.3,0,0,1-.16.24c-.18.17-.42.38-.71.63s-.61.51-1,.79-.71.53-1.1.78a8.46,8.46,0,0,1-1.14.67,5.05,5.05,0,0,1-1.13.42,2,2,0,0,1-1,0Zm6.39.16a1.16,1.16,0,0,1-.87-.22,1.26,1.26,0,0,1-.38-.7,2.68,2.68,0,0,1,0-1,7.2,7.2,0,0,1,.25-1.17,11.1,11.1,0,0,1,.41-1.19c.15-.38.3-.72.44-1a.38.38,0,0,1,.2-.17.63.63,0,0,1,.28,0,.48.48,0,0,1,.25.09.28.28,0,0,1,.12.24c-.07.13-.16.32-.28.59s-.25.57-.38.88-.24.67-.33,1a4.62,4.62,0,0,0-.2,1,1.41,1.41,0,0,0,.08.7.47.47,0,0,0,.48.27,4.17,4.17,0,0,0,1-.17,5.54,5.54,0,0,0,1.27-.55A10.31,10.31,0,0,0,40.59,125a14.15,14.15,0,0,0,1.61-1.65.19.19,0,0,1,.21,0,.44.44,0,0,1,.13.2,1,1,0,0,1,0,.31.5.5,0,0,1-.08.26c-.36.4-.74.78-1.15,1.16a12,12,0,0,1-1.3,1.06,9.21,9.21,0,0,1-1.52.81,7.2,7.2,0,0,1-1.73.45Zm.65-6.71a.34.34,0,0,1-.3-.13.53.53,0,0,1-.11-.31.5.5,0,0,1,.11-.29.32.32,0,0,1,.3-.12.36.36,0,0,1,.29.12.56.56,0,0,1,.1.29.53.53,0,0,1-.1.29.35.35,0,0,1-.29.15Zm3.41,5.39a3.19,3.19,0,0,1,.2-1.18,5.16,5.16,0,0,1,.58-1.09,5.28,5.28,0,0,1,.86-.91,4.78,4.78,0,0,1,1-.62,3.92,3.92,0,0,1,1.08-.25,2.24,2.24,0,0,1,1,.21c.16-.33.33-.69.51-1.12s.36-.84.53-1.26l.48-1.18c.14-.35.26-.63.33-.83a.38.38,0,0,1,.23-.2.48.48,0,0,1,.29,0,.39.39,0,0,1,.23.19.42.42,0,0,1,0,.3c-.1.21-.23.5-.4.84l-.53,1.15c-.19.42-.38.86-.56,1.32s-.37.92-.52,1.37a10.93,10.93,0,0,0-.37,1.31,4.41,4.41,0,0,0-.1,1.09,1.22,1.22,0,0,0,.25.75.81.81,0,0,0,.7.31,2.24,2.24,0,0,0,1.17-.28,5.92,5.92,0,0,0,1.15-.77,12.21,12.21,0,0,0,1-1c.31-.36.59-.7.81-1a.18.18,0,0,1,.2,0,.43.43,0,0,1,.2.15.49.49,0,0,1,.12.25.33.33,0,0,1-.09.27c-.12.17-.28.37-.48.61s-.39.46-.63.7a9,9,0,0,1-.78.7,6.31,6.31,0,0,1-.86.6,4.3,4.3,0,0,1-.92.44,2.74,2.74,0,0,1-1,.17,1.54,1.54,0,0,1-.75-.18,1.52,1.52,0,0,1-.55-.49,2.45,2.45,0,0,1-.29-.7,2.55,2.55,0,0,1,0-.83c-.07.13-.19.34-.36.61a5.41,5.41,0,0,1-.62.83,4.32,4.32,0,0,1-.86.72,1.84,1.84,0,0,1-1,.31,1.12,1.12,0,0,1-.51-.11,1.33,1.33,0,0,1-.44-.28,1.15,1.15,0,0,1-.3-.41,1.08,1.08,0,0,1-.11-.5Zm4.42-3.06a1.37,1.37,0,0,0-.79-.25,1.87,1.87,0,0,0-.8.23,3.9,3.9,0,0,0-.77.55,5.72,5.72,0,0,0-.66.75,5.55,5.55,0,0,0-.45.82,2.23,2.23,0,0,0-.17.74.78.78,0,0,0,.13.49.62.62,0,0,0,.51.19,1.09,1.09,0,0,0,.66-.17,2.83,2.83,0,0,0,.63-.49,4.49,4.49,0,0,0,.58-.69c.17-.25.33-.52.49-.78s.27-.52.38-.75.2-.47.26-.64Zm8.21,2.24-.41.47-.52.54c-.18.17-.37.34-.58.51a3.05,3.05,0,0,1-.6.37,1.38,1.38,0,0,1-.62.09.9.9,0,0,1-.6-.29,1.32,1.32,0,0,1-.46-.92,2.36,2.36,0,0,1,.17-1.15,4.48,4.48,0,0,1,.65-1.21,6.4,6.4,0,0,1,1-1.07,5.32,5.32,0,0,1,1.23-.76,2.92,2.92,0,0,1,1.29-.28,1.53,1.53,0,0,1,.72.17.72.72,0,0,1,.35.48,1.07,1.07,0,0,1-.06.56c-.1.24-.23.58-.43,1a5.28,5.28,0,0,0-.39,1.54,1.68,1.68,0,0,0,.12.86.69.69,0,0,0,.37.38,1,1,0,0,0,.37.08,2.72,2.72,0,0,0,1.13-.41,5.51,5.51,0,0,0,1.05-.8,11.68,11.68,0,0,0,1-1.08l1-1.18a.13.13,0,0,1,.18,0,.53.53,0,0,1,.11.24.81.81,0,0,1,0,.32.67.67,0,0,1-.08.25c-.31.33-.61.67-.93,1a10.92,10.92,0,0,1-1,1,5.75,5.75,0,0,1-1.18.84,3.78,3.78,0,0,1-1.38.43,1.61,1.61,0,0,1-.82-.18,1.21,1.21,0,0,1-.49-.46,1.83,1.83,0,0,1-.21-.66,3.69,3.69,0,0,1,0-.82Zm.75-3a1.92,1.92,0,0,0-.94.17,5.56,5.56,0,0,0-1,.58,5.88,5.88,0,0,0-.88.85,5.2,5.2,0,0,0-.67.92,2.28,2.28,0,0,0-.31.84.67.67,0,0,0,.16.61.56.56,0,0,0,.61.11,2.52,2.52,0,0,0,.75-.49,7.59,7.59,0,0,0,.78-.86,10.9,10.9,0,0,0,.71-1c.21-.35.38-.68.53-1a2.84,2.84,0,0,0,.25-.73Zm7.58,4.78a1.64,1.64,0,0,1-.43-.69,2.25,2.25,0,0,1-.07-.82,3,3,0,0,1,.19-.82,5.55,5.55,0,0,1,.29-.73,1.42,1.42,0,0,1-.32-.14,2.08,2.08,0,0,1-.41-.22,2.77,2.77,0,0,1-.46-.36,4.87,4.87,0,0,1-.5-.51c-.25.64-.49,1.23-.73,1.73s-.45.95-.63,1.32-.37.67-.52.92l-.3.55a.57.57,0,0,1-.33.16.56.56,0,0,1-.29,0,.37.37,0,0,1-.17-.23.45.45,0,0,1,0-.33,5.21,5.21,0,0,0,.53-.84c.21-.36.41-.74.62-1.15s.38-.82.55-1.22a7.56,7.56,0,0,0,.4-1,1.35,1.35,0,0,1,.09-.29,1.34,1.34,0,0,1,.13-.32.6.6,0,0,1,.19-.25.34.34,0,0,1,.25-.11.32.32,0,0,1,.25,0,1.82,1.82,0,0,1,.25.24l.28.34a1.74,1.74,0,0,0,.34.37,2.57,2.57,0,0,0,.66.43l.57.25a.76.76,0,0,1,.34.25c.07.09,0,.23,0,.42s-.15.3-.24.53a3.22,3.22,0,0,0-.25.72,2.09,2.09,0,0,0-.07.74.85.85,0,0,0,.32.57.91.91,0,0,0,.71.18,2.23,2.23,0,0,0,.83-.29,5,5,0,0,0,.86-.6c.28-.24.54-.49.78-.74s.46-.5.64-.72a3.31,3.31,0,0,0,.37-.52.43.43,0,0,1,.28-.16.31.31,0,0,1,.24.09.37.37,0,0,1,.09.26.57.57,0,0,1-.16.37,10.27,10.27,0,0,1-1.52,1.68,6.22,6.22,0,0,1-1.38.95,2.92,2.92,0,0,1-1.21.29,2.22,2.22,0,0,1-1.06-.26Zm7.72-1.83-.41.47-.52.54c-.17.17-.37.34-.56.51a2.9,2.9,0,0,1-.62.37,1.34,1.34,0,0,1-.62.09.9.9,0,0,1-.6-.29,1.32,1.32,0,0,1-.46-.92,2.62,2.62,0,0,1,.17-1.15,4.83,4.83,0,0,1,.66-1.21,5.68,5.68,0,0,1,1-1.07,5.06,5.06,0,0,1,1.22-.76,2.92,2.92,0,0,1,1.29-.28,1.61,1.61,0,0,1,.73.17.68.68,0,0,1,.34.48,1,1,0,0,1-.06.56c-.1.24-.23.58-.43,1a5.92,5.92,0,0,0-.38,1.54,1.68,1.68,0,0,0,.12.86.64.64,0,0,0,.36.38,1,1,0,0,0,.38.08,2.72,2.72,0,0,0,1.13-.41,5.9,5.9,0,0,0,1.06-.8c.34-.33.67-.69,1-1.08l1-1.18a.13.13,0,0,1,.18,0,.53.53,0,0,1,.11.24.81.81,0,0,1,0,.32.44.44,0,0,1-.08.25c-.31.33-.61.67-.93,1a8.93,8.93,0,0,1-1,1,6,6,0,0,1-1.17.84,3.89,3.89,0,0,1-1.39.43,1.61,1.61,0,0,1-.82-.18,1.21,1.21,0,0,1-.49-.46,1.83,1.83,0,0,1-.21-.66,5.48,5.48,0,0,1,0-.82Zm.76-3a2,2,0,0,0-1,.17,5.56,5.56,0,0,0-1,.58,7,7,0,0,0-.88.85,4.67,4.67,0,0,0-.66.92,2.52,2.52,0,0,0-.32.84.63.63,0,0,0,.18.61.52.52,0,0,0,.59.11,2.52,2.52,0,0,0,.75-.49,6.75,6.75,0,0,0,.78-.86,10.9,10.9,0,0,0,.71-1c.21-.35.38-.68.53-1a3,3,0,0,0,.26-.73Zm13.49,1.16a.3.3,0,0,1,.25.13.44.44,0,0,1,.06.25.41.41,0,0,1-.09.23.19.19,0,0,1-.2.09l-3.33,0a.34.34,0,0,1-.26-.09.35.35,0,0,1-.09-.25.33.33,0,0,1,.06-.25.29.29,0,0,1,.25-.12Zm5.12,1.11a7.66,7.66,0,0,1,.17-1.57,11.7,11.7,0,0,1,.53-1.69,10.45,10.45,0,0,1,.84-1.63,5.83,5.83,0,0,1,1.13-1.32,3.58,3.58,0,0,1,1.35-.79,2.77,2.77,0,0,1,1.59,0l.59-.7a.39.39,0,0,1,.26-.09.32.32,0,0,1,.24.08.34.34,0,0,1,.13.2.24.24,0,0,1,0,.22l-.61.66a1.8,1.8,0,0,1,.41.8,2.33,2.33,0,0,1,.06.87,2.91,2.91,0,0,1-.22.83,2.25,2.25,0,0,1-.43.69,1.62,1.62,0,0,1-.55.42.89.89,0,0,1-.62,0,1.05,1.05,0,0,1-.69-.58,1.56,1.56,0,0,1-.07-.89,4.09,4.09,0,0,1,.37-1,8.61,8.61,0,0,1,.62-1,2.27,2.27,0,0,0-1.17.25,4,4,0,0,0-1,.85,6.67,6.67,0,0,0-.86,1.21,12.06,12.06,0,0,0-.66,1.41,12.62,12.62,0,0,0-.42,1.43,7.81,7.81,0,0,0-.16,1.24A2.47,2.47,0,0,0,90,126a1.63,1.63,0,0,0,.91.65,3.18,3.18,0,0,0,1.32,0,7,7,0,0,0,1.52-.41,11.92,11.92,0,0,0,1.42-.64c.47-.26.91-.51,1.33-.78s.78-.56,1.11-.82a8.53,8.53,0,0,0,.79-.75c.08-.07.15-.08.21,0a.21.21,0,0,1,.12.17.62.62,0,0,1,0,.28.53.53,0,0,1-.12.25c-.27.26-.57.52-.91.82a11.56,11.56,0,0,1-1.14.83,11.72,11.72,0,0,1-1.3.77,10.4,10.4,0,0,1-1.41.64,8.13,8.13,0,0,1-1.84.43,3.53,3.53,0,0,1-1.58-.12,2.07,2.07,0,0,1-1.11-.85,3.13,3.13,0,0,1-.42-1.77Zm4.88-3.67a.43.43,0,0,0,.41,0,.89.89,0,0,0,.36-.32,1.84,1.84,0,0,0,.23-.53,2.78,2.78,0,0,0,.11-.63,1.54,1.54,0,0,0-.07-.58.88.88,0,0,0-.26-.44,5,5,0,0,0-.46.68,4.27,4.27,0,0,0-.36.75,2,2,0,0,0-.14.66c0,.19,0,.33.18.39Zm3.1,6.15c.24-.69.46-1.4.71-2.16s.48-1.52.73-2.26.5-1.44.76-2.1a12.43,12.43,0,0,1,.79-1.7,4.1,4.1,0,0,1,.86-1.09,1,1,0,0,1,.93-.25.88.88,0,0,1,.68.59,2,2,0,0,1-.06,1,6.45,6.45,0,0,1-.61,1.29,15.63,15.63,0,0,1-1,1.35,12.57,12.57,0,0,1-1.06,1.21,7.42,7.42,0,0,1-1,.89l-.22.74a4,4,0,0,1,.41-.45,4.85,4.85,0,0,1,.51-.49,6.51,6.51,0,0,1,.58-.46,4.74,4.74,0,0,1,.62-.41,2.39,2.39,0,0,1,1.16-.37,1.12,1.12,0,0,1,.84.32,1.8,1.8,0,0,1,.36,1.53c0,.27-.07.55-.12.83s-.06.51-.08.74a1.15,1.15,0,0,0,.1.52.42.42,0,0,0,.4.2,1.71,1.71,0,0,0,.7-.2,6.94,6.94,0,0,0,.87-.51c.32-.21.64-.45,1-.71l.93-.77.81-.71c.25-.21.45-.4.6-.53a.18.18,0,0,1,.18.07.44.44,0,0,1,.07.22.5.5,0,0,1,0,.27.27.27,0,0,1-.13.19l-1.23,1.1c-.43.38-.85.74-1.29,1.07a9.43,9.43,0,0,1-1.32.84,3.83,3.83,0,0,1-1.3.41.84.84,0,0,1-.76-.22,1.33,1.33,0,0,1-.26-.69,3.42,3.42,0,0,1,0-1c0-.36.09-.69.13-1a1.64,1.64,0,0,0-.16-1.18.56.56,0,0,0-.57-.12,3.51,3.51,0,0,0-.87.39,6,6,0,0,0-1,.76,12.12,12.12,0,0,0-.9,1,10.36,10.36,0,0,0-.73,1.09,3.72,3.72,0,0,0-.48,1,.27.27,0,0,1-.16.06.78.78,0,0,1-.26,0,.5.5,0,0,1-.21-.13.16.16,0,0,1,0-.21Zm2.24-4.5a5.9,5.9,0,0,0,.65-.71,9.33,9.33,0,0,0,.67-.94,9.45,9.45,0,0,0,.6-1,7.14,7.14,0,0,0,.43-.9,2.48,2.48,0,0,0,.19-.63c0-.16,0-.24-.16-.22a.85.85,0,0,0-.53.27,3.07,3.07,0,0,0-.54.77,10.67,10.67,0,0,0-.59,1.34c-.22.56-.45,1.23-.72,2Zm9.43,4.84a1.16,1.16,0,0,1-.87-.22,1.4,1.4,0,0,1-.38-.7,3.15,3.15,0,0,1,0-1,7.25,7.25,0,0,1,.26-1.17c.12-.41.25-.81.4-1.19a11.25,11.25,0,0,1,.46-1,.37.37,0,0,1,.18-.17.67.67,0,0,1,.28,0,.45.45,0,0,1,.25.09.29.29,0,0,1,.13.24L109,123c-.12.26-.25.57-.37.88s-.23.67-.34,1a4.62,4.62,0,0,0-.2,1,1.69,1.69,0,0,0,.08.7.49.49,0,0,0,.49.27,4.1,4.1,0,0,0,1-.17,5.19,5.19,0,0,0,1.27-.55,11,11,0,0,0,1.46-1.06,14.15,14.15,0,0,0,1.61-1.65.17.17,0,0,1,.2,0,.37.37,0,0,1,.13.2.63.63,0,0,1,0,.31.42.42,0,0,1-.08.26c-.36.4-.74.78-1.15,1.16a9.68,9.68,0,0,1-1.3,1.06,8.38,8.38,0,0,1-1.51.81,7.41,7.41,0,0,1-1.74.45Zm.66-6.71a.35.35,0,0,1-.31-.13.52.52,0,0,1-.1-.31.44.44,0,0,1,.11-.29.32.32,0,0,1,.3-.12.36.36,0,0,1,.29.12.47.47,0,0,1,.09.29.45.45,0,0,1-.09.29.35.35,0,0,1-.29.15Z"/><path class="cls-1" d="M115.49,127.53a1.8,1.8,0,0,1-1-.33,2.34,2.34,0,0,1-.64-.86,4.48,4.48,0,0,1-.32-1.32,10.77,10.77,0,0,1,0-1.7,13.38,13.38,0,0,1,.33-2.06,9.74,9.74,0,0,1,.65-1.89,4.63,4.63,0,0,1,.84-1.3,1.74,1.74,0,0,1,1-.59,1.15,1.15,0,0,1,.69.07.76.76,0,0,1,.34.41,1.28,1.28,0,0,1,0,.66,3.68,3.68,0,0,1-.2.83,5.89,5.89,0,0,1-.38,1c-.16.33-.33.66-.52,1s-.33.58-.5.84-.35.54-.52.78l-.52.64c-.17.19-.32.35-.45.47a4.09,4.09,0,0,0,.19,1.79,1.23,1.23,0,0,0,.75.75,2,2,0,0,0,1.17,0,7,7,0,0,0,1.41-.59,11.4,11.4,0,0,0,1.78-1.22,17.56,17.56,0,0,0,1.53-1.45.23.23,0,0,1,.23-.06.35.35,0,0,1,.2.12.41.41,0,0,1,.1.21.21.21,0,0,1,0,.2,4.23,4.23,0,0,1-.61.69,9.68,9.68,0,0,1-.93.82,11.51,11.51,0,0,1-1.14.82,14,14,0,0,1-1.22.7,7.48,7.48,0,0,1-1.2.5,3.09,3.09,0,0,1-1.07.15ZM114.38,123c.26-.36.54-.76.8-1.18a11.79,11.79,0,0,0,.73-1.27,6.57,6.57,0,0,0,.42-.91,5.11,5.11,0,0,0,.25-.76,1,1,0,0,0,0-.5q0-.17-.27-.15a1,1,0,0,0-.6.44,4.94,4.94,0,0,0-.53.95,9.24,9.24,0,0,0-.36.94c-.1.33-.19.66-.26,1a8.66,8.66,0,0,0-.17.86,2.78,2.78,0,0,0,0,.6Zm5.43,3.22a3.2,3.2,0,0,1,.21-1.18,4.39,4.39,0,0,1,.58-1.09,4.92,4.92,0,0,1,.86-.91,4.78,4.78,0,0,1,1-.62,3.92,3.92,0,0,1,1.08-.25,2.29,2.29,0,0,1,1,.21c.15-.33.32-.69.5-1.12s.36-.84.54-1.26l.48-1.18.33-.83a.36.36,0,0,1,.22-.2.5.5,0,0,1,.3,0,.36.36,0,0,1,.23.19.38.38,0,0,1,0,.3c-.1.21-.22.5-.39.84s-.34.73-.54,1.15l-.57,1.32c-.18.46-.35.92-.51,1.37a9.25,9.25,0,0,0-.36,1.31,3.62,3.62,0,0,0-.1,1.09,1.16,1.16,0,0,0,.25.75.79.79,0,0,0,.69.31,2.23,2.23,0,0,0,1.18-.28,5.58,5.58,0,0,0,1.14-.77,8.93,8.93,0,0,0,1-1l.83-1a.15.15,0,0,1,.18,0,.51.51,0,0,1,.21.15.58.58,0,0,1,.11.25.41.41,0,0,1-.08.27l-.48.61c-.19.22-.41.46-.64.7a8.8,8.8,0,0,1-.77.7,6.31,6.31,0,0,1-.86.6,4.16,4.16,0,0,1-.93.44,2.66,2.66,0,0,1-1,.17,1.61,1.61,0,0,1-.76-.18,1.44,1.44,0,0,1-.52-.49,1.82,1.82,0,0,1-.29-.7,2.09,2.09,0,0,1,0-.83l-.36.61a7.14,7.14,0,0,1-.62.83,4.91,4.91,0,0,1-.85.72,1.92,1.92,0,0,1-1,.31,1.19,1.19,0,0,1-.52-.11,1.57,1.57,0,0,1-.44-.28,1.13,1.13,0,0,1-.29-.41,1.08,1.08,0,0,1-.12-.5Zm4.42-3.06a1.34,1.34,0,0,0-.78-.25,1.83,1.83,0,0,0-.8.23,4,4,0,0,0-.78.55,6.46,6.46,0,0,0-.65.75,4.1,4.1,0,0,0-.44.82,2.31,2.31,0,0,0-.19.74.74.74,0,0,0,.15.49.55.55,0,0,0,.48.19,1.15,1.15,0,0,0,.68-.17,3.37,3.37,0,0,0,.63-.49,4,4,0,0,0,.57-.69,9.21,9.21,0,0,0,.49-.78c.15-.27.27-.52.38-.75a6.18,6.18,0,0,0,.26-.64Zm8.35,4.07a1.59,1.59,0,0,1-.45-.69,2.49,2.49,0,0,1-.06-.82,3.34,3.34,0,0,1,.18-.82,5.55,5.55,0,0,1,.29-.73,1.64,1.64,0,0,1-.32-.14,3.5,3.5,0,0,1-.41-.22,3.25,3.25,0,0,1-.46-.36,6.12,6.12,0,0,1-.5-.51c-.25.64-.49,1.23-.72,1.73s-.44.95-.64,1.32-.37.67-.5.92-.25.42-.31.55a.54.54,0,0,1-.32.16.56.56,0,0,1-.3,0,.43.43,0,0,1-.18-.23A.47.47,0,0,1,128,127a7.13,7.13,0,0,0,.53-.84c.2-.36.39-.74.6-1.15s.39-.82.57-1.22a7.15,7.15,0,0,0,.38-1c0-.08.06-.19.1-.29a1.93,1.93,0,0,1,.13-.32.67.67,0,0,1,.18-.25.39.39,0,0,1,.27-.11.27.27,0,0,1,.23,0,2.62,2.62,0,0,1,.26.24l.29.34a1.67,1.67,0,0,0,.32.37,3,3,0,0,0,.66.43l.57.25a.66.66,0,0,1,.34.25c.07.09.06.23,0,.42s-.13.3-.24.53a4.67,4.67,0,0,0-.25.72,2.34,2.34,0,0,0-.06.74.84.84,0,0,0,.31.57.93.93,0,0,0,.72.18,2.48,2.48,0,0,0,.84-.29,4.5,4.5,0,0,0,.84-.6c.28-.24.55-.49.8-.74l.63-.72c.17-.22.3-.4.38-.52a.39.39,0,0,1,.27-.16.37.37,0,0,1,.25.09.43.43,0,0,1,.09.26.54.54,0,0,1-.17.37,10.72,10.72,0,0,1-1.51,1.68,6.46,6.46,0,0,1-1.38.95,3,3,0,0,1-1.23.29,2.17,2.17,0,0,1-1-.26Zm4.31-1.76a3.5,3.5,0,0,1,.21-1.11,5.53,5.53,0,0,1,.54-1.09,5.84,5.84,0,0,1,.77-.94,3.09,3.09,0,0,1,.87-.63,1.89,1.89,0,0,1,.87-.23,1.16,1.16,0,0,1,.77.35.94.94,0,0,1,.3.66,1.84,1.84,0,0,1-.2.78,3.51,3.51,0,0,1-.57.76,4.53,4.53,0,0,1-.8.66,3.89,3.89,0,0,1-.94.41,1.86,1.86,0,0,1-.93.06,1.18,1.18,0,0,0-.06.62,1.2,1.2,0,0,0,.24.58,1.13,1.13,0,0,0,.54.44,1.67,1.67,0,0,0,.7.09,2.88,2.88,0,0,0,.75-.13l.71-.24a6,6,0,0,0,1.35-.66,10.28,10.28,0,0,0,1.15-.83,9.93,9.93,0,0,0,.93-.89c.29-.29.54-.57.76-.82.06-.08.13-.11.19-.07a.53.53,0,0,1,.17.19.69.69,0,0,1,.07.29.32.32,0,0,1-.1.25,11.06,11.06,0,0,1-.86,1,10.38,10.38,0,0,1-1.06.89,13.64,13.64,0,0,1-1.16.76,10.33,10.33,0,0,1-1.22.58,5.51,5.51,0,0,1-.84.28,4,4,0,0,1-.91.14,2.68,2.68,0,0,1-.89-.1,1.75,1.75,0,0,1-.78-.49,2,2,0,0,1-.44-.67,2.25,2.25,0,0,1-.13-.86Zm3.34-3.15a.32.32,0,0,0-.28,0,1.32,1.32,0,0,0-.39.2,2.26,2.26,0,0,0-.46.38,2.49,2.49,0,0,0-.45.47,4.14,4.14,0,0,0-.36.53,1.55,1.55,0,0,0-.16.52,1.26,1.26,0,0,0,.57-.07,2.49,2.49,0,0,0,.59-.29,1.91,1.91,0,0,0,.5-.44,2.78,2.78,0,0,0,.39-.47,1.13,1.13,0,0,0,.15-.46.35.35,0,0,0-.1-.33Zm8,5.39a.94.94,0,0,1-.6-.34,1.26,1.26,0,0,1-.24-.63,2.88,2.88,0,0,1,0-.83c0-.31.08-.61.13-.93s.11-.59.16-.88a5.92,5.92,0,0,0,.07-.77,1,1,0,0,0-.12-.52.42.42,0,0,0-.42-.19,1.44,1.44,0,0,0-1,.41,4.31,4.31,0,0,0-.79,1.06,9.92,9.92,0,0,0-.66,1.49c-.2.55-.38,1.12-.55,1.7a.26.26,0,0,1-.19.22.61.61,0,0,1-.3,0,.46.46,0,0,1-.26-.19.23.23,0,0,1,0-.26,10.28,10.28,0,0,0,.47-1.42c.15-.52.27-1,.37-1.51s.21-.93.29-1.37.15-.76.2-1c0-.07.07-.11.16-.14a.55.55,0,0,1,.25,0,.52.52,0,0,1,.21.14.22.22,0,0,1,0,.23l-.28,1.15a3.3,3.3,0,0,1,1-1,1.77,1.77,0,0,1,1.08-.29,1.3,1.3,0,0,1,.79.27,1.46,1.46,0,0,1,.36.61,2.79,2.79,0,0,1,.05.83c0,.31-.07.62-.13.94s-.11.62-.17.91a4.25,4.25,0,0,0-.1.8,1.19,1.19,0,0,0,.1.57.44.44,0,0,0,.43.21,2.7,2.7,0,0,0,1.27-.36,7.2,7.2,0,0,0,1.36-.89,10.71,10.71,0,0,0,1.25-1.18,13.25,13.25,0,0,0,1-1.2.24.24,0,0,1,.2-.13.35.35,0,0,1,.22.08.31.31,0,0,1,.12.24.54.54,0,0,1-.07.35,5,5,0,0,1-.55.66,9.77,9.77,0,0,1-.85.86,11.82,11.82,0,0,1-1,.9,9.84,9.84,0,0,1-1.12.78,6.5,6.5,0,0,1-1.12.51,2,2,0,0,1-1,.09Z"/><path class="cls-2" d="M80.17,9.45A50.92,50.92,0,1,0,138,52.35,50.93,50.93,0,0,0,80.17,9.45Z"/><path class="cls-3" d="M79.3,13.35l.2,0,.3-.05.3,0,.3-.05.31,0,.2,1.37-1.36.23Z"/><path class="cls-3" d="M76.51,13.94h0l.29-.07.29-.07.29-.07.3-.06.17,0L78.18,15l-1.34.3Z"/><path class="cls-3" d="M73.76,14.68l.2,0,.28-.09.3-.08.28-.09.29-.07h0l.35,1.34L74.16,16Z"/><path class="cls-3" d="M71.06,15.6l.11,0,.27-.1.27-.1.29-.1.27-.09.13,0,.44,1.31-1.3.47Z"/><path class="cls-3" d="M68.41,16.69l0,0,.26-.12.27-.11.27-.12.27-.11.19-.08.53,1.28c-.43.18-.86.36-1.27.55Z"/><path class="cls-3" d="M65.84,17.93h0l.26-.13.25-.13.26-.14.26-.13.25-.11.6,1.25c-.42.2-.83.41-1.24.62Z"/><path class="cls-3" d="M63.35,19.33l.22-.14.25-.15.25-.14.25-.14.25-.14h0l.67,1.21c-.41.22-.81.46-1.2.7Z"/><path class="cls-3" d="M61,20.86l.2-.13.24-.16.23-.16.24-.16.24-.15,0,0,.74,1.18c-.38.24-.77.5-1.15.76Z"/><path class="cls-3" d="M58.65,22.55l.18-.14.23-.17.22-.18.23-.17.24-.17,0,0,.82,1.12c-.37.27-.74.56-1.11.84Z"/><path class="cls-3" d="M56.45,24.38l.18-.17.21-.18.22-.19.22-.18.22-.19,0,0,.87,1.06-1,.9Z"/><path class="cls-3" d="M54.37,26.32l.17-.18.21-.2.2-.19.21-.2.2-.19,0,0,1,1-1,1Z"/><path class="cls-3" d="M52.4,28.4l.19-.21.19-.21.19-.21.19-.2.2-.21v0l1,1c-.32.33-.63.68-.94,1Z"/><path class="cls-3" d="M50.57,30.59v0l.18-.22.17-.22.18-.22.18-.22.18-.21,1.06.89c-.3.36-.59.71-.87,1.08Z"/><path class="cls-3" d="M48.86,32.88l0,0,.17-.24.16-.23.16-.22.17-.23.15-.21,1.11.83c-.27.37-.54.74-.8,1.13Z"/><path class="cls-3" d="M47.31,35.27l0-.06.15-.23.15-.24.15-.25.16-.23.12-.19,1.17.75c-.26.39-.5.78-.75,1.18Z"/><path class="cls-3" d="M45.9,37.75l0-.07.14-.25.14-.25.13-.25.14-.24.11-.18,1.2.68c-.23.4-.45.81-.66,1.22Z"/><path class="cls-3" d="M44.64,40.31l0-.08L44.8,40l.12-.25.12-.26.13-.25.08-.17,1.25.61c-.21.41-.4.83-.6,1.25Z"/><path class="cls-3" d="M43.54,43l0-.1.1-.27.11-.26.1-.26.11-.27.07-.17,1.27.54q-.26.63-.51,1.29Z"/><path class="cls-3" d="M42.59,45.64l0-.1.08-.27L42.8,45l.09-.27.1-.27.06-.17,1.31.46c-.15.44-.3.87-.44,1.31Z"/><path class="cls-3" d="M41.82,48.39l0-.09.07-.27.07-.29.08-.27.08-.28,0-.18,1.34.38c-.12.45-.24.89-.35,1.34Z"/><path class="cls-3" d="M41.21,51.18v-.06l.05-.28.06-.28.06-.29.06-.28,0-.21,1.36.29c-.09.46-.19.91-.27,1.37Z"/><path class="cls-3" d="M40.77,54h0l0-.29,0-.29,0-.29,0-.28,0-.25,1.37.21c-.06.46-.13.91-.18,1.38Z"/><path class="cls-3" d="M40.51,56.84l0-.23,0-.29,0-.29,0-.3,0-.29v0l1.38.13c0,.46-.07.92-.1,1.39Z"/><path class="cls-3" d="M40.42,59.69V58.26l1.38.06c0,.45,0,.92,0,1.38Z"/><path class="cls-3" d="M40.5,62.55h0l0-.3V61.12l1.38,0c0,.47,0,.93.06,1.39Z"/><path class="cls-3" d="M40.76,65.39l0-.16,0-.3,0-.3,0-.3,0-.3V64L42,63.85c0,.47.09.92.15,1.38Z"/><path class="cls-3" d="M41.18,68.21l0-.26-.05-.3,0-.3-.05-.3,0-.24,1.37-.2c.07.45.15.91.23,1.36Z"/><path class="cls-3" d="M41.77,71l0-.1-.07-.29-.07-.29-.07-.3-.06-.29,0-.12,1.35-.28c.1.45.2.9.31,1.36Z"/><path class="cls-3" d="M42.52,73.75l-.07-.25-.09-.29-.08-.29-.09-.28-.06-.25L43.47,72c.12.45.24.89.38,1.33Z"/><path class="cls-3" d="M43.45,76.45l-.06-.16-.1-.27-.1-.28-.1-.28-.1-.28,0-.06,1.31-.45c.15.44.31.87.47,1.3Z"/><path class="cls-3" d="M44.53,79.1l0-.1-.12-.26-.11-.27-.12-.27L44,77.93,44,77.79l1.29-.53c.17.43.36.86.54,1.28Z"/><path class="cls-3" d="M45.78,81.67l0-.06-.13-.25-.13-.26-.14-.26-.13-.25-.09-.2,1.26-.6c.2.42.41.83.62,1.24Z"/><path class="cls-3" d="M47.17,84.16v0L47,83.89l-.15-.26-.14-.24-.14-.25-.12-.22,1.21-.67.69,1.2Z"/><path class="cls-3" d="M48.72,86.56h0l-.16-.24-.16-.24-.16-.23-.16-.25-.14-.22,1.17-.74c.25.39.5.77.77,1.14Z"/><path class="cls-3" d="M50.41,88.87v0l-.17-.23-.17-.23-.18-.22-.17-.23-.16-.21,1.12-.83c.27.37.55.75.83,1.11Z"/><path class="cls-3" d="M52.24,91.06l0,0L52,90.82l-.18-.21-.19-.21-.18-.22-.17-.2,1.07-.89c.29.36.59.7.9,1Z"/><path class="cls-3" d="M54.19,93.13l0,0-.2-.2-.2-.2-.19-.21-.2-.2-.17-.18,1-1c.3.34.63.67,1,1Z"/><path class="cls-3" d="M56.26,95.1l0,0L56,94.87l-.21-.19-.21-.19-.2-.2-.17-.15.94-1,1,.93Z"/><path class="cls-3" d="M58.46,96.93l-.07-.06-.22-.17L58,96.52l-.22-.17-.22-.19L57.35,96,58.24,95c.35.3.72.6,1.07.88Z"/><path class="cls-3" d="M60.75,98.62l-.08-.05-.24-.17-.23-.16L60,98.08l-.23-.18-.16-.11.82-1.12c.38.29.76.55,1.13.81Z"/><path class="cls-3" d="M63.14,100.18l-.11-.07L62.8,100l-.24-.15-.25-.15-.23-.15-.15-.1.77-1.15,1.17.73Z"/><path class="cls-3" d="M65.63,101.59l-.13-.07-.25-.14-.25-.13-.25-.13-.24-.15-.14-.07.69-1.2,1.22.66Z"/><path class="cls-3" d="M68.19,102.84l-.14-.07-.27-.12-.25-.12-.26-.11-.25-.13-.12-.06.61-1.24,1.26.59Z"/><path class="cls-3" d="M70.82,103.94l-.15-.06-.27-.1-.26-.11-.26-.11-.27-.11-.12,0,.55-1.28c.42.18.86.35,1.28.51Z"/><path class="cls-3" d="M73.52,104.87l-.16,0-.27-.09-.27-.08-.27-.1-.27-.1-.12,0,.46-1.31c.44.15.88.3,1.32.43Z"/><path class="cls-3" d="M76.26,105.65l-.14,0-.27-.06-.29-.08-.27-.08-.28-.07-.12,0,.37-1.33,1.35.35Z"/><path class="cls-3" d="M79.06,106.26l-.12,0-.28-.06-.28,0-.29-.05-.28-.07-.15,0,.3-1.35c.45.09.9.19,1.35.27Z"/><path class="cls-3" d="M81.88,106.68h-.07l-.29,0-.29,0-.29,0-.28,0-.19,0,.21-1.37c.45.07.92.14,1.37.19Z"/><path class="cls-3" d="M84.73,107h0l-.29,0-.29,0-.3,0-.29,0-.24,0,.12-1.38,1.38.11Z"/><path class="cls-3" d="M87.58,107H86.15l0-1.38,1.38,0Z"/><path class="cls-3" d="M90.43,107h-.07l-.3,0H89l0-1.39,1.38-.06Z"/><path class="cls-3" d="M93.27,106.69l-.22,0-.3,0-.3,0-.3,0-.29,0-.13-1.38c.46,0,.92-.1,1.38-.15Z"/><path class="cls-3" d="M96.1,106.27h0l-.3,0-.3.06-.31,0-.3,0-.17,0-.21-1.36,1.37-.23Z"/><path class="cls-3" d="M98.89,105.67l-.17,0-.29.07-.29.07-.3.06-.29.06-.06,0-.28-1.36,1.35-.31Z"/><path class="cls-3" d="M101.64,104.91h0l-.28.09-.29.08-.29.08-.28.09-.19,0L99.91,104q.66-.18,1.32-.39Z"/><path class="cls-3" d="M104.34,104l-.23.09-.27.1-.29.1-.27.1-.28.09h0l-.45-1.32c.45-.15.88-.31,1.32-.47Z"/><path class="cls-3" d="M107,102.9l-.16.06-.26.12-.28.12-.26.12-.27.11-.08,0-.53-1.29c.43-.17.85-.35,1.27-.54Z"/><path class="cls-3" d="M109.54,101.65l-.11.06-.25.13-.26.13-.26.13-.25.13-.14.06-.6-1.25c.42-.2.83-.41,1.24-.63Z"/><path class="cls-3" d="M112,100.25l-.09,0-.24.14-.26.15-.24.14-.25.15-.16.09-.67-1.21c.4-.23.8-.46,1.19-.7Z"/><path class="cls-3" d="M114.43,98.69l-.06.06-.24.15-.24.17-.23.15-.25.17-.16.11-.76-1.18c.39-.24.77-.51,1.16-.76Z"/><path class="cls-3" d="M116.73,97l-.06.06-.23.17-.23.17-.22.18-.23.17-.17.12-.81-1.12,1.1-.84Z"/><path class="cls-3" d="M118.92,95.18l-.06.06-.22.19-.21.18-.22.18L118,96l-.16.13L117,95.05l1.05-.91Z"/><path class="cls-3" d="M121,93.23l-.07.06-.2.2-.2.2-.21.2-.2.19-.14.14-1-1c.34-.31.68-.64,1-1Z"/><path class="cls-3" d="M123,91.14l-.09.09-.18.21-.19.21-.19.21-.2.21-.12.13-1-1q.48-.49.93-1Z"/><path class="cls-3" d="M124.79,89l-.1.12-.17.22-.18.21-.17.22-.19.22-.1.12-1.06-.89c.3-.36.59-.71.87-1.08Z"/><path class="cls-3" d="M126.48,86.66l-.09.13-.17.23-.16.24-.16.22-.18.23-.07.1L124.53,87c.28-.37.55-.75.81-1.13Z"/><path class="cls-3" d="M128,84.26l-.09.16-.15.24-.15.24-.15.24-.15.24-.06.09-1.17-.76c.26-.38.51-.78.74-1.18Z"/><path class="cls-3" d="M129.44,81.78l-.1.18-.14.25-.13.25-.14.25-.14.24,0,.07-1.21-.68c.23-.4.45-.81.67-1.22Z"/><path class="cls-3" d="M130.68,79.21l-.09.2-.12.26-.12.26-.11.26-.13.25,0,.06-1.25-.61.6-1.25Z"/><path class="cls-3" d="M131.78,76.57l-.08.22-.1.27-.11.26-.11.26-.11.27v.05L130,77.36q.27-.63.51-1.29Z"/><path class="cls-3" d="M132.71,73.88l-.06.21-.09.27-.09.27-.09.28-.1.27v.06L131,74.77c.16-.44.31-.87.44-1.31Z"/><path class="cls-3" d="M133.48,71.13l0,.2-.06.28-.08.28-.08.28-.07.27,0,.07-1.34-.38c.13-.44.25-.89.36-1.34Z"/><path class="cls-3" d="M134.09,68.34l0,.18-.06.28-.05.28-.05.29-.07.28,0,.09-1.35-.3c.1-.46.19-.9.27-1.36Z"/><path class="cls-3" d="M134.51,65.51l0,.13,0,.29,0,.3,0,.28,0,.29,0,.13L133,66.72c.07-.46.13-.92.19-1.38Z"/><path class="cls-3" d="M134.77,62.67v.06l0,.29,0,.3,0,.29,0,.3,0,.18L133.28,64c0-.45.08-.92.1-1.38Z"/><path class="cls-3" d="M134.85,59.82v1.42l-1.38-.05c0-.45,0-.92,0-1.38Z"/><path class="cls-3" d="M134.76,57v.14l0,.3v1l-1.39,0c0-.47,0-.92-.06-1.39Z"/><path class="cls-3" d="M134.5,54.12l0,.28,0,.3,0,.3,0,.3,0,.23-1.37.13-.15-1.37Z"/><path class="cls-3" d="M134.07,51.29l0,.09,0,.3.05.3.05.31,0,.3v.11l-1.36.21c-.07-.46-.16-.92-.24-1.36Z"/><path class="cls-3" d="M133.48,48.51l.05.23.07.29.07.29.06.29.06.28-1.35.29c-.1-.44-.2-.9-.31-1.34Z"/><path class="cls-3" d="M132.71,45.76l0,.1.09.28.08.28.08.3.09.28,0,.13-1.34.37c-.11-.45-.25-.89-.39-1.33Z"/><path class="cls-3" d="M131.78,43.06h0l.11.28.1.27.1.27.1.29.08.22-1.32.45c-.15-.44-.3-.87-.47-1.3Z"/><path class="cls-3" d="M130.69,40.43l.09.21.12.26.12.27.12.27.11.27v0l-1.29.52c-.18-.43-.35-.86-.54-1.28Z"/><path class="cls-3" d="M129.44,37.85l.09.17.13.26.13.26.13.25.12.26,0,.08-1.25.6c-.2-.41-.4-.82-.62-1.23Z"/><path class="cls-3" d="M128,35.37l.09.13.14.25.15.25.14.25.15.25.05.1-1.21.68c-.23-.4-.45-.8-.69-1.19Z"/><path class="cls-3" d="M126.49,33l.08.12.15.24.17.24.15.23.17.24.07.12-1.17.75c-.25-.39-.51-.77-.77-1.15Z"/><path class="cls-3" d="M124.79,30.67l.09.12.17.22.17.23.17.22.18.23.08.12-1.12.82c-.27-.37-.55-.74-.84-1.1Z"/><path class="cls-3" d="M123,28.49l.1.11.19.21.18.22.18.21.19.22.08.1-1.06.89c-.29-.35-.6-.7-.9-1Z"/><path class="cls-3" d="M121,26.41l.11.11.2.2.2.21.2.2.19.21.09.09-1,.95-1-1Z"/><path class="cls-3" d="M118.92,24.46l.13.12.21.19.21.19.21.19.21.19.08.08-1,1-1-.93Z"/><path class="cls-3" d="M116.72,22.64l.17.12.21.18.22.17.22.18.22.18.07.06-.89,1.06c-.35-.3-.71-.59-1.07-.87Z"/><path class="cls-3" d="M114.42,20.94l.19.13.23.17.24.16.22.16.23.17.06,0-.83,1.11-1.13-.8Z"/><path class="cls-3" d="M112,19.4l.21.13.24.14.24.16L113,20l.24.16,0,0-.77,1.17c-.38-.26-.77-.5-1.17-.74Z"/><path class="cls-3" d="M109.54,18l.24.11.24.14.26.14.25.13.24.14,0,0-.68,1.2c-.4-.23-.81-.45-1.22-.66Z"/><path class="cls-3" d="M107,16.74h0l.26.12.26.12.26.12.25.12.26.13h0l-.62,1.25c-.41-.2-.83-.4-1.26-.59Z"/><path class="cls-3" d="M104.33,15.65h0l.27.1.26.1.27.11.26.1.26.11-.53,1.28c-.43-.18-.87-.35-1.29-.51Z"/><path class="cls-3" d="M101.63,14.72h0l.28.09.27.08.27.09.28.1.26.09-.45,1.31c-.44-.16-.88-.3-1.32-.44Z"/><path class="cls-3" d="M98.89,14l.26.06.28.07.28.08.28.07.27.08-.37,1.34c-.45-.13-.89-.25-1.34-.36Z"/><path class="cls-3" d="M96.09,13.36l.25,0,.28.06.28,0,.28.06.29.06h0L97.19,15c-.44-.1-.9-.19-1.35-.27Z"/><path class="cls-3" d="M93.27,12.94l.19,0,.29,0,.3,0,.28,0,.29,0h.06l-.21,1.36-1.37-.18Z"/><path class="cls-3" d="M90.42,12.68h.13l.29,0,.3,0,.29,0,.3,0,.12,0-.12,1.38c-.47,0-.92-.08-1.39-.1Z"/><path class="cls-3" d="M87.57,12.6H89L89,14c-.47,0-.93,0-1.39,0Z"/><path class="cls-3" d="M84.72,12.7l.2,0,.3,0h.93l0,1.39-1.38.06Z"/><path class="cls-3" d="M81.87,13h0l.3,0,.3,0,.3,0,.3,0,.18,0,.12,1.38q-.69.06-1.38.15Z"/><path class="cls-4" d="M81.41,17.85a42.43,42.43,0,1,0,48.2,35.75,42.42,42.42,0,0,0-48.2-35.75Z"/><path class="cls-4" d="M65.65,84.68c.15,1.24.09,2.11-.3,2.51l.09.24c.82.44,3.27.41,6.6.09m21.83-3.61a96.47,96.47,0,0,0,12.81-3.32c-1.59-.53-6.06-2.18-4.34-3.24,10.66-6.61,6-14.54,1.11-19.36A36,36,0,0,1,99,52.23s-2.86.81-2.89.76l.3-.07-2.06-3.4,2.83,3.24c5.82-1.66,10.44-3.69,12-5.32-6.47.11-9-2.88-10.11-4.23-4.46-5.18-10.84-6.35-17-5.34a4.7,4.7,0,0,1-.24.87c-5.92.44-9.59,2-13.85,6.17-.11.11-.07.1-.21.17a3.31,3.31,0,0,0-.53-.3,14.69,14.69,0,0,0-4.12,5.29c-6,6-.32,22.13,1.85,31.12"/><path class="cls-4" d="M80.42,89.53c-5.45-.77-12.69-3.6-17.1-5.82-7.59-.47-2.93-5.37-1.36-4.13-.56-1.55.78-2.63,2.41,1.33,6.8,3.4,12,4,16.53,3.59a3.38,3.38,0,0,1,0-.47c.68.14,3.37-.66,3.8-1.33,0-.63,0-1.15,0-1.77a39.82,39.82,0,0,0,5.45-.21c0,.62-.07,1.29,0,1.93a7.7,7.7,0,0,0,3.84.67c0,.44.14.79.08,1.08,5.27.47,11.41.65,19.09-4.48,1.11-4.14,2.57-3.24,2.22-1.62,1.4-1.44,6.63,2.84-.82,4.26-4.93,3.32-14.23,7.15-19.8,7.37"/><path class="cls-4" d="M80.87,84a8.24,8.24,0,0,0,1.37-.17c.84,2.36,3.16,2.76,5.71,2.61s4.6-1.12,4.51-3.18a11.7,11.7,0,0,0,1.43,0A126.47,126.47,0,0,0,96.23,101c-2.91,1.19-13.35,1.22-17.59-.18C79.44,96,80.94,87,80.87,84Z"/><path class="cls-1" d="M90.21,93.74l-.07-1.43h-.7l.07,1.44Zm-.4-1.08-.35,0,0-.36h.35Zm0-.7-.71,0,0,.71.71,0Zm-.34.37,0,.35-.35,0,0-.36Zm-.7,0L88.92,96l.7,0-.19-3.67Zm.54,3.31h.33l0,.34h-.35Zm0,.71h.42v-.71h-.43Zm.42,0h-.33l0-.34h.35ZM89.35,96l.08,1.56h.7L90.05,96Zm.08,1.56,0-.35h.36l0,.35Zm.34-.36L87,97.31l0,.7,2.81-.08ZM87,97.31h.35l0,.35-.36,0Zm.37.34-.09-1.58-.69,0,.08,1.59Zm-.09-1.58,0,.37h-.38v-.35Zm-.35.36h.45v-.7h-.45Zm.1-.34,0-.36h.37v.34Zm.69,0-.19-3.69-.7,0,.2,3.69Zm-.51-3.33h-.36l0-.35h.36Zm0-.71-.72,0,0,.7.72,0Zm-.36.37,0,.35h-.34l0-.35Zm-.7,0,.09,1.44.69,0-.08-1.44Zm.09,1.44,0-.35h.34l0,.34Zm.32-.36-1.1,0,0,.71,1.1,0Zm-1.1,0h.35l0,.35H85.4Zm.37.34v-.1l-.7,0v.09Zm0-.1h0l-.36,0Zm0,0,0-.34H85l0,.36Zm0-.34,0-.35-.7,0,0,.34Zm0-.35V93L85,93v.12Zm0-.12v-.13l-.7,0V93Zm0-.13v-.15l-.7,0v.15Zm0-.15v-.17H85v.18Zm0-.17v-.2H85l0,.2Zm0-.2v-.23l-.71,0v.21Zm0-.23,0-.25-.69,0v.26Zm0-.25v-.28l-.7,0,0,.28Zm0-.28,0-.34-.7,0,0,.34Zm0-.34v-.16l-.7,0v.16Zm0-.16v-.22l-.7,0v.22Zm0-.22,0,.36h-.36v-.36Zm-.34.37L90.83,91l0-.71-5.58.17ZM90.83,91h-.34l0-.35h.35Zm-.36-.34.16,3,.7,0-.16-3Zm.16,3,0-.36.36,0,0,.36Zm.34-.38-1.12,0,0,.71,1.12,0Zm-1.12,0h.35v.35h-.34Z"/><path class="cls-4" d="M70.25,69.36c1.52-1.46,2.91-4.8,3.22-8.19,3-1.14,6.31-3.62,8.88-4.56l-.07-6.89c0-.86,2.82,4.3,3.42,6.32,4.23-.51,8-2.51,10.71-3.12l-2.06-3.4,2.83,3.24q1-.27,1.89-.57c2.91,5.12,7.93,9,9.05,12.41C113.69,81.42,78.56,85.18,71.56,76c-2.23,1.35-6.12.21-7.38-2.25-1.94-3.79,3.21-7.07,6.07-4.41Z"/><path class="cls-4" d="M68.55,63.18l-4.91-.28a.66.66,0,0,0-.68.61l-.06,1.1a.65.65,0,0,0,.61.68l4.88.27a2.15,2.15,0,1,0,.16-2.38Z"/><path class="cls-5" d="M70.32,63.05a1.44,1.44,0,1,0,1.37,1.5,1.43,1.43,0,0,0-1.37-1.5Z"/><polygon class="cls-6" points="70.31 63.31 69.99 64.2 69.08 64.42 69.97 64.74 70.19 65.65 70.51 64.77 71.42 64.54 70.54 64.22 70.31 63.31"/><path d="M92.94,69c-.06-.33-.61-.69-1.65-1.06a.35.35,0,0,1-.14-.13.25.25,0,0,1,0-.19.3.3,0,0,1,.13-.14.21.21,0,0,1,.19,0c1.3.47,2,1,2,1.46s-.49,1-1.73,1.46a.22.22,0,0,1-.19,0,.19.19,0,0,1-.12-.14.21.21,0,0,1,0-.19.22.22,0,0,1,.13-.12c.93-.33,1.4-.64,1.4-.93Z"/><path class="cls-4" d="M81.49,63.71a1.62,1.62,0,0,1,1.14-1.18A1.92,1.92,0,0,1,84.3,63,4,4,0,0,1,85.51,65a3.61,3.61,0,0,1,0,2.2,1.59,1.59,0,0,1-1.16,1.2,1.87,1.87,0,0,1-1.66-.51,3.88,3.88,0,0,1-1.22-1.93,3.66,3.66,0,0,1,0-2.22Z"/><path class="cls-1" d="M83.62,63.66a1.16,1.16,0,0,1,1,.31,2.47,2.47,0,0,1,.76,1.21,2.34,2.34,0,0,1,0,1.36,1,1,0,0,1-.7.75A1.22,1.22,0,0,1,83.66,67a2.31,2.31,0,0,1-.74-1.19,2.21,2.21,0,0,1,0-1.39,1,1,0,0,1,.73-.73Z"/><path class="cls-4" d="M95.48,59.84a1.11,1.11,0,0,1,1.15-.53,1.39,1.39,0,0,1,.88,1,4.14,4.14,0,0,1,.16,2A3.64,3.64,0,0,1,97,64.14a1.07,1.07,0,0,1-1.12.54,1.42,1.42,0,0,1-.9-1.05,4.09,4.09,0,0,1-.14-2,3.79,3.79,0,0,1,.66-1.8Z"/><path class="cls-1" d="M96.91,60.7a.68.68,0,0,0-.7.34,2.24,2.24,0,0,0-.41,1.09,2.43,2.43,0,0,0,.09,1.22c.12.38.3.61.55.67a.7.7,0,0,0,.71-.35,2.27,2.27,0,0,0,.42-1.09,2.44,2.44,0,0,0-.11-1.22.87.87,0,0,0-.55-.66Z"/><path class="cls-4" d="M75.18,27.82l2.7,4.11L83,28.8a1.39,1.39,0,0,1,2-1.89,1.48,1.48,0,0,1,.55,1.73,1.56,1.56,0,0,1-.57.72,1.6,1.6,0,0,1-1,.28l-.26,1.12c-.05.22-.08.38-.12.58L82.23,37a12.31,12.31,0,0,1-.41,1.71c-5.92.44-9.59,2-13.85,6.17-.11.11-.07.1-.21.17a5.8,5.8,0,0,0-.72-.4l-2.38-1.29a.46.46,0,0,1-.13-.08l-1.78-.94c-.33-.17-.68-.37-1-.56-.66-.37-1.37-.71-2-1.09-.3.26-.28.44-.82.63a1.43,1.43,0,0,1-.94,0,1.47,1.47,0,0,1-1-1.53,1.49,1.49,0,0,1,.15-.62,1.47,1.47,0,0,1,1-.73,1.31,1.31,0,0,1,.88.13,1.4,1.4,0,0,1,.68.73l5.44-1.48L63.85,33a1.31,1.31,0,0,1-1.47-.76,1.47,1.47,0,1,1,2.81-.72c0,.18,0,.34,0,.48.5.11,1.7.58,2.22.71.34.09,1.14.41,1.46.48s2,.74,2.25.75c.12-.27.21-.44.31-.7l2.08-5a1.53,1.53,0,0,1,.57-2.83,1.42,1.42,0,0,1,1.35,2.15c-.06.1-.22.23-.26.33Z"/><path class="cls-4" d="M83.74,26.64c1.85-.48,2.63,2.59.78,2.95s-2.56-2.48-.78-2.95Z"/><path class="cls-4" d="M65.18,31.09c.48,1.85-2.58,2.63-2.94.77s2.48-2.54,2.94-.77Z"/><path class="cls-4" d="M57.9,38.49c1.85-.47,2.64,2.58.77,2.95S56.13,39,57.9,38.49Z"/><path class="cls-7" d="M85.11,75.31A1.7,1.7,0,0,1,86,73.62"/><path class="cls-7" d="M99.8,72a1.72,1.72,0,0,0-.93-1.67"/><path class="cls-7" d="M99.45,71c-3.44,4.91-8.53,5.75-14.18,3.46"/><path class="cls-4" d="M75.56,26.27c.49,1.85-2.58,2.64-2.94.78s2.48-2.56,2.94-.78Z"/></svg>