<?xml version="1.0" encoding="utf-8"?>
<!-- Generator: Adobe Illustrator 23.0.1, SVG Export Plug-In . SVG Version: 6.00 Build 0)  -->
<svg version="1.1" xmlns="http://www.w3.org/2000/svg" xmlns:xlink="http://www.w3.org/1999/xlink" x="0px" y="0px"
	 viewBox="0 0 162 150" style="enable-background:new 0 0 162 150;" xml:space="preserve">
<style type="text/css">
	.st0{fill:#BCE0E0;}
	.st1{fill:#333333;stroke:#333333;stroke-width:3;stroke-miterlimit:10;}
	.st2{fill:none;stroke:#333333;stroke-width:7.841;stroke-miterlimit:10;}
	.st3{fill-rule:evenodd;clip-rule:evenodd;fill:#333333;stroke:#333333;stroke-miterlimit:10;}
	.st4{fill:none;stroke:#333333;stroke-width:4.682;stroke-miterlimit:10;}
	.st5{fill:none;stroke:#333333;stroke-width:2.436;stroke-miterlimit:10;}
	.st6{fill:#333333;stroke:#333333;stroke-miterlimit:10;}
	.st7{fill:#333333;stroke:#333333;stroke-width:2.436;stroke-miterlimit:10;}
	.st8{stroke:#333333;stroke-miterlimit:10;}
	.st9{fill:none;stroke:#333333;stroke-width:4;stroke-linecap:round;stroke-miterlimit:10;}
	.st10{fill:#FFFFFF;}
	.st11{fill:none;stroke:#FFFFFF;stroke-width:9;stroke-miterlimit:10;}
	.st12{fill-rule:evenodd;clip-rule:evenodd;fill:#FFFFFF;}
	.st13{fill:none;stroke:#FFFFFF;stroke-width:6;stroke-miterlimit:10;}
	.st14{fill:none;stroke:#FFFFFF;stroke-width:5;stroke-miterlimit:10;}
	.st15{fill:none;stroke:#FFFFFF;stroke-width:4;stroke-miterlimit:10;}
	.st16{fill:#A4DBDD;}
	.st17{fill:#837A5C;}
	.st18{fill:none;stroke:#837A5C;stroke-width:7;stroke-miterlimit:10;}
	.st19{fill-rule:evenodd;clip-rule:evenodd;fill:#837A5C;}
	.st20{fill:none;stroke:#837A5C;stroke-width:4;stroke-miterlimit:10;}
	.st21{fill:none;stroke:#837A5C;stroke-width:2.4;stroke-miterlimit:10;}
	.st22{fill-rule:evenodd;clip-rule:evenodd;fill:#BCE0E0;}
	.st23{fill:none;stroke:#FFFFFF;stroke-width:3;stroke-miterlimit:10;}
	.st24{fill:none;stroke:#FFFFFF;stroke-width:2;stroke-miterlimit:10;}
	.st25{fill:none;stroke:#FFFFFF;stroke-width:1.5;stroke-miterlimit:10;}
	.st26{fill:none;stroke:#FFFFFF;stroke-width:0.75;stroke-miterlimit:10;}
	.st27{fill:none;stroke:#000000;stroke-width:4;stroke-miterlimit:10;}
	.st28{fill-rule:evenodd;clip-rule:evenodd;}
	.st29{fill:none;stroke:#000000;stroke-width:2.7;stroke-miterlimit:10;}
	.st30{fill:none;stroke:#000000;stroke-width:2;stroke-miterlimit:10;}
	.st31{fill:none;stroke:#000000;stroke-width:0.75;stroke-miterlimit:10;}
	.st32{fill:none;stroke:#837A5C;stroke-width:3;stroke-miterlimit:10;}
	.st33{fill:none;stroke:#837A5C;stroke-width:2;stroke-miterlimit:10;}
	.st34{fill:none;stroke:#837A5C;stroke-width:1.5;stroke-miterlimit:10;}
	.st35{fill:none;stroke:#837A5C;stroke-width:0.75;stroke-miterlimit:10;}
	.st36{display:none;}
	.st37{display:inline;}
	.st38{fill:#333333;stroke:#333333;stroke-width:0.5;stroke-miterlimit:10;}
	.st39{fill:none;stroke:#333333;stroke-width:2;stroke-miterlimit:10;}
	.st40{fill-rule:evenodd;clip-rule:evenodd;fill:#333333;}
	.st41{fill:none;stroke:#333333;stroke-width:0.75;stroke-miterlimit:10;}
	.st42{fill:none;stroke:#333333;stroke-width:0.7;stroke-miterlimit:10;}
	.st43{fill:#333333;}
	.st44{fill:none;stroke:#333333;stroke-width:0.6;stroke-miterlimit:10;}
	.st45{font-family:'ShowcaseScript';}
	.st46{font-size:12px;}
	.st47{fill:#C7DDDC;}
	.st48{fill:none;stroke:#FFFFFF;stroke-width:0.1;stroke-miterlimit:10;}
	.st49{fill:none;stroke:#FFFFFF;stroke-width:0.08;stroke-miterlimit:10;}
	.st50{fill:#FAFFFF;}
	.st51{fill:#333333;stroke:#FFFFFF;stroke-width:0.08;stroke-miterlimit:10;}
	.st52{fill:none;stroke:#FFFFFF;stroke-width:0.08;stroke-linecap:round;stroke-miterlimit:10;}
	.st53{fill:#7ED7D5;}
	.st54{fill:none;stroke:#7ED7D5;stroke-width:0.5;stroke-miterlimit:10;}
	.st55{fill-rule:evenodd;clip-rule:evenodd;fill:#7ED7D5;}
	.st56{fill:none;stroke:#7ED7D5;stroke-width:0.25;stroke-miterlimit:10;}
	.st57{fill:none;stroke:#7ED7D5;stroke-width:0.2;stroke-miterlimit:10;}
	.st58{fill:none;stroke:#7ED7D5;stroke-width:0.1;stroke-miterlimit:10;}
	.st59{fill:none;stroke:#7ED7D5;stroke-width:0.2;stroke-linecap:round;stroke-miterlimit:10;}
	.st60{fill:#47C2C0;}
	.st61{fill:none;stroke:#FFFFFF;stroke-width:0.5;stroke-miterlimit:10;}
	.st62{fill:none;stroke:#FFFFFF;stroke-width:0.25;stroke-miterlimit:10;}
	.st63{fill:none;stroke:#FFFFFF;stroke-width:0.2;stroke-miterlimit:10;}
	.st64{fill:none;stroke:#FFFFFF;stroke-width:0.2;stroke-linecap:round;stroke-miterlimit:10;}
	.st65{fill:none;stroke:#FFFFFF;stroke-width:0.6;stroke-miterlimit:10;}
	.st66{fill:none;stroke:#FFFFFF;stroke-width:0.3;stroke-miterlimit:10;}
	.st67{fill:none;stroke:#FFFFFF;stroke-width:0.07;stroke-miterlimit:10;}
	.st68{fill:#BCE0E0;stroke:#FFFFFF;stroke-width:0.09;stroke-miterlimit:10;}
	.st69{fill:none;stroke:#FFFFFF;stroke-width:0.3;stroke-linecap:round;stroke-miterlimit:10;}
	.st70{fill:none;stroke:#837A5C;stroke-width:0.6;stroke-miterlimit:10;}
	.st71{fill:none;stroke:#837A5C;stroke-width:0.3;stroke-miterlimit:10;}
	.st72{fill:none;stroke:#837A5C;stroke-width:0.07;stroke-miterlimit:10;}
	.st73{fill:#837A5C;stroke:#837A5C;stroke-width:0.09;stroke-miterlimit:10;}
	.st74{fill:none;stroke:#837A5C;stroke-width:0.2;stroke-miterlimit:10;}
	.st75{fill:none;stroke:#837A5C;stroke-width:0.3;stroke-linecap:round;stroke-miterlimit:10;}
	.st76{fill:none;stroke:#837A5C;stroke-width:2.5;stroke-miterlimit:10;}
	.st77{fill:none;stroke:#837A5C;stroke-miterlimit:10;}
	.st78{fill:none;stroke:#837A5C;stroke-width:1.5;stroke-linecap:round;stroke-miterlimit:10;}
	.st79{fill:#FFFFFF;stroke:#FFFFFF;stroke-width:0.75;stroke-miterlimit:10;}
	.st80{fill:none;stroke:#FFFFFF;stroke-width:2.5;stroke-miterlimit:10;}
	.st81{fill:#FFFFFF;stroke:#FFFFFF;stroke-width:0.5;stroke-miterlimit:10;}
	.st82{fill:none;stroke:#000000;stroke-width:3;stroke-miterlimit:10;}
	.st83{fill:none;stroke:#000000;stroke-width:1.5;stroke-miterlimit:10;}
	.st84{fill:#837A5C;stroke:#837A5C;stroke-miterlimit:10;}
	.st85{stroke:#000000;stroke-width:0.9;stroke-miterlimit:10;}
	.st86{fill:none;stroke:#000000;stroke-width:1.8;stroke-linecap:round;stroke-miterlimit:10;}
	.st87{fill:#837A5C;stroke:#837A5C;stroke-width:0.9;stroke-miterlimit:10;}
	.st88{fill:none;stroke:#837A5C;stroke-width:1.8;stroke-linecap:round;stroke-miterlimit:10;}
	.st89{fill:#A2DEDF;}
	.st90{fill:none;stroke:#A2DEDF;stroke-width:0.5;stroke-miterlimit:10;}
	.st91{fill-rule:evenodd;clip-rule:evenodd;fill:#A2DEDF;}
	.st92{fill:none;stroke:#A2DEDF;stroke-width:0.1;stroke-miterlimit:10;}
	.st93{fill:#80B8C8;}
	.st94{fill:#FFFFFF;stroke:#FFFFFF;stroke-width:3;stroke-miterlimit:10;}
	.st95{display:inline;fill:none;stroke:#FFFFFF;stroke-width:7.841;stroke-miterlimit:10;}
	.st96{display:inline;fill-rule:evenodd;clip-rule:evenodd;fill:#FFFFFF;stroke:#FFFFFF;stroke-miterlimit:10;}
	.st97{display:inline;fill:none;stroke:#FFFFFF;stroke-width:4.682;stroke-miterlimit:10;}
	.st98{display:inline;fill:none;stroke:#FFFFFF;stroke-width:2.436;stroke-miterlimit:10;}
	.st99{display:inline;fill:#FFFFFF;stroke:#FFFFFF;stroke-miterlimit:10;}
	.st100{display:inline;stroke:#FFFFFF;stroke-width:2.436;stroke-miterlimit:10;}
	.st101{display:inline;fill:#FFFFFF;stroke:#FFFFFF;stroke-width:2.436;stroke-miterlimit:10;}
	.st102{display:inline;fill:none;stroke:#FFFFFF;stroke-width:4;stroke-linecap:round;stroke-miterlimit:10;}
</style>
<g id="Layer_1">
	<g>
		<path class="st39" d="M72.32,6.45c-32.34,4.8-54.66,34.9-49.87,67.24c4.8,32.34,34.9,54.66,67.24,49.86
			c32.34-4.79,54.66-34.9,49.86-67.23C134.75,23.98,104.65,1.66,72.32,6.45L72.32,6.45z"/>
		<g>
			<path class="st40" d="M71.31,10.98l0.23-0.04l0.35-0.05l0.35-0.06l0.35-0.05l0.35-0.05l0.24,1.6c-0.54,0.07-1.07,0.17-1.59,0.26
				L71.31,10.98z"/>
			<path class="st40" d="M68.07,11.67l0.05-0.01l0.34-0.08l0.34-0.07l0.34-0.08l0.35-0.07l0.2-0.04l0.33,1.59
				c-0.53,0.11-1.05,0.22-1.57,0.35L68.07,11.67z"/>
			<path class="st40" d="M64.87,12.54l0.23-0.06l0.33-0.11l0.34-0.1l0.33-0.1l0.34-0.08l0.03-0.01l0.41,1.56
				c-0.52,0.15-1.04,0.3-1.54,0.44L64.87,12.54z"/>
			<path class="st40" d="M61.73,13.6l0.13-0.04l0.32-0.12l0.32-0.12l0.33-0.12l0.32-0.11l0.15-0.05l0.52,1.52
				c-0.51,0.18-1.02,0.36-1.51,0.55L61.73,13.6z"/>
			<path class="st40" d="M58.65,14.86l0.05-0.02l0.31-0.14l0.32-0.13l0.31-0.14l0.32-0.13l0.22-0.1l0.61,1.49
				c-0.5,0.2-0.99,0.41-1.48,0.63L58.65,14.86z"/>
			<path class="st40" d="M55.66,16.31L55.66,16.31l0.31-0.16l0.3-0.15l0.3-0.16l0.31-0.15l0.29-0.14l0.7,1.46
				c-0.49,0.23-0.96,0.48-1.44,0.72L55.66,16.31z"/>
			<path class="st40" d="M52.77,17.93l0.25-0.16l0.29-0.17l0.3-0.17l0.29-0.16l0.3-0.17l0.02-0.01l0.78,1.41
				c-0.48,0.26-0.94,0.54-1.4,0.81L52.77,17.93z"/>
			<path class="st40" d="M49.98,19.72l0.23-0.16l0.28-0.18l0.28-0.19l0.28-0.18l0.29-0.18l0.04-0.03l0.86,1.36
				c-0.44,0.29-0.89,0.59-1.33,0.89L49.98,19.72z"/>
			<path class="st40" d="M47.3,21.67l0.21-0.16l0.26-0.2l0.26-0.2l0.26-0.2l0.28-0.2l0.04-0.03l0.95,1.3
				c-0.43,0.32-0.87,0.65-1.29,0.97L47.3,21.67z"/>
			<path class="st40" d="M44.75,23.8l0.2-0.19l0.25-0.21l0.25-0.22l0.25-0.21l0.25-0.21l0.04-0.03l1.02,1.24
				c-0.41,0.35-0.81,0.7-1.22,1.05L44.75,23.8z"/>
			<path class="st40" d="M42.33,26.06l0.2-0.21l0.24-0.23l0.23-0.22l0.24-0.23l0.23-0.22l0.03-0.03l1.1,1.18
				c-0.39,0.37-0.77,0.74-1.15,1.12L42.33,26.06z"/>
			<path class="st40" d="M40.04,28.48l0.21-0.24l0.22-0.24l0.22-0.24l0.22-0.23l0.23-0.24l0.01-0.02l1.16,1.11
				c-0.37,0.39-0.73,0.79-1.09,1.2L40.04,28.48z"/>
			<path class="st40" d="M37.91,31.03L37.92,31l0.21-0.25l0.2-0.26l0.21-0.25l0.21-0.25l0.2-0.24l1.24,1.04
				c-0.35,0.41-0.69,0.83-1.02,1.25L37.91,31.03z"/>
			<path class="st40" d="M35.93,33.69l0.03-0.04l0.19-0.28l0.19-0.26l0.19-0.26l0.19-0.26l0.18-0.24l1.29,0.96
				c-0.32,0.43-0.62,0.87-0.93,1.31L35.93,33.69z"/>
			<path class="st40" d="M34.12,36.46l0.04-0.06l0.17-0.28l0.18-0.28l0.17-0.29l0.18-0.28l0.15-0.22l1.35,0.88
				c-0.3,0.45-0.58,0.91-0.87,1.36L34.12,36.46z"/>
			<path class="st40" d="M32.48,39.35l0.04-0.08l0.16-0.29l0.16-0.3L33,38.4l0.16-0.29l0.13-0.21l1.4,0.79
				c-0.26,0.47-0.52,0.94-0.77,1.42L32.48,39.35z"/>
			<path class="st40" d="M31.02,42.32l0.04-0.1l0.14-0.31l0.15-0.3l0.14-0.3l0.15-0.3l0.1-0.2l1.45,0.71
				c-0.24,0.49-0.47,0.97-0.7,1.46L31.02,42.32z"/>
			<path class="st40" d="M29.74,45.39l0.04-0.12l0.12-0.31l0.13-0.31l0.12-0.31l0.13-0.31l0.08-0.2l1.48,0.62
				c-0.2,0.5-0.4,0.99-0.59,1.5L29.74,45.39z"/>
			<path class="st40" d="M28.64,48.52l0.04-0.12l0.1-0.32l0.11-0.32l0.11-0.31l0.11-0.32l0.07-0.2l1.52,0.54
				c-0.18,0.51-0.35,1.02-0.51,1.52L28.64,48.52z"/>
			<path class="st40" d="M27.74,51.72l0.02-0.11l0.08-0.32l0.08-0.33l0.08-0.32l0.1-0.33l0.05-0.21l1.56,0.44
				c-0.15,0.52-0.29,1.04-0.41,1.56L27.74,51.72z"/>
			<path class="st40" d="M27.03,54.97l0.01-0.07l0.06-0.33l0.06-0.33l0.07-0.33l0.06-0.33l0.05-0.24l1.58,0.34
				c-0.11,0.53-0.22,1.06-0.32,1.59L27.03,54.97z"/>
			<path class="st40" d="M26.53,58.24v-0.02l0.04-0.33l0.05-0.34l0.04-0.34l0.05-0.33l0.04-0.3l1.59,0.25
				c-0.07,0.53-0.15,1.06-0.21,1.6L26.53,58.24z"/>
			<path class="st40" d="M26.22,61.53l0.02-0.26l0.02-0.34l0.03-0.34l0.02-0.34l0.03-0.34v-0.03l1.61,0.16
				c-0.04,0.53-0.08,1.07-0.12,1.61L26.22,61.53z"/>
			<path class="st40" d="M26.11,64.86V64.7l0.01-0.34v-0.35l0.01-0.34l0.01-0.35V63.2l1.61,0.06c-0.01,0.53-0.02,1.07-0.02,1.61
				L26.11,64.86z"/>
			<path class="st40" d="M26.21,68.18v-0.01l-0.02-0.35l-0.01-0.35l-0.02-0.35l-0.01-0.35v-0.25l1.61-0.04
				c0.01,0.54,0.04,1.08,0.07,1.61L26.21,68.18z"/>
			<path class="st40" d="M26.5,71.48l-0.02-0.18l-0.03-0.35l-0.04-0.35l-0.03-0.35l-0.03-0.35l-0.01-0.07l1.61-0.14
				c0.04,0.54,0.11,1.07,0.17,1.61L26.5,71.48z"/>
			<path class="st40" d="M27,74.76l-0.06-0.31l-0.05-0.35l-0.06-0.35l-0.05-0.35l-0.04-0.28l1.6-0.23c0.07,0.53,0.17,1.06,0.26,1.59
				L27,74.76z"/>
			<path class="st40" d="M27.68,78l-0.02-0.12l-0.08-0.34l-0.07-0.34l-0.08-0.35l-0.07-0.34l-0.02-0.14l1.58-0.33
				c0.12,0.53,0.23,1.05,0.36,1.58L27.68,78z"/>
			<path class="st40" d="M28.56,81.2l-0.08-0.3l-0.11-0.34l-0.1-0.33l-0.1-0.33l-0.07-0.3l1.56-0.42c0.14,0.52,0.29,1.04,0.44,1.54
				L28.56,81.2z"/>
			<path class="st40" d="M29.64,84.34l-0.07-0.19l-0.12-0.32l-0.12-0.33l-0.12-0.32l-0.11-0.33l-0.03-0.07l1.52-0.52
				c0.18,0.51,0.36,1.02,0.55,1.51L29.64,84.34z"/>
			<path class="st40" d="M30.89,87.42l-0.05-0.12L30.7,87l-0.13-0.32l-0.14-0.31l-0.13-0.32l-0.07-0.16l1.5-0.61
				c0.2,0.5,0.41,0.99,0.62,1.48L30.89,87.42z"/>
			<path class="st40" d="M32.34,90.4l-0.03-0.06l-0.16-0.3L32,89.75l-0.16-0.31l-0.15-0.3l-0.11-0.22l1.46-0.7
				c0.23,0.49,0.48,0.96,0.72,1.44L32.34,90.4z"/>
			<path class="st40" d="M33.96,93.3l-0.01-0.03l-0.18-0.29l-0.17-0.3l-0.17-0.29l-0.16-0.29l-0.14-0.25l1.41-0.78
				c0.26,0.47,0.53,0.93,0.8,1.4L33.96,93.3z"/>
			<path class="st40" d="M35.76,96.09l-0.01-0.02l-0.19-0.28l-0.18-0.28l-0.19-0.28l-0.18-0.29l-0.17-0.25l1.36-0.87
				c0.29,0.45,0.58,0.9,0.89,1.33L35.76,96.09z"/>
			<path class="st40" d="M37.73,98.77l-0.01-0.02l-0.2-0.26l-0.2-0.26l-0.2-0.26l-0.2-0.26l-0.19-0.24l1.3-0.96
				c0.32,0.43,0.65,0.87,0.97,1.29L37.73,98.77z"/>
			<path class="st40" d="M39.85,101.32l-0.02-0.02l-0.22-0.25l-0.21-0.24l-0.22-0.25l-0.21-0.25l-0.19-0.23l1.24-1.03
				c0.34,0.41,0.69,0.81,1.05,1.22L39.85,101.32z"/>
			<path class="st40" d="M42.12,103.73l-0.03-0.03l-0.23-0.23l-0.23-0.23l-0.22-0.24l-0.23-0.23l-0.2-0.21l1.18-1.11
				c0.36,0.39,0.74,0.78,1.11,1.16L42.12,103.73z"/>
			<path class="st40" d="M44.53,106.02l-0.04-0.05l-0.25-0.21l-0.24-0.22l-0.24-0.22l-0.23-0.23l-0.2-0.18l1.1-1.17
				c0.39,0.37,0.79,0.73,1.2,1.09L44.53,106.02z"/>
			<path class="st40" d="M47.08,108.14L47,108.08l-0.25-0.2l-0.26-0.21l-0.25-0.2l-0.25-0.21l-0.19-0.16l1.04-1.24
				c0.41,0.35,0.84,0.69,1.25,1.02L47.08,108.14z"/>
			<path class="st40" d="M49.74,110.11l-0.1-0.06l-0.28-0.19l-0.26-0.19l-0.26-0.19l-0.26-0.2l-0.18-0.13l0.95-1.3
				c0.43,0.33,0.88,0.63,1.31,0.94L49.74,110.11z"/>
			<path class="st40" d="M52.53,111.92l-0.13-0.07l-0.28-0.18l-0.28-0.17l-0.29-0.18l-0.28-0.17l-0.17-0.12l0.89-1.34
				c0.44,0.29,0.9,0.57,1.36,0.86L52.53,111.92z"/>
			<path class="st40" d="M55.41,113.56l-0.15-0.08l-0.29-0.16l-0.3-0.15l-0.29-0.16l-0.29-0.17l-0.16-0.08l0.8-1.4
				c0.47,0.26,0.94,0.52,1.42,0.77L55.41,113.56z"/>
			<path class="st40" d="M58.4,115.02l-0.17-0.08l-0.31-0.14l-0.3-0.14l-0.3-0.14l-0.3-0.15l-0.14-0.06l0.71-1.45
				c0.49,0.23,0.97,0.47,1.46,0.69L58.4,115.02z"/>
			<path class="st40" d="M61.46,116.29l-0.18-0.06l-0.31-0.12l-0.31-0.13l-0.31-0.13l-0.31-0.13l-0.14-0.05l0.63-1.48
				c0.49,0.2,0.99,0.4,1.49,0.59L61.46,116.29z"/>
			<path class="st40" d="M64.59,117.38l-0.18-0.05l-0.32-0.11l-0.32-0.1l-0.31-0.11l-0.32-0.12l-0.14-0.04l0.54-1.52
				c0.51,0.18,1.02,0.35,1.53,0.51L64.59,117.38z"/>
			<path class="st40" d="M67.78,118.28l-0.17-0.04l-0.32-0.07l-0.33-0.08l-0.32-0.1l-0.33-0.08l-0.14-0.04l0.43-1.54
				c0.52,0.14,1.04,0.28,1.57,0.4L67.78,118.28z"/>
			<path class="st40" d="M71.03,118.99l-0.14-0.03l-0.33-0.06l-0.33-0.06l-0.33-0.06l-0.33-0.07l-0.18-0.03l0.35-1.58
				c0.53,0.11,1.05,0.22,1.58,0.32L71.03,118.99z"/>
			<path class="st40" d="M74.31,119.48l-0.08-0.01l-0.33-0.04l-0.34-0.04l-0.34-0.04l-0.33-0.05l-0.22-0.03l0.24-1.6
				c0.53,0.08,1.07,0.16,1.6,0.22L74.31,119.48z"/>
			<path class="st40" d="M77.62,119.79h-0.01l-0.34-0.02l-0.34-0.03l-0.34-0.02l-0.34-0.03l-0.29-0.02l0.15-1.61
				c0.53,0.05,1.07,0.08,1.6,0.13L77.62,119.79z"/>
			<path class="st40" d="M80.93,119.88H80.7h-0.34h-0.35l-0.34-0.01l-0.35-0.01h-0.05l0.06-1.61c0.53,0.01,1.07,0.02,1.61,0.02
				L80.93,119.88z"/>
			<path class="st40" d="M84.25,119.79h-0.08l-0.35,0.02l-0.35,0.02l-0.35,0.01l-0.35,0.01l-0.18,0.01l-0.04-1.62
				c0.54-0.01,1.07-0.04,1.61-0.07L84.25,119.79z"/>
			<path class="st40" d="M87.55,119.49l-0.25,0.02l-0.35,0.04l-0.35,0.04l-0.35,0.03l-0.34,0.03l-0.15-1.61
				c0.53-0.04,1.07-0.11,1.6-0.17L87.55,119.49z"/>
			<path class="st40" d="M90.84,119H90.8l-0.35,0.06l-0.35,0.06l-0.35,0.05l-0.35,0.05l-0.2,0.03l-0.24-1.59
				c0.54-0.08,1.07-0.17,1.59-0.26L90.84,119z"/>
			<path class="st40" d="M94.08,118.31l-0.19,0.04l-0.34,0.08l-0.34,0.07l-0.35,0.07l-0.34,0.07l-0.06,0.02l-0.33-1.59
				c0.53-0.12,1.05-0.23,1.57-0.36L94.08,118.31z"/>
			<path class="st40" d="M97.28,117.42l-0.05,0.01l-0.33,0.11l-0.34,0.1l-0.33,0.1l-0.33,0.1l-0.22,0.06l-0.42-1.56
				c0.52-0.15,1.03-0.3,1.54-0.45L97.28,117.42z"/>
			<path class="st40" d="M100.42,116.34l-0.26,0.11l-0.32,0.12l-0.33,0.12l-0.32,0.12l-0.33,0.11l-0.01,0.01l-0.52-1.53
				c0.52-0.18,1.02-0.36,1.52-0.55L100.42,116.34z"/>
			<path class="st40" d="M103.48,115.08l-0.18,0.07l-0.31,0.14l-0.32,0.14l-0.31,0.14l-0.32,0.13l-0.1,0.04l-0.61-1.5
				c0.5-0.2,0.99-0.41,1.48-0.62L103.48,115.08z"/>
			<path class="st40" d="M106.47,113.63l-0.13,0.06l-0.3,0.16l-0.3,0.15l-0.31,0.15l-0.3,0.15l-0.16,0.07l-0.7-1.45
				c0.49-0.23,0.96-0.48,1.44-0.73L106.47,113.63z"/>
			<path class="st40" d="M109.36,112l-0.1,0.05l-0.29,0.17l-0.3,0.17l-0.29,0.17l-0.29,0.17l-0.19,0.11l-0.78-1.41
				c0.47-0.26,0.93-0.54,1.39-0.81L109.36,112z"/>
			<path class="st40" d="M112.15,110.19l-0.07,0.06l-0.28,0.18l-0.28,0.19l-0.28,0.18l-0.29,0.19l-0.19,0.13l-0.88-1.36
				c0.45-0.29,0.9-0.59,1.34-0.89L112.15,110.19z"/>
			<path class="st40" d="M114.82,108.23l-0.07,0.06l-0.26,0.2l-0.26,0.2l-0.26,0.2l-0.26,0.2l-0.19,0.14l-0.95-1.3
				c0.43-0.32,0.86-0.63,1.28-0.97L114.82,108.23z"/>
			<path class="st40" d="M117.37,106.11l-0.07,0.06l-0.25,0.22l-0.24,0.21l-0.25,0.21l-0.25,0.22l-0.18,0.15l-1.03-1.24
				c0.41-0.35,0.81-0.7,1.22-1.06L117.37,106.11z"/>
			<path class="st40" d="M119.78,103.84l-0.08,0.07l-0.23,0.23l-0.23,0.23l-0.24,0.23l-0.23,0.22l-0.16,0.16l-1.11-1.18
				c0.39-0.36,0.78-0.74,1.16-1.11L119.78,103.84z"/>
			<path class="st40" d="M122.06,101.41l-0.1,0.11l-0.21,0.24l-0.22,0.24l-0.22,0.24l-0.23,0.24l-0.14,0.15l-1.16-1.11
				c0.37-0.39,0.73-0.78,1.08-1.18L122.06,101.41z"/>
			<path class="st40" d="M124.19,98.87L124.08,99l-0.2,0.25l-0.21,0.25l-0.2,0.25l-0.21,0.25l-0.12,0.14l-1.24-1.04
				c0.35-0.41,0.69-0.83,1.02-1.25L124.19,98.87z"/>
			<path class="st40" d="M126.15,96.2l-0.11,0.16l-0.19,0.26l-0.19,0.28l-0.19,0.26l-0.2,0.26l-0.08,0.12l-1.3-0.95
				c0.33-0.43,0.63-0.88,0.94-1.31L126.15,96.2z"/>
			<path class="st40" d="M127.95,93.42l-0.11,0.18l-0.18,0.29l-0.17,0.28l-0.18,0.28l-0.17,0.29l-0.07,0.11l-1.35-0.89
				c0.3-0.44,0.58-0.9,0.86-1.36L127.95,93.42z"/>
			<path class="st40" d="M129.59,90.53l-0.12,0.21l-0.16,0.29l-0.15,0.3l-0.16,0.29l-0.17,0.29l-0.04,0.08l-1.41-0.79
				c0.26-0.47,0.52-0.94,0.77-1.42L129.59,90.53z"/>
			<path class="st40" d="M131.04,87.55l-0.11,0.23l-0.14,0.3l-0.14,0.31l-0.14,0.3l-0.15,0.3l-0.03,0.07l-1.45-0.72
				c0.23-0.48,0.47-0.96,0.69-1.45L131.04,87.55z"/>
			<path class="st40" d="M132.32,84.48l-0.1,0.25l-0.12,0.31l-0.13,0.31l-0.13,0.31l-0.13,0.31l-0.02,0.06l-1.49-0.62
				c0.21-0.5,0.4-0.99,0.59-1.5L132.32,84.48z"/>
			<path class="st40" d="M133.4,81.35l-0.07,0.24l-0.11,0.32l-0.1,0.32l-0.11,0.32l-0.12,0.32l-0.02,0.06l-1.52-0.54
				c0.18-0.51,0.35-1.02,0.51-1.52L133.4,81.35z"/>
			<path class="st40" d="M134.3,78.15l-0.06,0.23l-0.07,0.33l-0.08,0.32l-0.1,0.33l-0.08,0.32l-0.02,0.07l-1.56-0.43
				c0.15-0.52,0.29-1.04,0.41-1.57L134.3,78.15z"/>
			<path class="st40" d="M135,74.91l-0.04,0.21l-0.06,0.33l-0.06,0.33l-0.06,0.33l-0.07,0.33l-0.02,0.11l-1.58-0.35
				c0.12-0.53,0.22-1.05,0.32-1.58L135,74.91z"/>
			<path class="st40" d="M135.49,71.62l-0.02,0.16l-0.04,0.34l-0.04,0.34l-0.04,0.33l-0.05,0.34l-0.02,0.15l-1.6-0.24
				c0.08-0.53,0.15-1.07,0.22-1.6L135.49,71.62z"/>
			<path class="st40" d="M135.79,68.32v0.07l-0.02,0.34l-0.03,0.35l-0.02,0.34l-0.03,0.34l-0.02,0.21l-1.6-0.15
				c0.04-0.53,0.08-1.07,0.12-1.61L135.79,68.32z"/>
			<path class="st40" d="M135.88,65v0.31v0.34V66l-0.01,0.34l-0.01,0.32l-1.61-0.05c0.01-0.53,0.02-1.07,0.02-1.61L135.88,65z"/>
			<path class="st40" d="M135.78,61.68l0.01,0.16l0.02,0.35l0.02,0.35l0.01,0.35l0.01,0.34l0.01,0.12l-1.62,0.04
				c-0.01-0.54-0.04-1.07-0.07-1.61L135.78,61.68z"/>
			<path class="st40" d="M135.48,58.38l0.03,0.32l0.04,0.35l0.04,0.35l0.03,0.35l0.02,0.28l-1.6,0.15c-0.05-0.53-0.11-1.07-0.17-1.6
				L135.48,58.38z"/>
			<path class="st40" d="M134.98,55.09L135,55.2l0.06,0.35l0.06,0.35l0.05,0.35l0.05,0.35l0.02,0.14l-1.59,0.24
				c-0.08-0.54-0.18-1.07-0.28-1.59L134.98,55.09z"/>
			<path class="st40" d="M134.29,51.86l0.06,0.26l0.08,0.34l0.07,0.34l0.07,0.34l0.07,0.33l-1.58,0.34
				c-0.12-0.52-0.23-1.05-0.36-1.57L134.29,51.86z"/>
			<path class="st40" d="M133.4,48.66l0.03,0.12l0.11,0.33l0.1,0.33l0.1,0.34l0.1,0.33l0.04,0.15l-1.56,0.43
				c-0.14-0.52-0.3-1.04-0.45-1.54L133.4,48.66z"/>
			<path class="st40" d="M132.32,45.52v0.01l0.13,0.33l0.12,0.32l0.12,0.32l0.12,0.33l0.08,0.25l-1.52,0.53
				c-0.18-0.51-0.36-1.02-0.55-1.51L132.32,45.52z"/>
			<path class="st40" d="M131.05,42.46l0.11,0.24l0.14,0.31l0.14,0.32l0.14,0.31l0.13,0.32l0.01,0.03l-1.49,0.6
				c-0.21-0.5-0.41-0.99-0.63-1.48L131.05,42.46z"/>
			<path class="st40" d="M129.6,39.47l0.1,0.19l0.16,0.31l0.15,0.3l0.15,0.3l0.15,0.31l0.04,0.08l-1.45,0.7
				c-0.23-0.48-0.48-0.95-0.73-1.43L129.6,39.47z"/>
			<path class="st40" d="M127.96,36.58l0.1,0.16l0.17,0.29l0.17,0.29l0.17,0.3l0.17,0.29l0.06,0.12l-1.41,0.79
				c-0.26-0.47-0.53-0.93-0.8-1.39L127.96,36.58z"/>
			<path class="st40" d="M126.16,33.8l0.1,0.14l0.18,0.28l0.19,0.28l0.18,0.28l0.19,0.28l0.08,0.14l-1.35,0.88
				c-0.3-0.45-0.59-0.9-0.9-1.34L126.16,33.8z"/>
			<path class="st40" d="M124.19,31.12l0.11,0.14l0.2,0.25l0.2,0.26l0.2,0.26l0.2,0.26l0.1,0.14l-1.3,0.95
				c-0.32-0.43-0.65-0.86-0.97-1.28L124.19,31.12z"/>
			<path class="st40" d="M122.06,28.58l0.12,0.13l0.22,0.24l0.21,0.25l0.21,0.25l0.22,0.25l0.1,0.12l-1.24,1.04
				c-0.34-0.41-0.7-0.81-1.05-1.22L122.06,28.58z"/>
			<path class="st40" d="M119.78,26.17l0.13,0.13l0.23,0.23l0.23,0.24l0.23,0.23l0.22,0.24l0.11,0.11l-1.17,1.1
				c-0.37-0.39-0.74-0.77-1.12-1.15L119.78,26.17z"/>
			<path class="st40" d="M117.36,23.9l0.16,0.14l0.24,0.22l0.24,0.22l0.24,0.22l0.24,0.22l0.1,0.1l-1.11,1.16
				c-0.39-0.36-0.78-0.72-1.18-1.08L117.36,23.9z"/>
			<path class="st40" d="M114.81,21.78l0.19,0.14l0.25,0.21l0.25,0.2l0.25,0.21l0.25,0.21l0.08,0.06l-1.04,1.24
				c-0.41-0.35-0.83-0.69-1.25-1.02L114.81,21.78z"/>
			<path class="st40" d="M112.14,19.81l0.22,0.15l0.26,0.19l0.28,0.19l0.26,0.19l0.26,0.19l0.06,0.05l-0.96,1.29
				c-0.43-0.32-0.87-0.62-1.31-0.93L112.14,19.81z"/>
			<path class="st40" d="M109.35,18.01l0.24,0.15l0.29,0.17l0.28,0.18l0.28,0.17l0.29,0.18l0.04,0.03l-0.89,1.35
				c-0.44-0.3-0.9-0.58-1.36-0.86L109.35,18.01z"/>
			<path class="st40" d="M106.47,16.39l0.28,0.14l0.29,0.16l0.3,0.16l0.29,0.16l0.29,0.16l0.02,0.02l-0.79,1.4
				c-0.47-0.26-0.94-0.52-1.42-0.76L106.47,16.39z"/>
			<path class="st40" d="M103.47,14.93L103.47,14.93l0.31,0.14l0.3,0.14l0.31,0.15l0.3,0.14l0.3,0.15h0.01l-0.72,1.45
				c-0.48-0.23-0.96-0.47-1.46-0.69L103.47,14.93z"/>
			<path class="st40" d="M100.4,13.66l0.01,0.01l0.32,0.12l0.31,0.12l0.31,0.13l0.31,0.12l0.3,0.13l-0.61,1.49
				c-0.5-0.21-1-0.4-1.5-0.59L100.4,13.66z"/>
			<path class="st40" d="M97.26,12.58h0.01l0.32,0.11l0.32,0.1l0.32,0.11l0.32,0.11l0.31,0.11l-0.53,1.52
				c-0.51-0.18-1.02-0.35-1.53-0.51L97.26,12.58z"/>
			<path class="st40" d="M94.08,11.69l0.31,0.07l0.33,0.08l0.32,0.08l0.33,0.08l0.32,0.1l-0.43,1.56c-0.52-0.15-1.04-0.29-1.56-0.41
				L94.08,11.69z"/>
			<path class="st40" d="M90.83,11l0.29,0.04l0.33,0.06l0.33,0.06l0.33,0.07l0.33,0.06l0.03,0.01l-0.35,1.58
				c-0.52-0.12-1.05-0.22-1.58-0.32L90.83,11z"/>
			<path class="st40" d="M87.55,10.5l0.22,0.02l0.34,0.04l0.34,0.05l0.33,0.04l0.34,0.05l0.07,0.01l-0.24,1.59
				c-0.53-0.07-1.06-0.15-1.6-0.21L87.55,10.5z"/>
			<path class="st40" d="M84.24,10.21l0.15,0.01l0.34,0.02l0.35,0.02l0.34,0.03l0.34,0.02l0.15,0.02l-0.15,1.6
				c-0.54-0.04-1.07-0.08-1.61-0.12L84.24,10.21z"/>
			<path class="st40" d="M80.92,10.11h0.04h0.35l0.34,0.01H82l0.34,0.01h0.24l-0.04,1.62c-0.54-0.02-1.08-0.02-1.62-0.02V10.11z"/>
			<path class="st40" d="M77.61,10.23l0.23-0.02l0.35-0.02l0.35-0.01l0.35-0.02l0.34-0.01h0.04l0.04,1.62
				c-0.53,0.01-1.07,0.04-1.61,0.07L77.61,10.23z"/>
			<path class="st40" d="M74.3,10.54l0.05-0.01l0.35-0.04l0.35-0.03l0.35-0.04l0.35-0.03l0.21-0.02l0.14,1.61
				c-0.53,0.04-1.07,0.11-1.6,0.17L74.3,10.54z"/>
		</g>
		<path class="st41" d="M73.77,16.22c-26.95,4-45.55,29.08-41.55,56.02s29.08,45.55,56.02,41.55s45.55-29.08,41.55-56.02
			C125.79,30.81,100.71,12.22,73.77,16.22L73.77,16.22z"/>
		<path class="st42" d="M55.45,93.9c0.17,1.44,0.1,2.45-0.35,2.92c0.03,0.08,0.06,0.18,0.1,0.28c0.96,0.51,3.81,0.48,7.68,0.11
			 M87.78,93.19c6.88-1.33,12.71-2.7,14.95-3.59c-1.83-0.66-7-2.66-4.98-3.86c12.53-7.46,7.26-16.77,1.68-22.47
			c-2.75-2.82-4.4-5.92-5.04-6.79c-0.03-0.06-3.35,0.88-3.38,0.83c0.12-0.03,0.23-0.06,0.35-0.08l-2.32-4l3.22,3.82
			c6.79-1.81,12.21-4.07,14.05-5.93c-7.52,0-10.35-3.53-11.66-5.12c-5.08-6.11-12.47-7.6-19.66-6.55c-0.13,0.5-0.25,0.98-0.3,1.01
			c-6.88,0.39-11.18,2.14-16.22,6.89c-0.12,0.12-0.08,0.12-0.24,0.19c-0.1-0.1-0.39-0.24-0.62-0.36c-2.32,1.95-4.05,4.04-4.89,6.07
			c-7.15,6.81-0.83,25.71,1.52,36.2"/>
		<path class="st42" d="M72.62,99.54c-6.34-0.9-14.76-4.19-19.89-6.77c-8.81-0.54-3.4-6.24-1.58-4.79c-0.65-1.81,0.91-3.07,2.8,1.54
			c7.9,3.95,14.01,4.61,19.21,4.17c-0.02-0.17-0.03-0.34-0.03-0.55c0.79,0.17,3.92-0.76,4.42-1.54c-0.02-0.73-0.04-1.33-0.03-2.05
			c0.3,0.12,6.33-0.08,6.34-0.24c-0.03,0.72-0.07,1.5-0.05,2.24c0.97,0.51,2.92,0.95,4.46,0.78c-0.06,0.51,0.16,0.91,0.09,1.25
			c6.12,0.55,13.27,0.76,22.19-5.2c1.29-4.81,2.99-3.77,2.58-1.88c1.63-1.67,7.71,3.3-0.95,4.95c-5.72,3.86-16.53,8.31-23.01,8.57"
			/>
		<path class="st42" d="M73.13,93.13c0.39-0.03,1.08-0.05,1.6-0.19c0.97,2.74,3.67,3.21,6.63,3.03c2.99-0.19,5.35-1.3,5.25-3.69
			c0.5,0.07,1.23,0.04,1.66,0.05c0.1,4.54,1.52,15.08,2.72,20.54c-3.39,1.39-15.52,1.42-20.45-0.2
			C71.47,107.07,73.22,96.62,73.13,93.13L73.13,93.13z"/>
		<path class="st43" d="M84,104.44l-0.08-1.67l-0.81,0.02l0.08,1.67L84,104.44z M83.53,103.18l-0.41,0.02l-0.02-0.41l0.4-0.01
			L83.53,103.18z M83.48,102.37l-0.83,0.03l0.05,0.83l0.83-0.04L83.48,102.37z M83.09,102.8l0.02,0.4l-0.4,0.02l-0.03-0.41
			L83.09,102.8z M82.27,102.82l0.22,4.26l0.81-0.02l-0.22-4.26L82.27,102.82z M82.9,106.66l0.39,0.01l0.02,0.39l-0.41,0.01V106.66z
			 M82.91,107.49l0.5,0.01l-0.01-0.83l-0.5-0.01L82.91,107.49z M83.41,107.5l-0.39-0.01l-0.02-0.39l0.41-0.01V107.5z M82.99,107.1
			l0.1,1.82l0.81-0.02l-0.1-1.82L82.99,107.1z M83.09,108.91l-0.02-0.41l0.41-0.01l0.02,0.41L83.09,108.91z M83.48,108.49l-3.27,0.1
			l0.04,0.81l3.27-0.1L83.48,108.49z M80.21,108.59l0.41-0.01l0.02,0.4L80.23,109L80.21,108.59z M80.64,108.98l-0.11-1.83l-0.8,0.02
			l0.1,1.84L80.64,108.98z M80.54,107.15l0.03,0.42l-0.43-0.01v-0.4L80.54,107.15z M80.14,107.56l0.52,0.01v-0.81l-0.52-0.01V107.56
			z M80.25,107.17l-0.03-0.42l0.43,0.01v0.4L80.25,107.17z M81.06,107.15l-0.22-4.29l-0.81,0.02l0.23,4.29L81.06,107.15z
			 M80.45,103.28l-0.41,0.01l-0.02-0.41l0.41-0.01L80.45,103.28z M80.41,102.45l-0.84,0.03l0.04,0.81l0.84-0.02L80.41,102.45z
			 M80,102.87l0.02,0.41l-0.4,0.01l-0.02-0.41L80,102.87z M79.18,102.9l0.1,1.68l0.8-0.03L80,102.87L79.18,102.9z M79.28,104.58
			l-0.02-0.41l0.4-0.01l0.02,0.4L79.28,104.58z M79.66,104.15l-1.28,0.03l0.04,0.83l1.28-0.04L79.66,104.15z M78.38,104.19l0.4-0.01
			l0.02,0.41l-0.4,0.01L78.38,104.19z M78.8,104.59v-0.12l-0.81,0.03v0.11L78.8,104.59z M78.8,104.47L78.8,104.47l-0.41,0.02
			L78.8,104.47z M78.8,104.47l-0.02-0.4l-0.81,0.02l0.02,0.41L78.8,104.47z M78.78,104.07l-0.02-0.4l-0.81,0.02l0.02,0.4
			L78.78,104.07z M78.76,103.67l-0.01-0.14l-0.81,0.02l0.01,0.14L78.76,103.67z M78.75,103.53l-0.01-0.16l-0.81,0.03l0.01,0.15
			L78.75,103.53z M78.74,103.37l-0.01-0.17l-0.81,0.02l0.01,0.18L78.74,103.37z M78.73,103.2l-0.01-0.2l-0.8,0.02v0.2L78.73,103.2z
			 M78.72,103l-0.01-0.23l-0.81,0.02l0.02,0.23L78.72,103z M78.71,102.77l-0.01-0.26l-0.81,0.03l0.01,0.25L78.71,102.77z
			 M78.7,102.5l-0.02-0.29l-0.8,0.02l0.01,0.3L78.7,102.5z M78.68,102.22l-0.01-0.33l-0.81,0.02l0.02,0.33L78.68,102.22z
			 M78.67,101.89l-0.02-0.39l-0.81,0.02l0.02,0.39L78.67,101.89z M78.64,101.5l-0.01-0.19l-0.81,0.02l0.01,0.19L78.64,101.5z
			 M78.63,101.31l-0.01-0.25l-0.81,0.02l0.01,0.25L78.63,101.31z M78.62,101.06l0.02,0.41l-0.41,0.01l-0.02-0.41L78.62,101.06z
			 M78.23,101.48l6.48-0.19l-0.04-0.83l-6.48,0.19L78.23,101.48z M84.72,101.29l-0.4,0.01l-0.02-0.41l0.4-0.01L84.72,101.29z
			 M84.29,100.89l0.19,3.54l0.81-0.03l-0.19-3.53L84.29,100.89z M84.48,104.43l-0.02-0.41l0.41-0.02l0.02,0.41L84.48,104.43z
			 M84.88,104l-1.3,0.04l0.04,0.83l1.3-0.04L84.88,104z M83.57,104.04l0.4-0.01l0.02,0.41l-0.4,0.01L83.57,104.04z"/>
		<path class="st44" d="M60.62,75.79c1.8-1.66,3.48-5.51,3.91-9.45c3.52-1.26,7.4-4.07,10.42-5.12L75,53.21
			c0.01-0.99,3.19,5.06,3.85,7.42c4.93-0.51,9.41-2.76,12.51-3.41l-2.32-4l3.22,3.82c0.75-0.2,1.49-0.41,2.2-0.62
			c3.28,6,9.04,10.66,10.27,14.6C110.86,90.7,69.95,94.36,62,83.56c-2.62,1.53-7.12,0.12-8.53-2.76
			C51.3,76.35,57.35,72.65,60.62,75.79L60.62,75.79z"/>
		<path class="st44" d="M58.81,68.91l-5.7-0.32c-0.41-0.02-0.77,0.3-0.79,0.71l-0.07,1.27c-0.02,0.41,0.3,0.77,0.71,0.79l5.68,0.32
			c0.41,0.71,1.16,1.2,2.04,1.24c1.38,0.06,2.55-0.99,2.61-2.37c0.06-1.38-0.99-2.55-2.37-2.61C60.07,67.89,59.3,68.28,58.81,68.91
			L58.81,68.91z"/>
		<path class="st44" d="M60.87,68.76c-0.92-0.04-1.7,0.67-1.75,1.59c-0.04,0.92,0.67,1.7,1.59,1.75c0.92,0.04,1.7-0.67,1.75-1.59
			C62.5,69.58,61.79,68.8,60.87,68.76L60.87,68.76z"/>
		<polygon class="st43" points="60.86,69.07 60.49,70.09 59.43,70.36 60.46,70.73 60.73,71.78 61.1,70.76 62.15,70.49 61.13,70.12 
					"/>
		<path d="M87.17,75.62c-0.07-0.38-0.71-0.79-1.93-1.23c-0.06-0.04-0.13-0.08-0.16-0.15c-0.03-0.08-0.04-0.16-0.01-0.22
			c0.03-0.07,0.08-0.14,0.15-0.17c0.07-0.03,0.15-0.03,0.22,0c1.51,0.55,2.28,1.13,2.31,1.7c0.11,0.61-0.57,1.17-2.02,1.69
			c-0.06,0.02-0.14,0.02-0.21-0.02c-0.07-0.02-0.12-0.08-0.15-0.16c-0.03-0.07-0.02-0.15,0.01-0.22c0.03-0.06,0.08-0.12,0.16-0.14
			C86.62,76.32,87.16,75.96,87.17,75.62L87.17,75.62z"/>
		<path class="st42" d="M73.85,69.53c0.25-0.76,0.69-1.22,1.32-1.38c0.63-0.15,1.28,0.05,1.95,0.59c0.66,0.55,1.12,1.3,1.41,2.24
			c0.29,0.95,0.31,1.8,0.05,2.56c-0.25,0.78-0.71,1.25-1.34,1.4c-0.63,0.15-1.27-0.05-1.93-0.6c-0.67-0.54-1.13-1.28-1.42-2.23
			S73.6,70.31,73.85,69.53L73.85,69.53z"/>
		<path class="st43" d="M76.33,69.47c0.39-0.1,0.8,0.02,1.21,0.36c0.41,0.35,0.7,0.81,0.88,1.41c0.16,0.58,0.18,1.12,0.02,1.59
			c-0.15,0.49-0.42,0.77-0.81,0.87c-0.4,0.1-0.81-0.02-1.24-0.37c-0.4-0.34-0.71-0.8-0.87-1.39c-0.18-0.58-0.19-1.12-0.03-1.62
			C75.66,69.84,75.94,69.56,76.33,69.47L76.33,69.47z"/>
		<path class="st42" d="M90.12,65.03c0.42-0.53,0.87-0.73,1.33-0.61c0.45,0.12,0.8,0.52,1.03,1.21c0.24,0.69,0.31,1.47,0.18,2.34
			c-0.12,0.87-0.39,1.54-0.79,2.07c-0.41,0.53-0.85,0.74-1.31,0.62c-0.47-0.12-0.8-0.53-1.05-1.22c-0.24-0.7-0.29-1.46-0.16-2.32
			C89.48,66.24,89.72,65.54,90.12,65.03L90.12,65.03z"/>
		<path class="st43" d="M91.78,66.03c-0.29-0.07-0.56,0.05-0.81,0.39c-0.25,0.32-0.4,0.74-0.48,1.27c-0.08,0.53-0.05,1.02,0.11,1.42
			c0.14,0.44,0.35,0.71,0.63,0.78c0.29,0.06,0.57-0.07,0.83-0.41c0.24-0.31,0.41-0.73,0.49-1.27c0.08-0.53,0.03-0.99-0.13-1.42
			C92.28,66.35,92.07,66.1,91.78,66.03L91.78,66.03z"/>
		<path class="st42" d="M66.52,27.8l3.14,4.78l5.93-3.64c-0.98-1.75,1.03-3.18,2.31-2.2c0.73,0.56,0.87,1.33,0.63,2.02
			c-0.08,0.24-0.34,0.62-0.66,0.84c-0.44,0.31-0.74,0.3-1.22,0.32l-0.3,1.31c-0.06,0.25-0.1,0.43-0.15,0.67l-1.5,6.62
			c-0.04,0.21-0.39,1.94-0.49,1.99c-6.88,0.51-11.14,2.34-16.1,7.17c-0.12,0.13-0.07,0.12-0.23,0.19c-0.15-0.13-0.61-0.34-0.85-0.47
			l-2.76-1.49c-0.06-0.03-0.1-0.05-0.16-0.1l-2.06-1.1c-0.38-0.19-0.79-0.42-1.18-0.65c-0.77-0.43-1.6-0.83-2.34-1.27
			c-0.35,0.31-0.33,0.51-0.95,0.73c-0.39,0.14-0.79,0.1-1.09-0.01c-0.73-0.26-1.12-0.86-1.12-1.78c-0.01-0.2,0.08-0.54,0.18-0.72
			c0.2-0.41,0.66-0.76,1.15-0.85c0.44-0.08,0.73,0.01,1.03,0.15c0.36,0.15,0.56,0.42,0.79,0.85l6.33-1.71l-1.51-5.69
			c-0.7,0.19-1.42-0.25-1.71-0.88c-0.52-1.1,0.28-2.22,1.42-2.36c0.93-0.11,1.76,0.59,1.85,1.52c0.03,0.2-0.01,0.39,0.01,0.55
			c0.58,0.13,1.98,0.68,2.58,0.83c0.4,0.11,1.32,0.48,1.7,0.56c0.21,0.05,2.37,0.86,2.61,0.88c0.14-0.32,0.24-0.52,0.36-0.81
			l2.41-5.84c-1.54-1.13-0.81-3.12,0.67-3.29c1.27-0.14,2.3,1.27,1.57,2.5C66.75,27.54,66.56,27.69,66.52,27.8L66.52,27.8z"/>
		<path class="st42" d="M76.48,26.44c2.15-0.56,3.06,3,0.9,3.43C75.37,30.25,74.4,26.97,76.48,26.44L76.48,26.44z"/>
		<path class="st42" d="M54.9,31.61c0.56,2.15-3,3.06-3.42,0.9C51.08,30.5,54.36,29.55,54.9,31.61L54.9,31.61z"/>
		<path class="st42" d="M46.43,40.21c2.15-0.55,3.07,3,0.9,3.43C45.32,44.03,44.37,40.75,46.43,40.21L46.43,40.21z"/>
		<path class="st42" d="M78.06,83.01c-0.12-0.75,0.28-1.47,1.06-1.97"/>
		<path class="st42" d="M95.14,79.19c0.11-0.75-0.3-1.46-1.08-1.95"/>
		<path class="st42" d="M94.73,78.03c-4,5.7-9.92,6.69-16.48,4.02"/>
		<path class="st42" d="M66.97,26c0.56,2.15-3,3.07-3.43,0.91C63.15,24.9,66.43,23.94,66.97,26L66.97,26z"/>
	</g>
	<g>
		<g>
			<path class="st6" d="M1.28,140.29c-0.16,0-0.31-0.11-0.31-0.3c0-0.11,0.11-0.28,0.11-0.28c0.82-1.33,0.94-1.77,1.62-1.77
				c0.8,0,1.08,0.67,1.37,3.53c0.64-1.58,1.85-3.12,3.17-3.12c1.19,0,1.32,1.21,1.43,2.53c0.09,1.16,0.2,2.29,1.6,2.29
				c2.07,0,3.73-2.02,4.63-3.45c0,0,0.11-0.17,0.28-0.17c0.17,0,0.3,0.11,0.3,0.25c0,0.16-0.13,0.38-0.13,0.38
				c-0.99,1.52-2.79,3.62-5.08,3.62c-1.87,0-2.12-1.49-2.23-2.82c-0.09-1.05-0.11-1.99-0.82-1.99c-1.47,0-2.97,2.82-2.97,4.49
				c0,0.17-0.14,0.31-0.31,0.31c-0.17,0-0.31-0.14-0.31-0.3c0-4.3-0.63-4.91-0.93-4.91c-0.39,0-0.61,0.8-1.16,1.6
				C1.5,140.21,1.42,140.29,1.28,140.29z"/>
			<path class="st6" d="M15.35,140.16c-0.05,0.08-0.14,0.13-0.24,0.13c-0.17,0-0.33-0.13-0.33-0.28c0-0.13,0.11-0.3,0.11-0.3
				l0.72-1.19c0.06-0.09,0.13-0.19,0.3-0.19c0.19,0,0.31,0.14,0.31,0.27c0,1.79,0.22,4.57,2.17,4.57c2.09,0,3.73-2.02,4.63-3.45
				c0,0,0.09-0.17,0.28-0.17c0.17,0,0.3,0.11,0.3,0.25c0,0.16-0.13,0.38-0.13,0.38c-0.99,1.52-2.79,3.62-5.08,3.62
				c-2.09,0-2.64-2.2-2.76-4.09L15.35,140.16z M16.35,135.52c0.36,0,0.47,0.25,0.47,0.63c0,0.5-0.25,0.78-0.53,0.78
				c-0.36,0-0.47-0.27-0.47-0.64C15.82,135.91,15.99,135.52,16.35,135.52z"/>
			<path class="st6" d="M34.1,139.53c0.17,0,0.3,0.11,0.3,0.25c0,0.16-0.13,0.38-0.13,0.38c-0.99,1.52-2.79,3.62-5.08,3.62
				c-1.05,0-1.65-0.71-2.01-1.68c-0.64,1.04-1.43,1.68-2.34,1.68c-1.29,0-2.2-0.75-2.2-2.42c0-1.48,0.83-3.03,2.4-3.03
				c0.71,0,1.25,0.2,1.66,0.57v-0.42c0-3.36,0.71-7.11,1.82-7.11c0.58,0,0.83,0.53,0.83,1.52c0,2.67-0.63,6.17-1.76,8.46
				c0.24,1.02,0.71,1.81,1.59,1.81c2.09,0,3.73-2.02,4.63-3.45C33.82,139.71,33.94,139.53,34.1,139.53z M24.84,143.16
				c0.78,0,1.49-0.78,2.09-1.98c-0.05-0.25-0.09-0.5-0.13-0.77c-0.17-0.88-0.74-1.44-1.76-1.44c-1.15,0-1.77,1.24-1.77,2.4
				C23.28,142.59,23.92,143.16,24.84,143.16z M27.34,138.48c0,0.49,0,1.05,0.06,1.62c0.83-2.21,1.33-5.15,1.33-7.2
				c0-0.55-0.03-0.89-0.19-0.89C27.98,132,27.34,135.66,27.34,138.48z"/>
			<path class="st6" d="M37.95,140.44c0.19,1.41,0.72,2.71,2.04,2.71c2.09,0,3.73-2.02,4.63-3.45c0,0,0.13-0.17,0.28-0.17
				c0.17,0,0.3,0.11,0.3,0.25c0,0.16-0.13,0.38-0.13,0.38c-0.99,1.52-2.79,3.62-5.08,3.62c-1.15,0-1.82-0.66-2.23-1.58
				c-0.33,0.89-1.07,1.58-2.12,1.58c-1.29,0-2.2-0.75-2.2-2.42c0-1.48,0.83-3.01,2.4-3.01C37.09,138.36,37.78,139.19,37.95,140.44z
				 M35.85,138.99c-1.15,0-1.77,1.22-1.77,2.39c0,1.22,0.66,1.79,1.57,1.79c1.16,0,1.71-1.07,1.71-2.13
				C37.36,139.82,36.87,138.99,35.85,138.99z"/>
			<path class="st6" d="M45.35,139.72l-0.27,0.44c-0.05,0.08-0.14,0.13-0.24,0.13c-0.17,0-0.33-0.13-0.33-0.28
				c0-0.08,0.02-0.16,0.11-0.3l0.27-0.44c-0.22-0.27-0.36-0.56-0.36-0.89c0-0.47,0.27-0.74,0.67-0.74c0.45,0,0.75,0.27,0.75,0.75
				c0,0.22-0.13,0.52-0.28,0.82c0.38,0.27,0.89,0.44,1.37,0.44c0.83,0,1.38-0.33,1.46-0.42c0.06-0.06,0.14-0.14,0.28-0.14
				c0.19,0,0.31,0.14,0.31,0.27c0,0.09-0.05,0.17-0.06,0.24c-0.13,0.38-0.25,1.24-0.25,1.73c0,1.57,0.78,1.85,1.68,1.85
				c2.07,0,3.73-2.02,4.63-3.45c0,0,0.13-0.17,0.28-0.17c0.17,0,0.3,0.11,0.3,0.25c0,0.16-0.13,0.38-0.13,0.38
				c-0.99,1.52-2.79,3.62-5.08,3.62c-1.37,0-2.29-0.61-2.29-2.5c0-0.39,0.08-0.88,0.14-1.27c-0.33,0.14-0.74,0.25-1.27,0.25
				C46.49,140.27,45.83,140.05,45.35,139.72z M45.21,138.84c0.09-0.14,0.22-0.31,0.22-0.45c0-0.16-0.06-0.24-0.19-0.24
				c-0.13,0-0.17,0.08-0.17,0.22C45.06,138.52,45.13,138.72,45.21,138.84z"/>
			<path class="st6" d="M59.22,140.44c0.19,1.41,0.72,2.71,2.04,2.71c2.09,0,3.73-2.02,4.63-3.45c0,0,0.13-0.17,0.28-0.17
				c0.17,0,0.3,0.11,0.3,0.25c0,0.16-0.13,0.38-0.13,0.38c-0.99,1.52-2.79,3.62-5.08,3.62c-1.15,0-1.82-0.66-2.23-1.58
				c-0.33,0.89-1.07,1.58-2.12,1.58c-1.29,0-2.2-0.75-2.2-2.42c0-1.48,0.83-3.01,2.4-3.01C58.36,138.36,59.05,139.19,59.22,140.44z
				 M57.12,138.99c-1.15,0-1.77,1.22-1.77,2.39c0,1.22,0.66,1.79,1.57,1.79c1.16,0,1.71-1.07,1.71-2.13
				C58.63,139.82,58.14,138.99,57.12,138.99z"/>
			<path class="st6" d="M77.34,138.34c0.28,0,0.42,0.14,0.42,0.35c0,0.24-0.2,0.33-0.42,0.33h-4.9c-0.22,0-0.41-0.09-0.41-0.33
				c0-0.22,0.13-0.35,0.41-0.35H77.34z"/>
			<path class="st6" d="M87.64,140.24c-0.14,0-0.25-0.08-0.27-0.22c-0.03-0.19,0.14-0.36,0.14-0.58c0-0.28-0.24-0.47-0.61-0.47
				c-0.97,0-1.77,1.16-1.77,2.24c0,1.33,0.66,1.95,1.57,1.95c2.09,0,3.73-2.02,4.63-3.45c0,0,0.09-0.17,0.28-0.17
				c0.17,0,0.3,0.11,0.3,0.25c0,0.16-0.13,0.38-0.13,0.38c-0.99,1.52-2.79,3.62-5.08,3.62c-1.29,0-2.2-0.8-2.2-2.57
				c0-1.4,1.02-2.87,2.4-2.87c0.78,0,1.24,0.44,1.24,1.1C88.14,139.71,88.02,140.24,87.64,140.24z"/>
			<path class="st6" d="M92.15,143.77c-0.16,0-0.31-0.14-0.31-0.3v-3.39l-0.05,0.08c-0.05,0.08-0.14,0.13-0.24,0.13
				c-0.17,0-0.33-0.13-0.33-0.28c0-0.08,0.02-0.16,0.11-0.3c0.14-0.2,0.28-0.52,0.53-0.88c0.09-3.45,0.5-7.45,2.15-7.45
				c0.8,0,1.15,0.53,1.15,1.52c0,2.07-1.71,4.57-2.67,6.09l-0.05,2.09c0.67-1.43,1.79-2.73,3-2.73c1.19,0,1.32,1.21,1.43,2.53
				c0.09,1.16,0.2,2.29,1.6,2.29c2.07,0,3.73-2.02,4.63-3.45c0,0,0.08-0.17,0.28-0.17c0.17,0,0.3,0.11,0.3,0.25
				c0,0.16-0.13,0.38-0.13,0.38c-0.99,1.52-2.79,3.62-5.08,3.62c-1.87,0-2.12-1.49-2.23-2.82c-0.09-1.05-0.11-1.99-0.82-1.99
				c-1.48,0-2.97,2.84-2.97,4.5C92.46,143.63,92.3,143.77,92.15,143.77z M92.54,137.75c0.93-1.46,1.99-3.34,1.99-4.85
				c0-0.55-0.16-0.89-0.42-0.89C93.1,132,92.7,134.86,92.54,137.75z"/>
			<path class="st6" d="M103.56,140.16c-0.05,0.08-0.14,0.13-0.24,0.13c-0.17,0-0.33-0.13-0.33-0.28c0-0.13,0.11-0.3,0.11-0.3
				l0.72-1.19c0.06-0.09,0.13-0.19,0.3-0.19c0.19,0,0.31,0.14,0.31,0.27c0,1.79,0.22,4.57,2.17,4.57c2.09,0,3.73-2.02,4.63-3.45
				c0,0,0.09-0.17,0.28-0.17c0.17,0,0.3,0.11,0.3,0.25c0,0.16-0.13,0.38-0.13,0.38c-0.99,1.52-2.79,3.62-5.08,3.62
				c-2.09,0-2.64-2.2-2.76-4.09L103.56,140.16z M104.56,135.52c0.36,0,0.47,0.25,0.47,0.63c0,0.5-0.25,0.78-0.53,0.78
				c-0.36,0-0.47-0.27-0.47-0.64C104.03,135.91,104.2,135.52,104.56,135.52z"/>
			<path class="st6" d="M111.79,138.48c0-3.36,0.41-7.11,1.66-7.11c0.8,0,1.15,0.53,1.15,1.52c0,2.06-1.38,4.52-2.18,6.04
				c0.05,1.79,0.38,4.22,2.17,4.22c2.09,0,3.73-2.02,4.63-3.45c0,0,0.13-0.17,0.28-0.17c0.17,0,0.3,0.11,0.3,0.25
				c0,0.16-0.13,0.38-0.13,0.38c-0.99,1.52-2.79,3.62-5.08,3.62c-1.98,0-2.57-2.01-2.75-3.86l-0.14,0.24
				c-0.05,0.08-0.14,0.13-0.24,0.13c-0.17,0-0.33-0.13-0.33-0.28c0-0.08,0.02-0.16,0.11-0.3c0.14-0.22,0.3-0.53,0.55-0.91V138.48z
				 M112.41,137.64c0.74-1.46,1.55-3.28,1.55-4.74c0-0.55-0.16-0.89-0.42-0.89C112.85,132,112.48,134.98,112.41,137.64z"/>
			<path class="st6" d="M130.29,139.53c0.17,0,0.3,0.11,0.3,0.25c0,0.16-0.13,0.38-0.13,0.38c-0.99,1.52-2.79,3.62-5.08,3.62
				c-1.05,0-1.65-0.71-2.01-1.68c-0.64,1.04-1.43,1.68-2.34,1.68c-1.29,0-2.2-0.75-2.2-2.42c0-1.48,0.83-3.03,2.4-3.03
				c0.71,0,1.25,0.2,1.66,0.57v-0.42c0-3.36,0.71-7.11,1.82-7.11c0.58,0,0.83,0.53,0.83,1.52c0,2.67-0.63,6.17-1.76,8.46
				c0.24,1.02,0.71,1.81,1.59,1.81c2.09,0,3.73-2.02,4.63-3.45C130.01,139.71,130.13,139.53,130.29,139.53z M121.03,143.16
				c0.78,0,1.49-0.78,2.09-1.98c-0.05-0.25-0.09-0.5-0.13-0.77c-0.17-0.88-0.74-1.44-1.76-1.44c-1.15,0-1.77,1.24-1.77,2.4
				C119.46,142.59,120.11,143.16,121.03,143.16z M123.53,138.48c0,0.49,0,1.05,0.06,1.62c0.83-2.21,1.33-5.15,1.33-7.2
				c0-0.55-0.03-0.89-0.19-0.89C124.17,132,123.53,135.66,123.53,138.48z"/>
			<path class="st6" d="M130.73,139.72l-0.27,0.44c-0.05,0.08-0.14,0.13-0.24,0.13c-0.17,0-0.33-0.13-0.33-0.28
				c0-0.08,0.02-0.16,0.11-0.3l0.27-0.44c-0.22-0.27-0.36-0.56-0.36-0.89c0-0.47,0.27-0.74,0.67-0.74c0.45,0,0.75,0.27,0.75,0.75
				c0,0.22-0.13,0.52-0.28,0.82c0.38,0.27,0.89,0.44,1.37,0.44c0.83,0,1.38-0.33,1.46-0.42c0.06-0.06,0.14-0.14,0.28-0.14
				c0.19,0,0.31,0.14,0.31,0.27c0,0.09-0.05,0.17-0.06,0.24c-0.13,0.38-0.25,1.24-0.25,1.73c0,1.57,0.78,1.85,1.68,1.85
				c2.07,0,3.73-2.02,4.63-3.45c0,0,0.13-0.17,0.28-0.17c0.17,0,0.3,0.11,0.3,0.25c0,0.16-0.13,0.38-0.13,0.38
				c-0.99,1.52-2.79,3.62-5.08,3.62c-1.37,0-2.29-0.61-2.29-2.5c0-0.39,0.08-0.88,0.14-1.27c-0.33,0.14-0.74,0.25-1.27,0.25
				C131.88,140.27,131.22,140.05,130.73,139.72z M130.59,138.84c0.09-0.14,0.22-0.31,0.22-0.45c0-0.16-0.06-0.24-0.19-0.24
				c-0.13,0-0.17,0.08-0.17,0.22C130.45,138.52,130.51,138.72,130.59,138.84z"/>
			<path class="st6" d="M143.76,139.44c0,1.38-2.46,1.9-3,1.99c0.06,1.19,0.69,1.73,1.55,1.73c2.09,0,3.73-2.02,4.63-3.45
				c0,0,0.09-0.17,0.28-0.17c0.17,0,0.3,0.11,0.3,0.25c0,0.16-0.13,0.38-0.13,0.38c-0.99,1.52-2.79,3.62-5.08,3.62
				c-1.29,0-2.2-0.8-2.2-2.57c0-1.4,1.02-2.87,2.4-2.87C143.31,138.34,143.76,138.78,143.76,139.44z M140.78,140.84
				c0.75-0.14,2.35-0.53,2.35-1.4c0-0.28-0.24-0.47-0.61-0.47C141.66,138.97,140.94,139.88,140.78,140.84z"/>
			<path class="st6" d="M147.14,140.29c-0.16,0-0.31-0.11-0.31-0.3c0-0.11,0.11-0.28,0.11-0.28c0.82-1.33,0.94-1.77,1.62-1.77
				c0.8,0,1.08,0.67,1.37,3.53c0.64-1.58,1.85-3.12,3.17-3.12c1.19,0,1.32,1.21,1.43,2.53c0.09,1.16,0.2,2.29,1.6,2.29
				c2.07,0,3.73-2.02,4.63-3.45c0,0,0.11-0.17,0.28-0.17s0.3,0.11,0.3,0.25c0,0.16-0.13,0.38-0.13,0.38
				c-0.99,1.52-2.79,3.62-5.08,3.62c-1.87,0-2.12-1.49-2.23-2.82c-0.09-1.05-0.11-1.99-0.82-1.99c-1.47,0-2.97,2.82-2.97,4.49
				c0,0.17-0.14,0.31-0.31,0.31c-0.17,0-0.31-0.14-0.31-0.3c0-4.3-0.63-4.91-0.93-4.91c-0.39,0-0.61,0.8-1.16,1.6
				C147.36,140.21,147.28,140.29,147.14,140.29z"/>
		</g>
		<text transform="matrix(1 0 0 1 21.3313 140.8115)" class="st36 st45 st46">nidara - children</text>
		<text transform="matrix(1 0 0 1 21.3313 140.8115)" class="st36 st45 st46">nidara - children</text>
		<text transform="matrix(1 0 0 1 21.3313 140.8115)" class="st36 st45 st46">nidara - children</text>
		<text transform="matrix(1 0 0 1 21.3313 140.8115)" class="st36 st45 st46">nidara - children</text>
		<text transform="matrix(1 0 0 1 21.3313 140.8115)" class="st36 st45 st46">nidara - children</text>
		<text transform="matrix(1 0 0 1 21.3313 140.8115)" class="st36 st45 st46">nidara - children</text>
		<text transform="matrix(1 0 0 1 21.3313 140.8115)" class="st36 st45 st46">nidara - children</text>
		<text transform="matrix(1 0 0 1 21.3313 140.8115)" class="st36 st45 st46">nidara - children</text>
		<text transform="matrix(1 0 0 1 21.3313 140.8115)" class="st36 st45 st46">nidara - children</text>
		<text transform="matrix(1 0 0 1 21.3313 140.8115)" class="st36 st45 st46">nidara - children</text>
		<text transform="matrix(1 0 0 1 21.3313 140.8115)" class="st36 st45 st46">nidara - children</text>
		<text transform="matrix(1 0 0 1 21.3313 140.8115)" class="st36 st45 st46">nidara - children</text>
		<text transform="matrix(1 0 0 1 21.3313 140.8115)" class="st36 st45 st46">nidara - children</text>
		<text transform="matrix(1 0 0 1 21.3313 140.8115)" class="st36 st45 st46">nidara - children</text>
		<text transform="matrix(1 0 0 1 21.3313 140.8115)" class="st36 st45 st46">nidara - children</text>
		<text transform="matrix(1 0 0 1 21.3313 140.8115)" class="st36 st45 st46">nidara - children</text>
		<text transform="matrix(1 0 0 1 21.3313 140.8115)" class="st36 st45 st46">nidara - children</text>
		<text transform="matrix(1 0 0 1 21.3313 140.8115)" class="st36 st45 st46">nidara - children</text>
		<text transform="matrix(1 0 0 1 21.3313 140.8115)" class="st36 st45 st46">nidara - children</text>
		<text transform="matrix(1 0 0 1 21.3313 140.8115)" class="st36 st45 st46">nidara - children</text>
		<text transform="matrix(1 0 0 1 21.3313 140.8115)" class="st36 st45 st46">nidara - children</text>
		<text transform="matrix(1 0 0 1 21.3313 140.8115)" class="st36 st45 st46">nidara - children</text>
		<text transform="matrix(1 0 0 1 21.3313 140.8115)" class="st36 st45 st46">nidara - children</text>
		<text transform="matrix(1 0 0 1 21.3313 140.8115)" class="st36 st45 st46">nidara - children</text>
		<text transform="matrix(1 0 0 1 21.3313 140.8115)" class="st36 st45 st46">nidara - children</text>
		<text transform="matrix(1 0 0 1 21.3313 140.8115)" class="st36 st45 st46">nidara - children</text>
		<text transform="matrix(1 0 0 1 21.3313 140.8115)" class="st36 st45 st46">nidara - children</text>
		<text transform="matrix(1 0 0 1 21.3313 140.8115)" class="st36 st45 st46">nidara - children</text>
		<text transform="matrix(1 0 0 1 21.3313 140.8115)" class="st36 st45 st46">nidara - children</text>
		<text transform="matrix(1 0 0 1 21.3313 140.8115)" class="st36 st45 st46">nidara - children</text>
		<text transform="matrix(1 0 0 1 21.3313 140.8115)" class="st36 st45 st46">nidara - children</text>
		<text transform="matrix(1 0 0 1 21.3313 140.8115)" class="st36 st45 st46">nidara - children</text>
		<text transform="matrix(1 0 0 1 21.3313 140.8115)" class="st36 st45 st46">nidara - children</text>
		<text transform="matrix(1 0 0 1 21.3313 140.8115)" class="st36 st45 st46">nidara - children</text>
		<text transform="matrix(1 0 0 1 21.3313 140.8115)" class="st36 st45 st46">nidara - children</text>
		<text transform="matrix(1 0 0 1 21.3313 140.8115)" class="st36 st45 st46">nidara - children</text>
		<text transform="matrix(1 0 0 1 21.3313 140.8115)" class="st36 st45 st46">nidara - children</text>
		<text transform="matrix(1 0 0 1 21.3313 140.8115)" class="st36 st45 st46">nidara - children</text>
		<text transform="matrix(1 0 0 1 21.3313 140.8115)" class="st36 st45 st46">nidara - children</text>
		<text transform="matrix(1 0 0 1 21.3313 140.8115)" class="st36 st45 st46">nidara - children</text>
		<text transform="matrix(1 0 0 1 21.3313 140.8115)" class="st36 st45 st46">nidara - children</text>
	</g>
</g>
<g id="Layer_3">
</g>
<g id="Layer_1_copy" class="st36">
</g>
<g id="Layer_4">
</g>
</svg>
