<?xml version="1.0" standalone="no"?>
<!DOCTYPE svg PUBLIC "-//W3C//DTD SVG 20010904//EN"
 "http://www.w3.org/TR/2001/REC-SVG-20010904/DTD/svg10.dtd">
<svg version="1.0" xmlns="http://www.w3.org/2000/svg"
 width="58.000000pt" height="46.000000pt" viewBox="0 0 58.000000 46.000000"
 preserveAspectRatio="xMidYMid meet">
<metadata>
Created by potrace 1.14, written by Peter Selinger 2001-2017
</metadata>
<g transform="translate(0.000000,46.000000) scale(0.100000,-0.100000)"
fill="#000000" stroke="none">
<path d="M223 362 c-45 -35 -52 -104 -15 -145 15 -17 15 -19 -3 -30 -11 -6
-35 -25 -52 -43 -29 -28 -33 -38 -33 -88 l0 -56 165 0 165 0 0 50 c0 64 -19
101 -64 125 -40 22 -43 27 -21 45 38 31 23 125 -24 150 -30 16 -93 12 -118 -8z
m122 -27 c14 -13 25 -34 25 -45 0 -32 -27 -78 -50 -85 -26 -8 -18 -21 18 -28
16 -3 43 -19 60 -35 27 -25 32 -37 32 -76 l0 -46 -145 0 -145 0 0 43 c0 50 29
85 92 111 l36 16 -35 35 c-30 30 -35 40 -29 68 13 66 93 91 141 42z"/>
</g>
</svg>
