<?xml version="1.0" encoding="utf-8"?>
<!-- Generator: Adobe Illustrator 23.0.1, SVG Export Plug-In . SVG Version: 6.00 Build 0)  -->
<svg version="1.1" xmlns="http://www.w3.org/2000/svg" xmlns:xlink="http://www.w3.org/1999/xlink" x="0px" y="0px"
	 viewBox="0 0 360 360" style="enable-background:new 0 0 360 360;" xml:space="preserve">
<style type="text/css">
	.st0{fill:#BCE0E0;}
	.st1{fill:#333333;stroke:#333333;stroke-width:3;stroke-miterlimit:10;}
	.st2{fill:none;stroke:#333333;stroke-width:7.841;stroke-miterlimit:10;}
	.st3{fill-rule:evenodd;clip-rule:evenodd;fill:#333333;stroke:#333333;stroke-miterlimit:10;}
	.st4{fill:none;stroke:#333333;stroke-width:4.682;stroke-miterlimit:10;}
	.st5{fill:none;stroke:#333333;stroke-width:2.436;stroke-miterlimit:10;}
	.st6{fill:#333333;stroke:#333333;stroke-miterlimit:10;}
	.st7{fill:#333333;stroke:#333333;stroke-width:2.436;stroke-miterlimit:10;}
	.st8{stroke:#333333;stroke-miterlimit:10;}
	.st9{fill:none;stroke:#333333;stroke-width:4;stroke-linecap:round;stroke-miterlimit:10;}
	.st10{fill:#FFFFFF;}
	.st11{fill:none;stroke:#FFFFFF;stroke-width:9;stroke-miterlimit:10;}
	.st12{fill-rule:evenodd;clip-rule:evenodd;fill:#FFFFFF;}
	.st13{fill:none;stroke:#FFFFFF;stroke-width:6;stroke-miterlimit:10;}
	.st14{fill:none;stroke:#FFFFFF;stroke-width:5;stroke-miterlimit:10;}
	.st15{fill:none;stroke:#FFFFFF;stroke-width:4;stroke-miterlimit:10;}
	.st16{fill:#A4DBDD;}
	.st17{fill:#837A5C;}
	.st18{fill:none;stroke:#837A5C;stroke-width:7;stroke-miterlimit:10;}
	.st19{fill-rule:evenodd;clip-rule:evenodd;fill:#837A5C;}
	.st20{fill:none;stroke:#837A5C;stroke-width:4;stroke-miterlimit:10;}
	.st21{fill:none;stroke:#837A5C;stroke-width:2.4;stroke-miterlimit:10;}
	.st22{fill-rule:evenodd;clip-rule:evenodd;fill:#BCE0E0;}
	.st23{fill:none;stroke:#FFFFFF;stroke-width:3;stroke-miterlimit:10;}
	.st24{fill:none;stroke:#FFFFFF;stroke-width:2;stroke-miterlimit:10;}
	.st25{fill:none;stroke:#FFFFFF;stroke-width:1.5;stroke-miterlimit:10;}
	.st26{fill:none;stroke:#FFFFFF;stroke-width:0.75;stroke-miterlimit:10;}
	.st27{fill:none;stroke:#000000;stroke-width:4;stroke-miterlimit:10;}
	.st28{fill-rule:evenodd;clip-rule:evenodd;}
	.st29{fill:none;stroke:#000000;stroke-width:2.7;stroke-miterlimit:10;}
	.st30{fill:none;stroke:#000000;stroke-width:2;stroke-miterlimit:10;}
	.st31{fill:none;stroke:#000000;stroke-width:0.75;stroke-miterlimit:10;}
	.st32{fill:none;stroke:#837A5C;stroke-width:3;stroke-miterlimit:10;}
	.st33{fill:none;stroke:#837A5C;stroke-width:2;stroke-miterlimit:10;}
	.st34{fill:none;stroke:#837A5C;stroke-width:1.5;stroke-miterlimit:10;}
	.st35{fill:none;stroke:#837A5C;stroke-width:0.75;stroke-miterlimit:10;}
	.st36{display:none;}
	.st37{display:inline;}
	.st38{fill:none;stroke:#837A5C;stroke-width:5;stroke-miterlimit:10;}
	.st39{fill:none;stroke:#837A5C;stroke-width:0.7;stroke-miterlimit:10;}
	.st40{fill:#333333;stroke:#333333;stroke-width:0.5;stroke-miterlimit:10;}
	.st41{fill:none;stroke:#333333;stroke-width:2;stroke-miterlimit:10;}
	.st42{fill-rule:evenodd;clip-rule:evenodd;fill:#333333;}
	.st43{fill:none;stroke:#333333;stroke-width:0.75;stroke-miterlimit:10;}
	.st44{fill:none;stroke:#333333;stroke-width:0.7;stroke-miterlimit:10;}
	.st45{fill:#333333;}
	.st46{fill:none;stroke:#333333;stroke-width:0.6;stroke-miterlimit:10;}
	.st47{fill:#C7DDDC;}
	.st48{fill:none;stroke:#FFFFFF;stroke-width:0.1;stroke-miterlimit:10;}
	.st49{fill:none;stroke:#FFFFFF;stroke-width:0.08;stroke-miterlimit:10;}
	.st50{fill:#FAFFFF;}
	.st51{fill:#333333;stroke:#FFFFFF;stroke-width:0.08;stroke-miterlimit:10;}
	.st52{fill:none;stroke:#FFFFFF;stroke-width:0.08;stroke-linecap:round;stroke-miterlimit:10;}
	.st53{fill:#7ED7D5;}
	.st54{fill:none;stroke:#7ED7D5;stroke-width:0.5;stroke-miterlimit:10;}
	.st55{fill-rule:evenodd;clip-rule:evenodd;fill:#7ED7D5;}
	.st56{fill:none;stroke:#7ED7D5;stroke-width:0.25;stroke-miterlimit:10;}
	.st57{fill:none;stroke:#7ED7D5;stroke-width:0.2;stroke-miterlimit:10;}
	.st58{fill:none;stroke:#7ED7D5;stroke-width:0.1;stroke-miterlimit:10;}
	.st59{fill:none;stroke:#7ED7D5;stroke-width:0.2;stroke-linecap:round;stroke-miterlimit:10;}
	.st60{fill:#47C2C0;}
	.st61{fill:none;stroke:#FFFFFF;stroke-width:0.5;stroke-miterlimit:10;}
	.st62{fill:none;stroke:#FFFFFF;stroke-width:0.25;stroke-miterlimit:10;}
	.st63{fill:none;stroke:#FFFFFF;stroke-width:0.2;stroke-miterlimit:10;}
	.st64{fill:none;stroke:#FFFFFF;stroke-width:0.2;stroke-linecap:round;stroke-miterlimit:10;}
	.st65{fill:none;stroke:#FFFFFF;stroke-width:0.6;stroke-miterlimit:10;}
	.st66{fill:none;stroke:#FFFFFF;stroke-width:0.3;stroke-miterlimit:10;}
	.st67{fill:none;stroke:#FFFFFF;stroke-width:0.07;stroke-miterlimit:10;}
	.st68{fill:#BCE0E0;stroke:#FFFFFF;stroke-width:0.09;stroke-miterlimit:10;}
	.st69{fill:none;stroke:#FFFFFF;stroke-width:0.3;stroke-linecap:round;stroke-miterlimit:10;}
	.st70{fill:none;stroke:#837A5C;stroke-width:0.6;stroke-miterlimit:10;}
	.st71{fill:none;stroke:#837A5C;stroke-width:0.3;stroke-miterlimit:10;}
	.st72{fill:none;stroke:#837A5C;stroke-width:0.07;stroke-miterlimit:10;}
	.st73{fill:#837A5C;stroke:#837A5C;stroke-width:0.09;stroke-miterlimit:10;}
	.st74{fill:none;stroke:#837A5C;stroke-width:0.2;stroke-miterlimit:10;}
	.st75{fill:none;stroke:#837A5C;stroke-width:0.3;stroke-linecap:round;stroke-miterlimit:10;}
	.st76{fill:none;stroke:#837A5C;stroke-width:2.5;stroke-miterlimit:10;}
	.st77{fill:none;stroke:#837A5C;stroke-miterlimit:10;}
	.st78{fill:none;stroke:#837A5C;stroke-width:1.5;stroke-linecap:round;stroke-miterlimit:10;}
	.st79{fill:#FFFFFF;stroke:#FFFFFF;stroke-width:0.75;stroke-miterlimit:10;}
	.st80{fill:none;stroke:#FFFFFF;stroke-width:2.5;stroke-miterlimit:10;}
	.st81{fill:#FFFFFF;stroke:#FFFFFF;stroke-width:0.5;stroke-miterlimit:10;}
	.st82{fill:none;stroke:#000000;stroke-width:3;stroke-miterlimit:10;}
	.st83{fill:none;stroke:#000000;stroke-width:1.5;stroke-miterlimit:10;}
	.st84{fill:#837A5C;stroke:#837A5C;stroke-miterlimit:10;}
	.st85{stroke:#000000;stroke-width:0.9;stroke-miterlimit:10;}
	.st86{fill:none;stroke:#000000;stroke-width:1.8;stroke-linecap:round;stroke-miterlimit:10;}
	.st87{fill:#837A5C;stroke:#837A5C;stroke-width:0.9;stroke-miterlimit:10;}
	.st88{fill:none;stroke:#837A5C;stroke-width:1.8;stroke-linecap:round;stroke-miterlimit:10;}
	.st89{fill:#837A5C;stroke:#837A5C;stroke-width:2;stroke-miterlimit:10;}
	.st90{fill:none;stroke:#837A5C;stroke-width:1.1;stroke-miterlimit:10;}
	.st91{fill:none;stroke:#837A5C;stroke-width:0.5;stroke-miterlimit:10;}
	.st92{fill:#837A5C;stroke:#837A5C;stroke-width:0.5;stroke-miterlimit:10;}
	.st93{fill:#A2DEDF;}
	.st94{fill:none;stroke:#A2DEDF;stroke-width:0.5;stroke-miterlimit:10;}
	.st95{fill-rule:evenodd;clip-rule:evenodd;fill:#A2DEDF;}
	.st96{fill:none;stroke:#A2DEDF;stroke-width:0.1;stroke-miterlimit:10;}
	.st97{fill:#80B8C8;}
	.st98{fill:#FFFFFF;stroke:#FFFFFF;stroke-width:3;stroke-miterlimit:10;}
	.st99{display:inline;fill:none;stroke:#FFFFFF;stroke-width:7.841;stroke-miterlimit:10;}
	.st100{display:inline;fill-rule:evenodd;clip-rule:evenodd;fill:#FFFFFF;stroke:#FFFFFF;stroke-miterlimit:10;}
	.st101{display:inline;fill:none;stroke:#FFFFFF;stroke-width:4.682;stroke-miterlimit:10;}
	.st102{display:inline;fill:none;stroke:#FFFFFF;stroke-width:2.436;stroke-miterlimit:10;}
	.st103{display:inline;fill:#FFFFFF;stroke:#FFFFFF;stroke-miterlimit:10;}
	.st104{display:inline;stroke:#FFFFFF;stroke-width:2.436;stroke-miterlimit:10;}
	.st105{display:inline;fill:#FFFFFF;stroke:#FFFFFF;stroke-width:2.436;stroke-miterlimit:10;}
	.st106{display:inline;fill:none;stroke:#FFFFFF;stroke-width:4;stroke-linecap:round;stroke-miterlimit:10;}
</style>
<g id="Layer_1">
	<g>
		<g>
			<path class="st82" d="M155.75,16.44C65.41,29.85,3.05,113.93,16.44,204.27c13.42,90.34,97.49,152.7,187.84,139.28
				c90.34-13.39,152.7-97.49,139.28-187.81C330.17,65.41,246.06,3.05,155.75,16.44L155.75,16.44z"/>
			<g>
				<path class="st28" d="M152.94,29.09l0.65-0.12l0.98-0.15l0.98-0.18l0.98-0.15l0.98-0.15l0.68,4.46
					c-1.51,0.21-2.98,0.47-4.43,0.74L152.94,29.09z"/>
				<path class="st28" d="M143.87,31.01l0.15-0.03l0.95-0.24l0.95-0.21l0.95-0.24l0.98-0.21l0.56-0.12l0.92,4.43
					c-1.48,0.3-2.93,0.62-4.37,0.98L143.87,31.01z"/>
				<path class="st28" d="M134.94,33.43l0.65-0.18l0.92-0.3l0.95-0.27l0.92-0.27l0.95-0.24l0.09-0.03l1.15,4.34
					c-1.45,0.41-2.9,0.83-4.31,1.24L134.94,33.43z"/>
				<path class="st28" d="M126.17,36.42l0.35-0.12l0.89-0.33l0.89-0.33l0.92-0.33l0.89-0.3l0.41-0.15l1.45,4.26
					c-1.42,0.5-2.84,1-4.23,1.54L126.17,36.42z"/>
				<path class="st28" d="M117.57,39.93l0.15-0.06l0.86-0.38l0.89-0.35l0.86-0.38l0.89-0.35l0.62-0.27l1.71,4.17
					c-1.39,0.56-2.78,1.15-4.14,1.77L117.57,39.93z"/>
				<path class="st28" d="M109.2,43.98L109.2,43.98l0.86-0.44l0.83-0.41l0.83-0.44l0.86-0.41l0.8-0.38l1.95,4.08
					c-1.36,0.65-2.69,1.33-4.02,2.01L109.2,43.98z"/>
				<path class="st28" d="M101.14,48.5l0.71-0.44l0.8-0.47l0.83-0.47l0.8-0.44l0.83-0.47l0.06-0.03l2.19,3.93
					c-1.33,0.74-2.63,1.51-3.9,2.28L101.14,48.5z"/>
				<path class="st28" d="M93.33,53.5l0.65-0.44l0.77-0.5l0.77-0.53l0.77-0.5l0.8-0.5l0.12-0.09l2.39,3.81
					c-1.24,0.8-2.48,1.65-3.72,2.48L93.33,53.5z"/>
				<path class="st28" d="M85.86,58.96l0.59-0.44l0.74-0.56l0.74-0.56l0.74-0.56l0.77-0.56l0.12-0.09l2.66,3.63
					c-1.21,0.89-2.42,1.8-3.61,2.72L85.86,58.96z"/>
				<path class="st28" d="M78.73,64.9l0.56-0.53l0.71-0.59l0.71-0.62l0.71-0.59l0.71-0.59l0.12-0.09l2.84,3.46
					c-1.15,0.98-2.28,1.95-3.4,2.93L78.73,64.9z"/>
				<path class="st28" d="M71.97,71.23l0.56-0.59l0.68-0.65l0.65-0.62l0.68-0.65l0.65-0.62l0.09-0.09l3.07,3.31
					c-1.09,1.03-2.16,2.07-3.22,3.13L71.97,71.23z"/>
				<path class="st28" d="M65.58,77.97l0.59-0.68l0.62-0.68l0.62-0.68l0.62-0.65l0.65-0.68l0.03-0.06l3.25,3.1
					c-1.03,1.09-2.04,2.22-3.04,3.34L65.58,77.97z"/>
				<path class="st28" d="M59.61,85.09l0.03-0.06l0.59-0.71l0.56-0.74l0.59-0.71l0.59-0.71l0.56-0.68l3.46,2.9
					c-0.98,1.15-1.92,2.31-2.84,3.49L59.61,85.09z"/>
				<path class="st28" d="M54.09,92.54l0.09-0.12l0.53-0.77l0.53-0.74l0.53-0.74l0.53-0.74l0.5-0.68l3.61,2.69
					c-0.89,1.21-1.74,2.42-2.6,3.66L54.09,92.54z"/>
				<path class="st28" d="M49.03,100.28l0.12-0.18l0.47-0.77l0.5-0.77l0.47-0.8L51.1,97l0.41-0.62l3.78,2.45
					c-0.83,1.27-1.63,2.54-2.42,3.81L49.03,100.28z"/>
				<path class="st28" d="M44.45,108.35l0.12-0.24l0.44-0.8l0.44-0.83l0.44-0.8l0.44-0.8l0.35-0.59l3.9,2.22
					c-0.74,1.3-1.45,2.63-2.16,3.96L44.45,108.35z"/>
				<path class="st28" d="M40.38,116.65l0.12-0.27l0.38-0.86l0.41-0.83l0.38-0.83l0.41-0.83l0.27-0.56l4.05,1.98
					c-0.68,1.36-1.3,2.72-1.95,4.08L40.38,116.65z"/>
				<path class="st28" d="M36.8,125.22l0.12-0.33l0.33-0.86l0.35-0.86l0.33-0.86l0.35-0.86l0.24-0.56l4.14,1.74
					c-0.56,1.39-1.12,2.78-1.65,4.2L36.8,125.22z"/>
				<path class="st28" d="M33.73,133.97l0.12-0.33l0.27-0.89l0.3-0.89l0.3-0.86l0.3-0.89l0.21-0.56l4.26,1.51
					c-0.5,1.42-0.98,2.84-1.42,4.26L33.73,133.97z"/>
				<path class="st28" d="M31.21,142.89l0.06-0.3l0.24-0.89l0.24-0.92l0.24-0.89l0.27-0.92l0.15-0.59l4.34,1.24
					c-0.41,1.45-0.8,2.9-1.15,4.34L31.21,142.89z"/>
				<path class="st28" d="M29.23,151.97l0.03-0.21l0.18-0.92l0.18-0.92l0.21-0.92l0.18-0.92l0.15-0.68l4.4,0.95
					c-0.3,1.48-0.62,2.96-0.89,4.43L29.23,151.97z"/>
				<path class="st28" d="M27.82,161.13v-0.06l0.12-0.92l0.15-0.95l0.12-0.95l0.15-0.92l0.12-0.83l4.43,0.71
					c-0.21,1.48-0.41,2.96-0.59,4.46L27.82,161.13z"/>
				<path class="st28" d="M26.96,170.32l0.06-0.74l0.06-0.95l0.09-0.95l0.06-0.95l0.09-0.95v-0.09l4.49,0.44
					c-0.12,1.48-0.24,2.98-0.33,4.49L26.96,170.32z"/>
				<path class="st28" d="M26.66,179.6v-0.44l0.03-0.95v-0.98l0.03-0.95l0.03-0.98v-0.35l4.49,0.18c-0.03,1.48-0.06,2.98-0.06,4.49
					L26.66,179.6z"/>
				<path class="st28" d="M26.93,188.88v-0.03l-0.06-0.98l-0.03-0.98l-0.06-0.98l-0.03-0.98v-0.71l4.49-0.12
					c0.03,1.51,0.12,3.01,0.21,4.49L26.93,188.88z"/>
				<path class="st28" d="M27.76,198.1l-0.06-0.5l-0.09-0.98l-0.12-0.98l-0.09-0.98l-0.09-0.98l-0.03-0.21l4.49-0.38
					c0.12,1.51,0.3,2.98,0.47,4.49L27.76,198.1z"/>
				<path class="st28" d="M29.15,207.26l-0.18-0.86l-0.15-0.98l-0.18-0.98l-0.15-0.98l-0.12-0.77l4.46-0.65
					c0.21,1.48,0.47,2.96,0.74,4.43L29.15,207.26z"/>
				<path class="st28" d="M31.04,216.33l-0.06-0.33l-0.24-0.95l-0.21-0.95l-0.24-0.98l-0.21-0.95l-0.06-0.38l4.4-0.92
					c0.33,1.48,0.65,2.93,1,4.4L31.04,216.33z"/>
				<path class="st28" d="M33.49,225.26l-0.24-0.83l-0.3-0.95l-0.27-0.92l-0.27-0.92l-0.21-0.83l4.34-1.18
					c0.38,1.45,0.8,2.9,1.24,4.31L33.49,225.26z"/>
				<path class="st28" d="M36.5,234.03l-0.21-0.53l-0.33-0.89l-0.33-0.92l-0.33-0.89l-0.3-0.92l-0.09-0.21l4.26-1.45
					c0.5,1.42,1,2.84,1.54,4.23L36.5,234.03z"/>
				<path class="st28" d="M40.02,242.63l-0.15-0.33l-0.38-0.86l-0.35-0.89l-0.38-0.86l-0.35-0.89l-0.21-0.44l4.2-1.71
					c0.56,1.39,1.15,2.78,1.74,4.14L40.02,242.63z"/>
				<path class="st28" d="M44.07,250.97l-0.09-0.18l-0.44-0.83l-0.41-0.83l-0.44-0.86l-0.41-0.83l-0.3-0.62l4.08-1.95
					c0.65,1.36,1.33,2.69,2.01,4.02L44.07,250.97z"/>
				<path class="st28" d="M48.59,259.06l-0.03-0.09l-0.5-0.8l-0.47-0.83l-0.47-0.8l-0.44-0.8l-0.38-0.71l3.93-2.19
					c0.74,1.3,1.48,2.6,2.25,3.9L48.59,259.06z"/>
				<path class="st28" d="M53.61,266.87l-0.03-0.06l-0.53-0.77l-0.5-0.77l-0.53-0.77l-0.5-0.8l-0.47-0.71l3.81-2.42
					c0.8,1.27,1.63,2.51,2.48,3.72L53.61,266.87z"/>
				<path class="st28" d="M59.11,274.34l-0.03-0.06l-0.56-0.74l-0.56-0.74l-0.56-0.74l-0.56-0.74l-0.53-0.68l3.63-2.69
					c0.89,1.21,1.8,2.42,2.72,3.61L59.11,274.34z"/>
				<path class="st28" d="M65.05,281.47l-0.06-0.06l-0.62-0.71l-0.59-0.68l-0.62-0.71l-0.59-0.71l-0.53-0.65l3.46-2.87
					c0.95,1.15,1.92,2.28,2.93,3.4L65.05,281.47z"/>
				<path class="st28" d="M71.38,288.2l-0.09-0.09l-0.65-0.65l-0.65-0.65l-0.62-0.68l-0.65-0.65l-0.56-0.59l3.31-3.1
					c1,1.09,2.07,2.19,3.1,3.25L71.38,288.2z"/>
				<path class="st28" d="M78.11,294.59L78,294.44l-0.71-0.59l-0.68-0.62l-0.68-0.62l-0.65-0.65l-0.56-0.5l3.07-3.28
					c1.09,1.03,2.22,2.04,3.34,3.04L78.11,294.59z"/>
				<path class="st28" d="M85.24,300.53l-0.21-0.18l-0.71-0.56l-0.74-0.59l-0.71-0.56l-0.71-0.59l-0.53-0.44l2.9-3.46
					c1.15,0.98,2.33,1.92,3.49,2.84L85.24,300.53z"/>
				<path class="st28" d="M92.68,306.02l-0.27-0.18l-0.77-0.53l-0.74-0.53l-0.74-0.53l-0.74-0.56l-0.5-0.35l2.66-3.63
					c1.21,0.92,2.45,1.77,3.66,2.63L92.68,306.02z"/>
				<path class="st28" d="M100.46,311.08l-0.35-0.21l-0.77-0.5l-0.77-0.47l-0.8-0.5L97,308.92l-0.47-0.33l2.48-3.75
					c1.24,0.8,2.51,1.6,3.81,2.39L100.46,311.08z"/>
				<path class="st28" d="M108.52,315.66l-0.41-0.24l-0.8-0.44l-0.83-0.41l-0.8-0.44l-0.8-0.47l-0.44-0.24l2.25-3.9
					c1.3,0.74,2.63,1.45,3.96,2.16L108.52,315.66z"/>
				<path class="st28" d="M116.86,319.74l-0.47-0.24l-0.86-0.38l-0.83-0.38l-0.83-0.38l-0.83-0.41l-0.38-0.18l1.98-4.05
					c1.36,0.65,2.72,1.3,4.08,1.92L116.86,319.74z"/>
				<path class="st28" d="M125.4,323.28l-0.5-0.18l-0.86-0.33l-0.86-0.35l-0.86-0.35l-0.86-0.35l-0.38-0.15l1.77-4.14
					c1.36,0.56,2.78,1.12,4.17,1.65L125.4,323.28z"/>
				<path class="st28" d="M134.15,326.33l-0.5-0.15l-0.89-0.3l-0.89-0.27l-0.86-0.3l-0.89-0.33l-0.38-0.12l1.51-4.26
					c1.42,0.5,2.84,0.98,4.29,1.42L134.15,326.33z"/>
				<path class="st28" d="M143.07,328.84l-0.47-0.12l-0.89-0.21l-0.92-0.24l-0.89-0.27l-0.92-0.24l-0.38-0.12l1.21-4.31
					c1.45,0.38,2.9,0.77,4.37,1.12L143.07,328.84z"/>
				<path class="st28" d="M152.14,330.82l-0.38-0.09l-0.92-0.18l-0.92-0.18l-0.92-0.18l-0.92-0.21l-0.5-0.09l0.98-4.4
					c1.48,0.3,2.93,0.62,4.4,0.89L152.14,330.82z"/>
				<path class="st28" d="M161.3,332.21l-0.24-0.03l-0.92-0.12l-0.95-0.12l-0.95-0.12l-0.92-0.15l-0.62-0.09l0.68-4.46
					c1.48,0.24,2.98,0.44,4.46,0.62L161.3,332.21z"/>
				<path class="st28" d="M170.55,333.06h-0.03l-0.95-0.06l-0.95-0.09l-0.95-0.06l-0.95-0.09l-0.8-0.06l0.41-4.49
					c1.48,0.15,2.98,0.24,4.46,0.35L170.55,333.06z"/>
				<path class="st28" d="M179.8,333.33h-0.65h-0.95h-0.98l-0.95-0.03l-0.98-0.03h-0.15l0.18-4.49c1.48,0.03,2.98,0.06,4.49,0.06
					L179.8,333.33z"/>
				<path class="st28" d="M189.08,333.06h-0.24l-0.98,0.06l-0.98,0.06l-0.98,0.03l-0.98,0.03l-0.5,0.03l-0.12-4.52
					c1.51-0.03,2.98-0.12,4.49-0.21L189.08,333.06z"/>
				<path class="st28" d="M198.3,332.24l-0.71,0.06l-0.98,0.12l-0.98,0.12l-0.98,0.09l-0.95,0.09l-0.41-4.49
					c1.48-0.12,2.98-0.3,4.46-0.47L198.3,332.24z"/>
				<path class="st28" d="M207.49,330.85h-0.12l-0.98,0.18l-0.98,0.18l-0.98,0.15l-0.98,0.15l-0.56,0.09l-0.68-4.43
					c1.51-0.24,2.98-0.47,4.43-0.74L207.49,330.85z"/>
				<path class="st28" d="M216.54,328.93l-0.53,0.12l-0.95,0.24l-0.95,0.21l-0.98,0.21l-0.95,0.21l-0.18,0.06l-0.92-4.43
					c1.48-0.33,2.93-0.65,4.37-1L216.54,328.93z"/>
				<path class="st28" d="M225.49,326.44l-0.15,0.03l-0.92,0.3l-0.95,0.27l-0.92,0.27l-0.92,0.27l-0.62,0.18l-1.18-4.34
					c1.45-0.41,2.87-0.83,4.31-1.27L225.49,326.44z"/>
				<path class="st28" d="M234.24,323.43l-0.74,0.3l-0.89,0.33l-0.92,0.33l-0.89,0.33l-0.92,0.3l-0.03,0.03l-1.45-4.29
					c1.45-0.5,2.84-1,4.26-1.54L234.24,323.43z"/>
				<path class="st28" d="M242.81,319.91l-0.5,0.21l-0.86,0.38l-0.89,0.38l-0.86,0.38l-0.89,0.35l-0.27,0.12l-1.71-4.2
					c1.39-0.56,2.78-1.15,4.14-1.74L242.81,319.91z"/>
				<path class="st28" d="M251.14,315.86l-0.35,0.18l-0.83,0.44l-0.83,0.41l-0.86,0.41l-0.83,0.41l-0.44,0.21l-1.95-4.05
					c1.36-0.65,2.69-1.33,4.02-2.04L251.14,315.86z"/>
				<path class="st28" d="M259.24,311.31l-0.27,0.15l-0.8,0.47l-0.83,0.47l-0.8,0.47l-0.8,0.47l-0.53,0.3l-2.19-3.93
					c1.3-0.74,2.6-1.51,3.87-2.28L259.24,311.31z"/>
				<path class="st28" d="M267.01,306.26l-0.21,0.18l-0.77,0.5l-0.77,0.53l-0.77,0.5l-0.8,0.53l-0.53,0.35l-2.45-3.81
					c1.27-0.8,2.51-1.65,3.75-2.48L267.01,306.26z"/>
				<path class="st28" d="M274.49,300.76l-0.21,0.18l-0.74,0.56l-0.74,0.56l-0.74,0.56l-0.74,0.56l-0.53,0.38l-2.66-3.63
					c1.21-0.89,2.39-1.77,3.58-2.72L274.49,300.76z"/>
				<path class="st28" d="M281.61,294.85l-0.21,0.18l-0.71,0.62l-0.68,0.59l-0.71,0.59l-0.71,0.62l-0.5,0.41l-2.87-3.46
					c1.15-0.98,2.28-1.95,3.4-2.96L281.61,294.85z"/>
				<path class="st28" d="M288.35,288.5l-0.24,0.21l-0.65,0.65l-0.65,0.65l-0.68,0.65l-0.65,0.62l-0.44,0.44l-3.1-3.31
					c1.09-1,2.19-2.07,3.25-3.1L288.35,288.5z"/>
				<path class="st28" d="M294.7,281.73l-0.27,0.3l-0.59,0.68l-0.62,0.68l-0.62,0.68l-0.65,0.68l-0.38,0.41l-3.25-3.1
					c1.03-1.09,2.04-2.19,3.01-3.31L294.7,281.73z"/>
				<path class="st28" d="M300.64,274.61l-0.3,0.38l-0.56,0.71l-0.59,0.71l-0.56,0.71l-0.59,0.71l-0.33,0.38l-3.46-2.9
					c0.98-1.15,1.92-2.31,2.84-3.49L300.64,274.61z"/>
				<path class="st28" d="M306.14,267.16l-0.3,0.44l-0.53,0.74l-0.53,0.77l-0.53,0.74l-0.56,0.74l-0.24,0.33l-3.63-2.66
					c0.92-1.21,1.77-2.45,2.63-3.66L306.14,267.16z"/>
				<path class="st28" d="M311.17,259.39l-0.3,0.5l-0.5,0.8l-0.47,0.77l-0.5,0.77l-0.47,0.8l-0.21,0.3l-3.78-2.48
					c0.83-1.24,1.63-2.51,2.39-3.81L311.17,259.39z"/>
				<path class="st28" d="M315.75,251.32l-0.33,0.59l-0.44,0.8l-0.41,0.83l-0.44,0.8l-0.47,0.8l-0.12,0.24l-3.93-2.22
					c0.74-1.3,1.45-2.63,2.16-3.96L315.75,251.32z"/>
				<path class="st28" d="M319.79,242.99l-0.3,0.65l-0.38,0.83l-0.38,0.86l-0.38,0.83l-0.41,0.83l-0.09,0.21l-4.05-2.01
					c0.65-1.33,1.3-2.69,1.92-4.05L319.79,242.99z"/>
				<path class="st28" d="M323.37,234.42l-0.27,0.71l-0.33,0.86l-0.35,0.86l-0.35,0.86l-0.35,0.86l-0.06,0.18l-4.17-1.74
					c0.59-1.39,1.12-2.78,1.65-4.2L323.37,234.42z"/>
				<path class="st28" d="M326.38,225.67l-0.21,0.68l-0.3,0.89l-0.27,0.89l-0.3,0.89L325,229.9l-0.06,0.18l-4.26-1.51
					c0.5-1.42,0.98-2.84,1.42-4.26L326.38,225.67z"/>
				<path class="st28" d="M328.9,216.74l-0.18,0.65l-0.21,0.92l-0.24,0.89l-0.27,0.92l-0.24,0.89l-0.06,0.21l-4.34-1.21
					c0.41-1.45,0.8-2.9,1.15-4.37L328.9,216.74z"/>
				<path class="st28" d="M330.85,207.67l-0.12,0.59l-0.18,0.92l-0.18,0.92l-0.18,0.92l-0.21,0.92l-0.06,0.3l-4.4-0.98
					c0.33-1.48,0.62-2.93,0.89-4.4L330.85,207.67z"/>
				<path class="st28" d="M332.24,198.48l-0.06,0.44l-0.12,0.95l-0.12,0.95l-0.12,0.92l-0.15,0.95l-0.06,0.41l-4.46-0.68
					c0.24-1.48,0.41-2.98,0.62-4.46L332.24,198.48z"/>
				<path class="st28" d="M333.06,189.26v0.21l-0.06,0.95l-0.09,0.98l-0.06,0.95l-0.09,0.95l-0.06,0.59l-4.46-0.41
					c0.12-1.48,0.24-2.98,0.33-4.49L333.06,189.26z"/>
				<path class="st28" d="M333.33,180.01v0.86v0.95v0.98l-0.03,0.95l-0.03,0.89l-4.49-0.15c0.03-1.48,0.06-2.98,0.06-4.49
					L333.33,180.01z"/>
				<path class="st28" d="M333.03,170.73l0.03,0.44l0.06,0.98l0.06,0.98l0.03,0.98l0.03,0.95l0.03,0.33l-4.52,0.12
					c-0.03-1.51-0.12-2.98-0.21-4.49L333.03,170.73z"/>
				<path class="st28" d="M332.21,161.51l0.09,0.89l0.12,0.98l0.12,0.98l0.09,0.98l0.06,0.77l-4.46,0.41
					c-0.15-1.48-0.3-2.98-0.47-4.46L332.21,161.51z"/>
				<path class="st28" d="M330.79,152.32l0.06,0.3l0.18,0.98l0.18,0.98l0.15,0.98l0.15,0.98l0.06,0.38l-4.43,0.68
					c-0.24-1.51-0.5-2.98-0.77-4.43L330.79,152.32z"/>
				<path class="st28" d="M328.87,143.28l0.18,0.74l0.24,0.95l0.21,0.95l0.21,0.95l0.21,0.92l-4.4,0.95c-0.33-1.45-0.65-2.93-1-4.37
					L328.87,143.28z"/>
				<path class="st28" d="M326.38,134.35l0.09,0.33l0.3,0.92l0.27,0.92l0.27,0.95l0.27,0.92l0.12,0.41l-4.34,1.21
					c-0.38-1.45-0.83-2.9-1.27-4.31L326.38,134.35z"/>
				<path class="st28" d="M323.37,125.58v0.03l0.35,0.92l0.33,0.89l0.33,0.89l0.33,0.92l0.24,0.71l-4.26,1.48
					c-0.5-1.42-1-2.84-1.54-4.23L323.37,125.58z"/>
				<path class="st28" d="M319.82,117.03l0.3,0.68l0.38,0.86l0.38,0.89l0.38,0.86l0.35,0.89l0.03,0.09l-4.17,1.68
					c-0.59-1.39-1.15-2.78-1.77-4.14L319.82,117.03z"/>
				<path class="st28" d="M315.78,108.67l0.27,0.53l0.44,0.86l0.41,0.83l0.41,0.83l0.41,0.86l0.12,0.24l-4.05,1.95
					c-0.65-1.33-1.33-2.66-2.04-3.99L315.78,108.67z"/>
				<path class="st28" d="M311.19,100.6l0.27,0.44l0.47,0.8l0.47,0.8l0.47,0.83l0.47,0.8l0.18,0.33l-3.93,2.22
					c-0.74-1.3-1.48-2.6-2.25-3.87L311.19,100.6z"/>
				<path class="st28" d="M306.17,92.83l0.27,0.38l0.5,0.77l0.53,0.77l0.5,0.77l0.53,0.77l0.24,0.38l-3.78,2.45
					c-0.83-1.27-1.65-2.51-2.51-3.75L306.17,92.83z"/>
				<path class="st28" d="M300.64,85.35l0.3,0.38l0.56,0.71l0.56,0.74l0.56,0.74l0.56,0.74l0.27,0.38l-3.63,2.66
					c-0.89-1.21-1.8-2.39-2.72-3.58L300.64,85.35z"/>
				<path class="st28" d="M294.7,78.26l0.33,0.35l0.62,0.68l0.59,0.71l0.59,0.71l0.62,0.71l0.27,0.33l-3.46,2.9
					c-0.95-1.15-1.95-2.28-2.93-3.4L294.7,78.26z"/>
				<path class="st28" d="M288.35,71.52l0.35,0.35l0.65,0.65l0.65,0.68l0.65,0.65l0.62,0.68l0.3,0.3l-3.28,3.07
					c-1.03-1.09-2.07-2.16-3.13-3.22L288.35,71.52z"/>
				<path class="st28" d="M281.58,65.17l0.44,0.38l0.68,0.62l0.68,0.62l0.68,0.62l0.68,0.62l0.27,0.27l-3.1,3.25
					c-1.09-1-2.19-2.01-3.31-3.01L281.58,65.17z"/>
				<path class="st28" d="M274.46,59.26l0.53,0.38l0.71,0.59l0.71,0.56l0.71,0.59l0.71,0.59l0.24,0.18l-2.9,3.46
					c-1.15-0.98-2.31-1.92-3.49-2.84L274.46,59.26z"/>
				<path class="st28" d="M266.98,53.76l0.62,0.41l0.74,0.53l0.77,0.53l0.74,0.53l0.74,0.53l0.18,0.15l-2.69,3.61
					c-1.21-0.89-2.42-1.74-3.66-2.6L266.98,53.76z"/>
				<path class="st28" d="M259.21,48.74l0.68,0.41l0.8,0.47l0.77,0.5l0.77,0.47l0.8,0.5l0.12,0.09l-2.48,3.78
					c-1.24-0.83-2.51-1.63-3.81-2.39L259.21,48.74z"/>
				<path class="st28" d="M251.14,44.19l0.77,0.38l0.8,0.44l0.83,0.44l0.8,0.44l0.8,0.44l0.06,0.06l-2.22,3.9
					c-1.3-0.74-2.63-1.45-3.96-2.13L251.14,44.19z"/>
				<path class="st28" d="M242.78,40.11L242.78,40.11l0.86,0.38l0.83,0.38l0.86,0.41l0.83,0.38l0.83,0.41h0.03L245,46.14
					c-1.33-0.65-2.69-1.3-4.08-1.92L242.78,40.11z"/>
				<path class="st28" d="M234.21,36.56l0.03,0.03l0.89,0.33l0.86,0.33l0.86,0.35l0.86,0.33l0.83,0.35l-1.71,4.17
					c-1.39-0.59-2.81-1.12-4.2-1.65L234.21,36.56z"/>
				<path class="st28" d="M225.43,33.55h0.03l0.89,0.3l0.89,0.27l0.89,0.3l0.89,0.3l0.86,0.3l-1.48,4.26
					c-1.42-0.5-2.84-0.98-4.29-1.42L225.43,33.55z"/>
				<path class="st28" d="M216.54,31.07l0.86,0.21l0.92,0.24l0.89,0.24l0.92,0.24l0.89,0.27l-1.21,4.34
					c-1.45-0.41-2.9-0.8-4.34-1.15L216.54,31.07z"/>
				<path class="st28" d="M207.47,29.15l0.8,0.12l0.92,0.18l0.92,0.18l0.92,0.21l0.92,0.18l0.09,0.03l-0.98,4.4
					c-1.45-0.33-2.93-0.62-4.4-0.89L207.47,29.15z"/>
				<path class="st28" d="M198.3,27.76l0.62,0.06l0.95,0.12l0.95,0.15l0.92,0.12l0.95,0.15l0.21,0.03l-0.68,4.43
					c-1.48-0.21-2.96-0.41-4.46-0.59L198.3,27.76z"/>
				<path class="st28" d="M189.05,26.93l0.41,0.03l0.95,0.06l0.98,0.06l0.95,0.09l0.95,0.06l0.41,0.06l-0.41,4.46
					c-1.51-0.12-2.98-0.24-4.49-0.33L189.05,26.93z"/>
				<path class="st28" d="M179.77,26.66h0.12h0.98l0.95,0.03h0.98l0.95,0.03h0.68l-0.12,4.52c-1.51-0.06-3.01-0.06-4.52-0.06V26.66z
					"/>
				<path class="st28" d="M170.52,26.99l0.65-0.06l0.98-0.06l0.98-0.03l0.98-0.06l0.95-0.03h0.12l0.12,4.52
					c-1.48,0.03-2.98,0.12-4.49,0.21L170.52,26.99z"/>
				<path class="st28" d="M161.27,27.84l0.15-0.03l0.98-0.12l0.98-0.09l0.98-0.12l0.98-0.09l0.59-0.06l0.38,4.49
					c-1.48,0.12-2.98,0.3-4.46,0.47L161.27,27.84z"/>
			</g>
			<path class="st30" d="M159.8,43.71C84.5,54.89,32.54,124.95,43.71,200.23s81.24,127.25,156.51,116.08
				c75.27-11.17,127.25-81.24,116.08-156.51C305.14,84.5,235.07,32.54,159.8,43.71L159.8,43.71z"/>
			<g>
				<path class="st83" d="M108.61,260.75c0.47,4.02,0.27,6.86-0.98,8.16c0.09,0.24,0.18,0.5,0.27,0.77
					c2.69,1.42,10.64,1.33,21.46,0.3 M200.25,258.24c19.15-4.05,35.37-8.16,41.58-10.76c-5.14-1.74-19.68-7.09-14.1-10.55
					c34.64-21.46,19.48-47.2,3.61-62.86c-7.83-7.74-12.59-16.31-14.42-18.71c-0.09-0.18-9.31,2.63-9.4,2.48
					c0.33-0.09,0.65-0.18,0.98-0.24l-6.68-11.05l9.19,10.52c18.88-5.38,33.9-11.97,38.95-17.26c-21.01,0.35-29.08-9.37-32.83-13.74
					c-14.48-16.82-35.2-20.63-55.23-17.35c-0.33,1.39-0.65,2.75-0.8,2.84c-19.21,1.42-31.12,6.53-44.98,20.04
					c-0.33,0.35-0.21,0.33-0.65,0.53c-0.3-0.27-1.09-0.65-1.74-0.98c-6.38,5.56-11.11,11.5-13.36,17.2
					c-19.65,19.36-1.06,71.84,6,101.04"/>
				<path class="st83" d="M156.58,276.5c-17.7-2.51-41.23-11.7-55.56-18.91c-24.62-1.51-9.49-17.44-4.4-13.39
					c-1.8-5.05,2.54-8.57,7.83,4.31c22.08,11.02,39.13,12.88,53.67,11.64c-0.06-0.47-0.09-0.95-0.09-1.54
					c2.22,0.47,10.96-2.13,12.35-4.31c-0.06-2.04-0.12-3.72-0.09-5.73c0.83,0.33,17.68-0.23,17.7-0.68
					c-0.08,2.02-0.21,4.2-0.15,6.27c2.72,1.42,8.16,2.66,12.47,2.19c-0.18,1.42,0.44,2.54,0.26,3.49
					c17.11,1.54,37.07,2.13,61.98-14.54c3.61-13.45,8.36-10.52,7.21-5.26c4.55-4.67,21.54,9.22-2.66,13.83
					c-15.99,10.79-46.19,23.23-64.28,23.94"/>
				<path class="st83" d="M158.02,258.59c1.09-0.09,3.01-0.15,4.46-0.53c2.72,7.65,10.25,8.95,18.53,8.45
					c8.36-0.53,14.95-3.63,14.66-10.31c1.39,0.21,3.43,0.12,4.64,0.15c0.27,12.68,4.26,42.14,7.6,57.39
					c-9.46,3.87-43.35,3.96-57.13-0.56C153.38,297.54,158.26,268.34,158.02,258.59L158.02,258.59z"/>
				<path d="M188.37,290.18l-0.24-4.67l-2.28,0.06l0.24,4.67L188.37,290.18z M187.07,286.67l-1.15,0.06l-0.06-1.15l1.12-0.03
					L187.07,286.67z M186.93,284.39l-2.31,0.09l0.15,2.31l2.31-0.12L186.93,284.39z M185.83,285.6l0.06,1.12l-1.12,0.06l-0.09-1.15
					L185.83,285.6z M183.56,285.66l0.62,11.91l2.28-0.06l-0.62-11.91L183.56,285.66z M185.3,296.39l1.09,0.03l0.06,1.09l-1.15,0.03
					V296.39z M185.33,298.69l1.39,0.03l-0.03-2.31l-1.39-0.03L185.33,298.69z M186.72,298.72l-1.09-0.03l-0.06-1.09l1.15-0.03
					V298.72z M185.57,297.6l0.27,5.08l2.28-0.06l-0.27-5.08L185.57,297.6z M185.83,302.68l-0.06-1.15l1.15-0.03l0.06,1.15
					L185.83,302.68z M186.93,301.5l-9.13,0.27l0.12,2.28l9.13-0.27L186.93,301.5z M177.79,301.77l1.15-0.03l0.06,1.12l-1.15,0.06
					L177.79,301.77z M179.01,302.86l-0.3-5.11l-2.25,0.06l0.27,5.14L179.01,302.86z M178.71,297.75l0.09,1.18l-1.21-0.03v-1.12
					L178.71,297.75z M177.59,298.9l1.45,0.03v-2.28l-1.45-0.03V298.9z M177.91,297.81l-0.09-1.18l1.21,0.03v1.12L177.91,297.81z
					 M180.16,297.75l-0.62-12l-2.28,0.06l0.65,12L180.16,297.75z M178.47,286.93l-1.15,0.03l-0.06-1.15l1.15-0.03L178.47,286.93z
					 M178.36,284.63l-2.33,0.09l0.12,2.28l2.33-0.06L178.36,284.63z M177.2,285.81l0.06,1.15l-1.12,0.03l-0.06-1.15L177.2,285.81z
					 M174.93,285.87l0.27,4.7l2.25-0.09l-0.24-4.67L174.93,285.87z M175.19,290.57l-0.06-1.15l1.12-0.03l0.06,1.12L175.19,290.57z
					 M176.26,289.39l-3.58,0.09l0.12,2.31l3.58-0.12L176.26,289.39z M172.68,289.47l1.12-0.03l0.06,1.15l-1.12,0.03L172.68,289.47z
					 M173.86,290.6v-0.33l-2.28,0.09v0.3L173.86,290.6z M173.86,290.27L173.86,290.27l-1.15,0.06L173.86,290.27z M173.86,290.27
					l-0.06-1.12l-2.28,0.06l0.06,1.15L173.86,290.27z M173.81,289.15l-0.06-1.12l-2.28,0.06l0.06,1.12L173.81,289.15z
					 M173.75,288.03l-0.03-0.38l-2.28,0.06l0.03,0.38L173.75,288.03z M173.72,287.64l-0.03-0.44l-2.28,0.09l0.03,0.41L173.72,287.64
					z M173.69,287.2l-0.03-0.47l-2.28,0.06l0.03,0.5L173.69,287.2z M173.66,286.73l-0.03-0.56l-2.25,0.06v0.56L173.66,286.73z
					 M173.63,286.16l-0.03-0.65l-2.28,0.06l0.06,0.65L173.63,286.16z M173.6,285.51l-0.03-0.74l-2.28,0.09l0.03,0.71L173.6,285.51z
					 M173.57,284.77l-0.06-0.8l-2.25,0.06l0.03,0.83L173.57,284.77z M173.51,283.98l-0.03-0.92l-2.28,0.06l0.06,0.92L173.51,283.98z
					 M173.48,283.06l-0.06-1.09l-2.28,0.06l0.06,1.09L173.48,283.06z M173.42,281.97l-0.03-0.53l-2.28,0.06l0.03,0.53L173.42,281.97
					z M173.39,281.44l-0.03-0.71l-2.28,0.06l0.03,0.71L173.39,281.44z M173.36,280.73l0.06,1.15l-1.15,0.03l-0.06-1.15
					L173.36,280.73z M172.27,281.91l18.12-0.53l-0.12-2.31l-18.12,0.53L172.27,281.91z M190.38,281.38l-1.12,0.03l-0.06-1.15
					l1.12-0.03L190.38,281.38z M189.2,280.25l0.53,9.9l2.28-0.09l-0.53-9.87L189.2,280.25z M189.73,290.15l-0.06-1.15l1.15-0.06
					l0.06,1.15L189.73,290.15z M190.83,288.94l-3.63,0.12l0.12,2.31l3.63-0.12L190.83,288.94z M187.19,289.06l1.12-0.03l0.06,1.15
					l-1.12,0.03L187.19,289.06z"/>
				<path class="st83" d="M123.54,210.98c4.94-4.73,9.46-15.57,10.46-26.6c9.78-3.69,20.48-11.73,28.84-14.81l-0.24-22.37
					c-0.03-2.78,9.16,13.98,11.11,20.54c13.74-1.65,26.15-8.16,34.78-10.14l-6.68-11.05l9.19,10.52c2.1-0.59,4.14-1.21,6.12-1.83
					c9.46,16.61,25.77,29.35,29.4,40.28c18.09,54.64-96.02,66.85-118.74,37.09c-7.24,4.4-19.89,0.68-23.97-7.3
					C97.53,212.99,114.26,202.35,123.54,210.98L123.54,210.98z"/>
				<path class="st83" d="M118.01,190.92l-15.93-0.89c-1.15-0.06-2.16,0.83-2.22,1.98l-0.21,3.55c-0.06,1.15,0.83,2.16,1.98,2.22
					l15.87,0.89c1.15,1.98,3.25,3.34,5.7,3.46c3.84,0.18,7.12-2.78,7.3-6.62s-2.78-7.12-6.62-7.3
					C121.53,188.08,119.37,189.17,118.01,190.92L118.01,190.92z"/>
				<path class="st31" d="M123.77,190.5c-2.57-0.12-4.76,1.86-4.88,4.43s1.86,4.76,4.43,4.88c2.57,0.12,4.76-1.86,4.88-4.43
					C128.32,192.81,126.34,190.62,123.77,190.5L123.77,190.5z"/>
				<polygon class="st31" points="123.74,191.36 122.71,194.23 119.75,194.96 122.62,196 123.36,198.95 124.39,196.09 
					127.35,195.35 124.48,194.31 				"/>
				<path d="M197.24,209.68c-0.21-1.06-1.98-2.22-5.38-3.43c-0.18-0.12-0.35-0.24-0.44-0.41c-0.09-0.24-0.12-0.44-0.03-0.62
					c0.09-0.21,0.24-0.38,0.41-0.47c0.21-0.09,0.41-0.09,0.62,0c4.23,1.54,6.38,3.16,6.44,4.76c0.3,1.71-1.6,3.28-5.64,4.73
					c-0.18,0.06-0.38,0.06-0.59-0.06c-0.21-0.06-0.33-0.24-0.41-0.44c-0.09-0.21-0.06-0.41,0.03-0.62c0.09-0.18,0.24-0.33,0.44-0.38
					C195.7,211.63,197.21,210.63,197.24,209.68L197.24,209.68z"/>
				<path class="st83" d="M160.03,192.66c0.71-2.13,1.92-3.4,3.69-3.84c1.77-0.41,3.58,0.15,5.44,1.65
					c1.83,1.54,3.13,3.63,3.93,6.27c0.8,2.66,0.86,5.02,0.15,7.15c-0.71,2.19-1.98,3.49-3.75,3.9s-3.55-0.15-5.38-1.68
					c-1.86-1.51-3.16-3.58-3.96-6.24C159.35,197.21,159.32,194.85,160.03,192.66L160.03,192.66z"/>
				<path d="M166.95,192.48c1.09-0.27,2.25,0.06,3.37,1c1.15,0.98,1.95,2.28,2.45,3.93c0.44,1.63,0.5,3.13,0.06,4.43
					c-0.41,1.36-1.18,2.16-2.28,2.42c-1.12,0.27-2.28-0.06-3.46-1.03c-1.12-0.95-1.98-2.25-2.42-3.87c-0.5-1.63-0.53-3.13-0.09-4.52
					C165.09,193.52,165.86,192.75,166.95,192.48L166.95,192.48z"/>
				<path class="st83" d="M205.49,180.07c1.18-1.48,2.42-2.04,3.72-1.71c1.27,0.33,2.25,1.45,2.87,3.37
					c0.68,1.92,0.86,4.11,0.5,6.53c-0.33,2.42-1.09,4.31-2.22,5.79c-1.15,1.48-2.36,2.07-3.66,1.74c-1.3-0.33-2.25-1.48-2.93-3.4
					c-0.68-1.95-0.8-4.08-0.44-6.47C203.68,183.47,204.36,181.52,205.49,180.07L205.49,180.07z"/>
				<path d="M210.13,182.88c-0.8-0.21-1.57,0.15-2.28,1.09c-0.71,0.89-1.12,2.07-1.33,3.55c-0.24,1.48-0.15,2.84,0.3,3.96
					c0.38,1.24,0.98,1.98,1.77,2.19c0.8,0.18,1.6-0.21,2.31-1.15c0.68-0.86,1.15-2.04,1.36-3.55c0.24-1.48,0.09-2.78-0.35-3.96
					C211.51,183.76,210.92,183.08,210.13,182.88L210.13,182.88z"/>
				<path class="st83" d="M139.55,76.07l8.78,13.36l16.58-10.17c-2.75-4.88,2.87-8.9,6.44-6.15c2.04,1.57,2.42,3.72,1.77,5.64
					c-0.24,0.68-0.95,1.74-1.83,2.33c-1.24,0.86-2.07,0.83-3.4,0.89l-0.83,3.66c-0.18,0.71-0.27,1.21-0.41,1.86l-4.2,18.5
					c-0.12,0.59-1.09,5.41-1.36,5.56c-19.21,1.42-31.12,6.53-44.98,20.04c-0.33,0.35-0.21,0.33-0.65,0.53
					c-0.41-0.35-1.71-0.95-2.36-1.3l-7.71-4.17c-0.18-0.09-0.27-0.15-0.44-0.27l-5.76-3.07c-1.06-0.53-2.22-1.18-3.31-1.8
					c-2.16-1.21-4.46-2.31-6.53-3.55c-0.98,0.86-0.92,1.42-2.66,2.04c-1.09,0.38-2.22,0.27-3.04-0.03
					c-2.04-0.74-3.13-2.39-3.13-4.96c-0.03-0.56,0.24-1.51,0.5-2.01c0.56-1.15,1.83-2.13,3.22-2.36c1.24-0.24,2.04,0.03,2.87,0.41
					c1,0.41,1.57,1.18,2.22,2.36l17.67-4.79l-4.23-15.9c-1.95,0.53-3.96-0.71-4.79-2.45c-1.45-3.07,0.77-6.21,3.96-6.59
					c2.6-0.3,4.91,1.65,5.17,4.26c0.09,0.56-0.03,1.09,0.03,1.54c1.63,0.35,5.53,1.89,7.21,2.31c1.12,0.3,3.69,1.33,4.76,1.57
					c0.59,0.15,6.62,2.39,7.3,2.45c0.38-0.89,0.68-1.45,1-2.28l6.74-16.31c-4.31-3.16-2.28-8.72,1.86-9.19
					c3.55-0.38,6.41,3.55,4.37,6.97C140.2,75.34,139.67,75.78,139.55,76.07L139.55,76.07z"/>
				<path class="st83" d="M167.36,72.26c6-1.57,8.54,8.39,2.51,9.58C164.26,82.93,161.57,73.77,167.36,72.26L167.36,72.26z"/>
				<path class="st83" d="M107.08,86.71c1.57,6-8.39,8.54-9.55,2.51C96.41,83.61,105.57,80.95,107.08,86.71L107.08,86.71z"/>
				<path class="st83" d="M83.43,110.74c6-1.54,8.57,8.39,2.51,9.58C80.33,121.41,77.67,112.25,83.43,110.74L83.43,110.74z"/>
				<path class="st83" d="M171.8,230.31c-0.33-2.1,0.77-4.11,2.96-5.5"/>
				<path class="st83" d="M219.49,219.64c0.3-2.1-0.83-4.08-3.01-5.44"/>
				<path class="st83" d="M218.37,216.39c-11.17,15.93-27.72,18.68-46.04,11.23"/>
				<path class="st83" d="M140.79,71.05c1.57,6-8.39,8.57-9.58,2.54C130.13,67.98,139.29,65.29,140.79,71.05L140.79,71.05z"/>
			</g>
		</g>
	</g>
</g>
<g id="Layer_3">
</g>
<g id="Layer_1_copy" class="st36">
</g>
<g id="Layer_4">
</g>
</svg>
